<svg width="178" height="165" viewBox="0 0 178 165" fill="none" xmlns="http://www.w3.org/2000/svg">
<rect width="178" height="165" fill="white"/>
<path d="M73.2795 76.1897C73.2795 77.1637 73.3847 77.9534 73.5687 78.5326C73.7791 79.1117 74.042 79.7435 74.4102 80.4279C74.5416 80.6385 74.5942 80.8491 74.5942 81.0334C74.5942 81.2966 74.4365 81.5598 74.0946 81.8231L72.4381 82.9287C72.2014 83.0866 71.9648 83.1656 71.7544 83.1656C71.4915 83.1656 71.2286 83.034 70.9656 82.7971C70.5975 82.4022 70.282 81.981 70.019 81.5598C69.7561 81.1123 69.4931 80.6122 69.2039 80.0067C67.1529 82.4285 64.5761 83.6394 61.4734 83.6394C59.2647 83.6394 57.503 83.0077 56.2145 81.7441C54.9261 80.4805 54.2688 78.7958 54.2688 76.6899C54.2688 74.4523 55.0576 72.6359 56.6615 71.2671C58.2655 69.8982 60.3953 69.2138 63.1036 69.2138C63.9976 69.2138 64.9179 69.2928 65.8908 69.4244C66.8637 69.556 67.8629 69.7666 68.9147 70.0035V68.0818C68.9147 66.0812 68.494 64.686 67.6788 63.87C66.8374 63.0539 65.4175 62.6591 63.3929 62.6591C62.4726 62.6591 61.526 62.7644 60.5531 63.0013C59.5802 63.2382 58.6336 63.5278 57.7133 63.8963C57.2926 64.0806 56.9771 64.1859 56.793 64.2385C56.609 64.2912 56.4775 64.3175 56.3723 64.3175C56.0042 64.3175 55.8201 64.0542 55.8201 63.5014V62.2116C55.8201 61.7904 55.8727 61.4745 56.0042 61.2902C56.1357 61.1059 56.3723 60.9217 56.7404 60.7374C57.6607 60.2636 58.7651 59.8687 60.0535 59.5528C61.3419 59.2106 62.7092 59.0526 64.1554 59.0526C67.2844 59.0526 69.572 59.7634 71.0445 61.1849C72.4907 62.6064 73.2269 64.765 73.2269 67.6607V76.1897H73.2795ZM62.604 80.191C63.4718 80.191 64.3658 80.033 65.3124 79.7171C66.2589 79.4013 67.1004 78.8221 67.8103 78.0324C68.231 77.5322 68.5465 76.9794 68.7043 76.3476C68.8621 75.7159 68.9673 74.9525 68.9673 74.0574V72.9518C68.2047 72.7676 67.3896 72.6096 66.5482 72.5043C65.7068 72.399 64.8916 72.3464 64.0765 72.3464C62.3148 72.3464 61.0264 72.6886 60.1587 73.3993C59.291 74.1101 58.8703 75.1104 58.8703 76.4266C58.8703 77.6639 59.1858 78.5852 59.8431 79.217C60.4742 79.8751 61.3945 80.191 62.604 80.191ZM83.7183 83.034C83.245 83.034 82.9295 82.955 82.7191 82.7708C82.5088 82.6128 82.3247 82.2443 82.167 81.7441L75.9878 61.3955C75.83 60.869 75.7512 60.5268 75.7512 60.3425C75.7512 59.9213 75.9615 59.6844 76.3822 59.6844H78.9591C79.4587 59.6844 79.8005 59.7634 79.9845 59.9477C80.1949 60.1056 80.3527 60.4742 80.5104 60.9743L84.9279 78.4009L89.0298 60.9743C89.1612 60.4478 89.319 60.1056 89.5293 59.9477C89.7397 59.7897 90.1078 59.6844 90.5811 59.6844H92.6847C93.1842 59.6844 93.5261 59.7634 93.7364 59.9477C93.9468 60.1056 94.1308 60.4742 94.236 60.9743L98.3905 78.6115L102.939 60.9743C103.097 60.4478 103.281 60.1056 103.465 59.9477C103.676 59.7897 104.017 59.6844 104.491 59.6844H106.936C107.357 59.6844 107.593 59.895 107.593 60.3425C107.593 60.4742 107.567 60.6058 107.541 60.7637C107.515 60.9217 107.462 61.1323 107.357 61.4218L101.02 81.7704C100.862 82.2969 100.678 82.6391 100.468 82.7971C100.257 82.955 99.9156 83.0603 99.4686 83.0603H97.2073C96.7077 83.0603 96.3658 82.9813 96.1555 82.7971C95.9451 82.6128 95.7611 82.2706 95.6559 81.7441L91.5803 64.765L87.531 81.7178C87.3995 82.2443 87.2417 82.5865 87.0314 82.7708C86.821 82.955 86.4529 83.034 85.9796 83.034H83.7183ZM117.506 83.7447C116.139 83.7447 114.772 83.5868 113.457 83.2709C112.142 82.955 111.117 82.6128 110.433 82.2179C110.013 81.981 109.723 81.7178 109.618 81.4809C109.513 81.2439 109.46 80.9807 109.46 80.7438V79.4013C109.46 78.8484 109.671 78.5852 110.065 78.5852C110.223 78.5852 110.381 78.6115 110.538 78.6642C110.696 78.7168 110.933 78.8221 111.196 78.9274C112.09 79.3223 113.063 79.6382 114.088 79.8488C115.14 80.0594 116.165 80.1647 117.217 80.1647C118.874 80.1647 120.162 79.8751 121.056 79.296C121.95 78.7168 122.423 77.8744 122.423 76.7952C122.423 76.0581 122.187 75.4526 121.714 74.9525C121.24 74.4523 120.346 74.0048 119.058 73.5836L115.245 72.399C113.326 71.7936 111.906 70.8985 111.038 69.7139C110.17 68.5557 109.723 67.2658 109.723 65.8969C109.723 64.7913 109.96 63.8173 110.433 62.975C110.907 62.1326 111.538 61.3955 112.326 60.8164C113.115 60.2109 114.009 59.7634 115.061 59.4475C116.113 59.1316 117.217 59 118.374 59C118.953 59 119.557 59.0263 120.136 59.1053C120.741 59.1843 121.293 59.2896 121.845 59.3949C122.371 59.5265 122.87 59.6581 123.344 59.8161C123.817 59.974 124.185 60.1319 124.448 60.2899C124.816 60.5005 125.079 60.7111 125.237 60.948C125.395 61.1586 125.474 61.4482 125.474 61.8167V63.0539C125.474 63.6067 125.263 63.8963 124.869 63.8963C124.658 63.8963 124.317 63.791 123.87 63.5804C122.371 62.896 120.688 62.5538 118.821 62.5538C117.322 62.5538 116.139 62.7907 115.324 63.2908C114.509 63.791 114.088 64.5544 114.088 65.6337C114.088 66.3708 114.351 67.0026 114.877 67.5027C115.403 68.0029 116.376 68.503 117.769 68.9505L121.503 70.1351C123.396 70.7406 124.764 71.583 125.579 72.6623C126.394 73.7416 126.788 74.9788 126.788 76.3476C126.788 77.4796 126.552 78.5062 126.105 79.4013C125.631 80.2963 125 81.086 124.185 81.7178C123.37 82.3759 122.397 82.8497 121.266 83.1919C120.083 83.5605 118.847 83.7447 117.506 83.7447Z" fill="#1D1E1F"/>
<path fill-rule="evenodd" clip-rule="evenodd" d="M122.476 96.5385C113.825 102.935 101.257 106.331 90.4498 106.331C75.3043 106.331 61.6576 100.724 51.3502 91.4053C50.5351 90.6682 51.2714 89.6679 52.2442 90.2471C63.393 96.7228 77.1449 100.645 91.3701 100.645C100.967 100.645 111.511 98.6445 121.214 94.5379C122.66 93.8798 123.896 95.4856 122.476 96.5385Z" fill="#FF9900"/>
</svg>