<svg width="178" height="165" viewBox="0 0 178 165" fill="none" xmlns="http://www.w3.org/2000/svg">
<rect width="178" height="165" fill="white"/>
<path d="M97.6539 69.6991H99.5478L104.946 64.3014L105.211 62.0097C98.9242 56.461 90.2182 54.5518 82.1866 56.9605C74.155 59.3692 67.9365 65.7544 65.741 73.8468C66.3424 73.6004 67.0085 73.5604 67.635 73.7332L78.4304 71.9529C78.4304 71.9529 78.9797 71.0438 79.2638 71.1006C84.0658 65.8267 92.1473 65.2121 97.6918 69.6991H97.6539Z" fill="#EA4335"/>
<path d="M112.635 73.8469C111.394 69.278 108.847 65.1706 105.305 62.0287L97.7297 69.6044C100.929 72.2183 102.751 76.1559 102.673 80.2863V81.631C106.397 81.631 109.415 84.6496 109.415 88.3734C109.415 92.0971 106.397 95.1158 102.673 95.1158H89.188L87.8433 96.4794V104.567L89.188 105.911H102.673C110.405 105.971 117.263 100.961 119.558 93.5774C121.852 86.1936 119.04 78.1787 112.635 73.8469Z" fill="#4285F4"/>
<path d="M75.6842 105.835H89.169V95.04H75.6842C74.7234 95.0398 73.774 94.8331 72.9001 94.434L71.0061 95.0211L65.5705 100.419L65.097 102.313C68.1452 104.614 71.8646 105.852 75.6842 105.835Z" fill="#34A853"/>
<path d="M75.6842 70.8166C68.1938 70.8613 61.5587 75.6583 59.1682 82.7571C56.7776 89.856 59.1595 97.6894 65.0971 102.256L72.919 94.434C70.1861 93.1993 68.5972 90.308 69.02 87.339C69.4428 84.3701 71.7756 82.0373 74.7445 81.6145C77.7134 81.1917 80.6048 82.7807 81.8395 85.5135L89.6615 77.6916C86.3334 73.3408 81.1619 70.7971 75.6842 70.8166Z" fill="#FBBC05"/>
</svg>