<svg version="1.1" id="Layer_1" xmlns="http://www.w3.org/2000/svg" xmlns:xlink="http://www.w3.org/1999/xlink" x="0px" y="0px"
	 width="100%" viewBox="0 0 791 157" enable-background="new 0 0 791 157" xml:space="preserve">
<path fill="#FDFEFE" opacity="1.000000" stroke="none" 
	d="
M582.000000,158.000000 
	C388.051025,158.000000 194.602020,158.000000 1.076519,158.000000 
	C1.076519,105.731575 1.076519,53.463001 1.076519,1.097214 
	C264.666656,1.097214 528.333313,1.097214 791.972229,1.097214 
	C791.972229,53.397945 791.972229,105.698982 791.972229,158.000000 
	C722.129639,158.000000 652.314819,158.000000 582.000000,158.000000 
M249.935501,61.880348 
	C249.935501,61.880348 249.808105,61.747265 249.302612,61.850903 
	C249.087570,62.105431 248.872513,62.359959 248.650925,62.907410 
	C248.650925,62.907410 248.617111,62.616325 248.089386,62.790848 
	C247.581512,63.308884 247.073639,63.826916 246.431183,64.472069 
	C246.431183,64.472069 246.318619,64.619034 245.997574,64.769539 
	C245.795410,64.912651 245.665009,65.104538 245.487900,65.450317 
	C245.487900,65.450317 245.362183,65.546669 244.910583,65.792465 
	C244.613586,66.197464 244.316589,66.602470 243.997910,67.000168 
	C243.997910,67.000168 244.008484,67.020958 243.492477,67.279587 
	C243.215805,67.772774 242.939133,68.265953 242.813446,68.872734 
	C242.813446,68.872734 242.718735,68.709221 242.235580,68.943497 
	C242.106583,69.268478 241.977600,69.593460 241.963181,69.959045 
	C241.963181,69.959045 241.880829,69.869652 241.376877,70.195587 
	C241.159653,70.744446 240.942429,71.293297 240.902573,71.954956 
	C240.902573,71.954956 240.760208,71.800323 240.278000,72.158836 
	C240.094421,72.724091 239.910828,73.289345 239.870926,73.931305 
	C239.870926,73.931305 239.772858,73.801270 239.245743,74.260025 
	C238.837326,75.842384 238.428909,77.424751 237.624359,79.722687 
	C236.558075,86.403503 236.729843,92.955482 239.584793,99.222824 
	C239.584793,99.222824 239.564331,99.288445 239.610245,99.978775 
	C240.317093,101.394661 241.023941,102.810547 241.811615,104.056007 
	C241.811615,104.056007 241.676285,104.187408 241.767838,104.783882 
	C242.115631,105.253838 242.463409,105.723785 242.864227,106.092865 
	C242.864227,106.092865 242.754547,106.123848 242.844727,106.713242 
	C243.227707,107.146027 243.610687,107.578804 244.000610,108.000107 
	C244.000610,108.000107 243.989304,108.005280 244.122574,108.627373 
	C245.105942,109.698326 246.089310,110.769279 247.060379,111.941154 
	C247.060379,111.941154 247.161148,111.927513 247.393066,112.439217 
	C247.857361,112.730736 248.321655,113.022255 248.840561,113.199867 
	C248.840561,113.199867 248.716034,113.221100 248.929749,113.743073 
	C249.255386,113.917488 249.581024,114.091904 250.140228,114.669159 
	C250.388794,114.875641 250.674515,114.985390 251.328476,115.491577 
	C251.862106,115.718666 252.395752,115.945755 252.947693,116.076546 
	C252.947693,116.076546 252.861130,116.122559 253.325653,116.682228 
	C256.545074,117.418137 259.764496,118.154037 263.836914,119.104164 
	C267.740814,118.404533 271.638763,117.669540 275.550140,117.014534 
	C280.096008,116.253273 280.850952,113.996300 279.467621,109.667542 
	C276.857819,101.500626 274.882843,93.130844 272.546844,84.485893 
	C285.813751,81.128929 298.473389,77.925629 311.476288,74.635483 
	C316.452911,92.734825 321.284332,110.306076 326.309082,128.580475 
	C316.642273,132.950455 307.272461,137.186157 297.121826,141.581818 
	C294.571198,142.718307 292.020538,143.854813 289.508026,145.055634 
	C289.508026,145.055634 289.450958,144.998108 288.807526,144.491608 
	C286.246338,145.119690 283.685181,145.747772 281.123993,146.375854 
	C281.175964,146.581985 281.227936,146.788101 281.279907,146.994232 
	C286.519745,146.994232 291.759613,146.994232 297.921448,147.179871 
	C313.945740,147.121857 329.970001,147.063843 346.859650,146.744308 
	C347.002655,144.947830 347.252045,143.152481 347.271210,141.354691 
	C347.386108,130.592316 347.447998,119.829399 348.395111,109.005081 
	C350.712524,108.992615 353.029968,108.969864 355.347382,108.969360 
	C368.538086,108.966515 372.221588,112.205872 374.171967,125.307137 
	C375.193481,132.168915 376.369965,139.007614 377.587219,146.616272 
	C378.060272,146.746689 378.533356,146.877121 379.929626,147.180283 
	C400.286957,147.115952 420.644287,147.051620 441.790283,147.153687 
	C442.847412,147.056931 443.904510,146.960175 445.650269,146.612213 
	C447.715485,139.770035 449.627380,132.874512 451.974030,126.130272 
	C452.448547,124.766609 454.546509,123.093254 455.931854,123.060089 
	C466.588043,122.805008 477.255737,122.806183 487.912140,123.056343 
	C489.310028,123.089157 491.433990,124.716179 491.905029,126.064713 
	C493.932220,131.868607 495.302155,137.901154 497.301636,143.716248 
	C497.792145,145.142792 499.748993,147.059891 501.041992,147.067780 
	C523.359375,147.204208 545.678345,147.076843 568.530396,147.104843 
	C568.684204,147.009842 568.838013,146.914841 569.681152,146.369827 
	C569.730286,118.482681 569.784912,90.595535 569.799744,62.708382 
	C569.800171,61.940887 569.372742,61.173164 569.570374,60.093697 
	C569.604370,59.748413 569.638367,59.403130 570.197144,59.454777 
	C572.498657,67.749283 574.842773,76.032249 577.093262,84.340561 
	C582.650208,104.855530 588.164246,125.382126 593.811646,146.572052 
	C594.210022,146.718491 594.608398,146.864929 595.930115,147.183075 
	C606.620239,147.118103 617.310364,147.053131 628.742859,147.153580 
	C629.479248,147.040405 630.215576,146.927216 631.609253,146.490952 
	C639.300171,117.671295 646.991028,88.851631 654.681946,60.031971 
	C655.005005,60.079304 655.328064,60.126637 655.651123,60.173969 
	C655.651123,89.012589 655.651123,117.851212 655.651123,146.820694 
	C669.452332,146.820694 682.813538,146.820694 696.391479,146.820694 
	C696.391479,121.270050 696.417053,96.117096 696.380066,70.964233 
	C696.362915,59.308956 696.223938,47.653858 696.282410,35.483425 
	C696.200195,35.325363 696.117920,35.167305 695.566833,34.287521 
	C673.607544,34.287521 651.648193,34.287521 629.348816,34.287521 
	C624.389099,54.333988 619.468262,74.223358 614.244080,95.338936 
	C613.507080,93.095963 613.102966,92.075302 612.835205,91.020058 
	C608.417725,73.614662 603.938171,56.224239 599.681396,38.779495 
	C598.846069,35.356110 597.621216,33.954678 593.768127,34.002411 
	C574.442688,34.241825 555.112793,34.108612 535.784424,34.127373 
	C534.341553,34.128773 532.898804,34.295235 530.860046,34.422028 
	C530.860046,57.335716 530.860046,79.938019 530.860046,102.540314 
	C530.559692,102.570732 530.259338,102.601143 529.958923,102.631554 
	C521.587769,80.418037 513.216553,58.204529 504.849670,35.482376 
	C504.620392,35.260944 504.391083,35.039509 504.087982,34.827877 
	C504.087982,34.827877 504.117249,34.759396 503.496002,34.187180 
	C483.944092,34.149441 464.392090,34.089851 444.840363,34.131683 
	C443.741150,34.134033 442.643738,34.971466 441.493042,35.561337 
	C441.493042,35.561337 441.479431,35.711250 441.134583,36.048412 
	C441.018219,36.356499 440.977325,36.674313 440.549835,37.556385 
	C431.949493,60.834400 423.349152,84.112411 415.182983,106.215256 
	C408.396851,101.857254 401.829926,97.640045 395.710907,93.710457 
	C397.872559,92.977692 401.084686,92.121483 404.106384,90.822357 
	C414.574585,86.321770 421.082306,78.687225 421.847778,67.002022 
	C422.639313,54.919216 417.384094,45.702278 406.668549,40.622223 
	C400.367432,37.634960 393.075928,36.736717 385.460327,34.530106 
	C384.303467,34.408772 383.146790,34.183426 381.989716,34.181343 
	C354.164215,34.131229 326.338684,34.097061 298.513184,34.110886 
	C297.632874,34.111324 296.752838,34.650417 295.804657,35.721893 
	C296.302246,37.468620 296.799805,39.215351 297.284180,41.744442 
	C298.069183,44.819653 298.854156,47.894863 299.695740,51.191807 
	C294.918182,51.191807 291.139954,51.110767 287.366272,51.207447 
	C277.250885,51.466606 267.244202,52.336124 257.423615,57.127151 
	C256.559204,57.594749 255.694794,58.062347 254.182587,58.718826 
	C253.110962,59.469624 252.039352,60.220417 250.997955,61.001560 
	C250.997955,61.001560 250.978012,60.964691 250.461014,61.060452 
	C250.231003,61.306107 250.000992,61.551762 249.935501,61.880348 
M726.852661,111.660591 
	C726.907715,112.104813 726.962769,112.549034 727.405029,113.768753 
	C735.527893,113.768753 743.650818,113.768753 752.374084,113.768753 
	C751.115906,111.539139 754.067810,107.775734 748.130127,108.342270 
	C742.354736,108.331665 736.576355,108.220032 730.806152,108.387871 
	C729.509216,108.425591 728.240662,109.439758 726.812256,110.503685 
	C726.868347,110.667816 726.924500,110.831955 726.852661,111.660591 
M165.185242,100.829697 
	C165.248383,101.862160 165.311539,102.894615 165.217529,104.710648 
	C165.270905,105.504402 165.324295,106.298157 165.182007,107.822365 
	C165.059006,108.958611 164.936020,110.094864 164.813034,111.231110 
	C164.602875,111.218781 164.392715,111.206451 164.182556,111.194122 
	C157.083832,85.592247 149.985092,59.990376 142.810440,34.114647 
	C124.566040,34.114647 106.599091,34.085400 88.632362,34.135956 
	C84.334717,34.148048 80.037811,34.425991 75.712868,34.673046 
	C75.712868,34.673046 75.736511,34.765560 75.271652,35.119797 
	C75.412064,35.639774 75.552475,36.159748 75.289146,37.427631 
	C75.253265,70.751579 75.207413,104.075523 75.200607,137.399475 
	C75.200066,140.040283 75.470253,142.681152 75.243668,145.726105 
	C75.496582,146.098816 75.749489,146.471512 76.473846,147.103683 
	C76.649971,147.069656 76.826088,147.035645 77.924973,147.180557 
	C87.617851,147.115067 97.310730,147.049576 107.842979,147.147644 
	C109.872147,146.765106 111.901306,146.382568 114.117821,145.078690 
	C114.117821,119.931068 114.117821,94.783440 114.117821,69.635818 
	C115.821625,71.016640 116.466743,72.620789 116.932320,74.275452 
	C121.976921,92.204063 126.934181,110.157494 132.049286,128.065872 
	C133.852509,134.379028 136.022995,140.587265 138.479675,147.136551 
	C138.655670,147.098282 138.831665,147.060028 139.932770,147.180908 
	C148.288834,147.117081 156.644913,147.053238 165.741669,147.153183 
	C166.494019,147.098663 167.246368,147.044128 168.920441,147.177216 
	C185.948273,147.113190 202.976089,147.049149 220.893005,147.150146 
	C223.869034,147.150146 226.845078,147.150146 229.821106,147.150146 
	C229.828232,146.898361 229.835373,146.646561 229.842499,146.394775 
	C227.262238,145.394272 224.681992,144.393784 221.637619,142.953934 
	C220.474075,142.308334 219.298279,141.683777 218.148773,141.014084 
	C189.505188,124.326782 180.137314,84.532898 198.641602,58.106697 
	C200.335312,55.687901 202.133850,53.342506 204.158447,50.069508 
	C204.080215,45.048122 204.001984,40.026737 203.498474,34.271954 
	C191.467178,34.218113 179.435898,34.150177 167.404602,34.149807 
	C166.766953,34.149788 166.129257,34.720985 165.284012,35.497330 
	C165.428085,35.788792 165.572159,36.080257 165.280624,36.902973 
	C165.316406,37.576199 165.352203,38.249428 165.219177,39.854988 
	C165.275330,59.928612 165.331482,80.002235 165.185242,100.829697 
M56.601933,34.270725 
	C41.865074,34.270725 27.128218,34.270725 12.359836,34.270725 
	C12.243967,35.533298 12.131856,36.185833 12.131675,36.838402 
	C12.121775,72.483788 12.113829,108.129181 12.157386,143.774521 
	C12.158634,144.795609 12.717060,145.815994 13.477075,147.106049 
	C13.651579,147.070526 13.826082,147.035004 14.923533,147.178589 
	C28.614887,147.123581 42.306240,147.068588 56.881092,146.777557 
	C57.048214,145.312927 57.356636,143.848770 57.361496,142.383591 
	C57.451088,115.395569 57.547241,88.407425 57.540863,61.419323 
	C57.538784,52.608273 57.249680,43.797295 56.601933,34.270725 
M745.392151,126.677704 
	C747.487305,126.677704 749.582458,126.677704 752.044800,126.677704 
	C751.885437,124.385056 751.776855,122.821976 751.668884,121.268539 
	C743.162170,121.268539 735.087891,121.268539 727.052063,121.268539 
	C726.353760,129.720596 726.358337,129.704803 734.157532,131.977417 
	C736.068848,132.534348 737.939270,133.231430 740.777954,134.182007 
	C726.031067,139.068192 726.031067,139.068192 727.338745,146.985535 
	C735.372253,146.985535 743.441650,146.985535 751.903259,146.985535 
	C751.801636,145.352890 751.717590,144.002319 751.604370,142.183502 
	C746.035034,142.183502 740.876160,142.183502 735.717285,142.183502 
	C740.032715,140.046661 744.495483,138.941330 748.825745,137.450867 
	C750.063293,137.024902 750.916687,135.482773 751.946289,134.452499 
	C750.969543,133.572495 750.135254,132.282104 748.990967,131.884796 
	C744.470825,130.315475 739.853394,129.026230 735.272095,127.633110 
	C735.345520,127.314209 735.418884,126.995316 735.492310,126.676422 
	C738.475586,126.676422 741.458923,126.676422 745.392151,126.677704 
M744.721008,71.110085 
	C743.811829,70.489838 742.481934,70.039085 742.140015,69.190338 
	C741.908325,68.615036 742.874207,67.214600 743.646851,66.661217 
	C744.693054,65.911926 746.027954,65.403679 747.307800,65.171844 
	C751.804871,64.357254 752.922241,61.754097 751.469543,57.372894 
	C750.100891,57.909901 748.762634,58.471710 747.398804,58.962723 
	C744.133179,60.138439 741.432861,61.817940 737.701111,58.482624 
	C733.818848,55.012836 727.638916,58.330715 727.068481,63.730652 
	C726.624207,67.937019 726.979614,72.227867 726.979614,76.643646 
	C735.444763,76.643646 743.494812,76.643646 751.713135,76.643646 
	C751.713135,74.783760 751.713135,73.205322 751.713135,71.113197 
	C749.544250,71.113197 747.587952,71.113197 744.721008,71.110085 
M730.478027,34.838837 
	C726.833862,37.489605 725.541260,41.012398 726.723511,45.353924 
	C727.914856,49.728878 731.174133,52.124092 735.347656,52.653942 
	C738.556946,53.061390 742.011414,52.776363 745.173584,52.026379 
	C749.946411,50.894405 752.408508,47.433628 752.290833,42.467808 
	C752.172241,37.463451 749.323975,33.878414 744.658386,33.323296 
	C740.249817,32.798752 735.637146,33.989632 730.478027,34.838837 
M728.173279,98.161316 
	C733.408997,103.287727 740.773438,104.487747 746.908752,101.214233 
	C751.217896,98.915054 753.118835,94.839119 752.051575,89.897926 
	C751.063660,85.323883 748.132324,82.942215 742.853271,82.943588 
	C743.342957,85.109756 744.401978,86.911530 745.392273,88.750343 
	C746.058350,89.987022 747.321594,91.445351 747.064758,92.499100 
	C746.739319,93.834236 745.250610,95.706642 744.074097,95.856209 
	C740.834229,96.268105 737.443970,96.213142 734.223450,95.678375 
	C733.072388,95.487236 731.664124,93.482315 731.450745,92.134659 
	C731.297058,91.164131 732.801025,89.775291 733.808411,88.832489 
	C734.458679,88.223854 735.547913,88.084221 736.699524,87.632828 
	C736.387268,85.708694 736.108887,83.993340 735.824158,82.239006 
	C726.775208,84.492897 724.430969,89.195244 728.173279,98.161316 
M774.567688,5.609565 
	C766.934387,4.353039 760.727783,7.698914 759.246216,13.869135 
	C757.803833,19.876221 761.404968,26.041801 767.430725,27.881987 
	C773.424561,29.712425 779.969177,26.761843 782.331848,21.163916 
	C784.912354,15.050147 782.320557,9.432443 774.567688,5.609565 
z"/>
<path fill="#2476BB" opacity="1.000000" stroke="none" 
	d="
M254.830383,58.529945 
	C255.694794,58.062347 256.559204,57.594749 257.951050,57.324852 
	C268.361023,54.793732 278.198944,51.864452 288.677917,52.925087 
	C291.313477,53.191845 294.097839,53.391102 296.624786,52.805626 
	C298.157867,52.450432 300.581879,50.330795 300.425751,49.351242 
	C299.965302,46.462051 298.418854,43.745934 297.297394,40.962082 
	C296.799805,39.215351 296.302246,37.468620 296.234314,35.496838 
	C298.619476,35.508724 300.574585,35.948277 302.530518,35.951897 
	C327.651154,35.998413 352.772034,36.016384 377.892487,35.935104 
	C380.672699,35.926113 383.450806,35.260162 386.229889,34.898895 
	C393.075928,36.736717 400.367432,37.634960 406.668549,40.622223 
	C417.384094,45.702278 422.639313,54.919216 421.847778,67.002022 
	C421.082306,78.687225 414.574585,86.321770 404.106384,90.822357 
	C401.084686,92.121483 397.872559,92.977692 395.710907,93.710457 
	C401.829926,97.640045 408.396851,101.857254 415.182983,106.215256 
	C423.349152,84.112411 431.949493,60.834400 440.995239,37.125591 
	C441.453583,36.366951 441.466522,36.039101 441.479431,35.711250 
	C441.479431,35.711250 441.493042,35.561337 442.006287,35.665924 
	C460.371307,35.840256 478.223206,35.961853 496.074768,35.923889 
	C498.756409,35.918186 501.436462,35.166176 504.117249,34.759396 
	C504.117249,34.759396 504.087982,34.827877 504.142883,35.065086 
	C504.315735,35.623901 504.531616,35.853474 504.845367,35.991013 
	C513.216553,58.204529 521.587769,80.418037 529.958923,102.631554 
	C530.259338,102.601143 530.559692,102.570732 530.860046,102.540314 
	C530.860046,79.938019 530.860046,57.335716 530.860046,34.422028 
	C532.898804,34.295235 534.341553,34.128773 535.784424,34.127373 
	C555.112793,34.108612 574.442688,34.241825 593.768127,34.002411 
	C597.621216,33.954678 598.846069,35.356110 599.681396,38.779495 
	C603.938171,56.224239 608.417725,73.614662 612.835205,91.020058 
	C613.102966,92.075302 613.507080,93.095963 614.244080,95.338936 
	C619.468262,74.223358 624.389099,54.333988 629.348816,34.287521 
	C651.648193,34.287521 673.607544,34.287521 695.329834,34.652569 
	C674.810608,35.017616 654.528442,35.017616 634.246216,35.017616 
	C634.247986,35.344635 634.249695,35.671658 634.251404,35.998676 
	C654.880981,35.998676 675.510620,35.998676 696.140198,35.998676 
	C696.223938,47.653858 696.362915,59.308956 696.380066,70.964233 
	C696.417053,96.117096 696.391479,121.270050 696.391479,146.820694 
	C682.813538,146.820694 669.452332,146.820694 655.651123,146.820694 
	C655.651123,117.851212 655.651123,89.012589 655.651123,60.173969 
	C655.328064,60.126637 655.005005,60.079304 654.681946,60.031971 
	C646.991028,88.851631 639.300171,117.671295 631.079346,146.433228 
	C629.699768,146.579742 628.850159,146.783966 628.000488,146.988174 
	C617.310364,147.053131 606.620239,147.118103 595.318176,146.842987 
	C594.369324,146.303299 594.032410,146.103683 593.695496,145.904053 
	C588.164246,125.382126 582.650208,104.855530 577.093262,84.340561 
	C574.842773,76.032249 572.498657,67.749283 569.516479,59.426846 
	C568.556641,61.315262 568.037903,63.231140 568.034180,65.148026 
	C567.980957,92.434349 567.997375,119.720810 567.997009,147.007233 
	C545.678345,147.076843 523.359375,147.204208 501.041992,147.067780 
	C499.748993,147.059891 497.792145,145.142792 497.301636,143.716248 
	C495.302155,137.901154 493.932220,131.868607 491.905029,126.064713 
	C491.433990,124.716179 489.310028,123.089157 487.912140,123.056343 
	C477.255737,122.806183 466.588043,122.805008 455.931854,123.060089 
	C454.546509,123.093254 452.448547,124.766609 451.974030,126.130272 
	C449.627380,132.874512 447.715485,139.770035 445.082367,146.499359 
	C443.343506,146.586761 442.172577,146.787033 441.001617,146.987289 
	C420.644287,147.051620 400.286957,147.115952 379.286682,146.819870 
	C378.254639,146.258560 377.865509,146.057663 377.476440,145.856750 
	C376.369965,139.007614 375.193481,132.168915 374.171967,125.307137 
	C372.221588,112.205872 368.538086,108.966515 355.347382,108.969360 
	C353.029968,108.969864 350.712524,108.992615 347.564819,109.226936 
	C346.488892,111.205566 346.041504,112.961075 346.030548,114.719315 
	C345.963501,125.481140 345.995361,136.243576 345.994293,147.005814 
	C329.970001,147.063843 313.945740,147.121857 297.427979,146.740845 
	C297.257233,144.675156 297.579926,143.048508 297.902588,141.421875 
	C307.272461,137.186157 316.642273,132.950455 326.309082,128.580475 
	C321.284332,110.306076 316.452911,92.734825 311.476288,74.635483 
	C298.473389,77.925629 285.813751,81.128929 272.546844,84.485893 
	C274.882843,93.130844 276.857819,101.500626 279.467621,109.667542 
	C280.850952,113.996300 280.096008,116.253273 275.550140,117.014534 
	C271.638763,117.669540 267.740814,118.404533 263.161255,118.742950 
	C259.277466,117.628670 256.069305,116.875610 252.861130,116.122559 
	C252.861130,116.122559 252.947693,116.076546 252.811096,115.843407 
	C252.115448,115.406319 251.556427,115.202370 250.997391,114.998421 
	C250.674515,114.985390 250.388794,114.875641 249.932678,114.190536 
	C249.388763,113.548317 249.052399,113.384705 248.716034,113.221100 
	C248.716034,113.221100 248.840561,113.199867 248.761917,112.960663 
	C248.175903,112.456802 247.668518,112.192154 247.161148,111.927513 
	C247.161148,111.927513 247.060379,111.941154 247.042206,111.538254 
	C246.012451,110.091995 245.000870,109.048637 243.989304,108.005280 
	C243.989304,108.005280 244.000610,108.000107 243.976410,107.693115 
	C243.552994,106.965363 243.153763,106.544609 242.754547,106.123848 
	C242.754547,106.123848 242.864227,106.092865 242.872940,105.809830 
	C242.479858,105.080330 242.078079,104.633865 241.676285,104.187408 
	C241.676285,104.187408 241.811615,104.056007 241.851974,103.761978 
	C241.116333,102.074776 240.340332,100.681610 239.564331,99.288437 
	C239.564331,99.288445 239.584793,99.222824 239.728943,98.784714 
	C239.561417,91.887550 239.249771,85.428505 239.105530,78.627991 
	C239.439575,76.791435 239.606216,75.296356 239.772858,73.801270 
	C239.772858,73.801270 239.870926,73.931305 240.104706,73.770981 
	C240.479050,73.007217 240.619629,72.403770 240.760208,71.800323 
	C240.760208,71.800323 240.902573,71.954956 241.117249,71.788651 
	C241.514877,71.038109 241.697861,70.453880 241.880829,69.869652 
	C241.880829,69.869652 241.963181,69.959045 242.161865,69.832245 
	C242.479935,69.373375 242.599335,69.041298 242.718735,68.709221 
	C242.718735,68.709221 242.813446,68.872734 243.045868,68.758423 
	C243.521698,68.103065 243.765091,67.562012 244.008484,67.020958 
	C244.008484,67.020958 243.997910,67.000168 244.320587,66.965576 
	C244.882904,66.469551 245.122543,66.008110 245.362183,65.546669 
	C245.362183,65.546669 245.487900,65.450317 245.810379,65.490433 
	C246.194778,65.226700 246.256699,64.922867 246.318619,64.619034 
	C246.318619,64.619034 246.431183,64.472069 246.822235,64.516861 
	C247.681213,63.913204 248.149170,63.264763 248.617111,62.616325 
	C248.617111,62.616325 248.650925,62.907410 248.937653,62.774143 
	C249.418961,62.343006 249.613541,62.045135 249.808105,61.747265 
	C249.808105,61.747265 249.935501,61.880348 250.117615,61.810921 
	C250.525803,61.482555 250.751907,61.223621 250.978012,60.964691 
	C250.978012,60.964691 250.997955,61.001560 251.354431,60.992443 
	C252.750732,60.165535 253.790558,59.347744 254.830383,58.529945 
M348.118378,84.129868 
	C355.089478,83.478569 362.178467,83.398376 368.993591,81.991447 
	C374.244873,80.907364 376.804688,75.839699 376.381531,70.454185 
	C375.932281,64.737320 371.799713,60.632412 365.026306,59.930866 
	C359.279999,59.335693 353.471405,59.341702 346.856598,59.404995 
	C346.610626,67.104935 346.342316,74.804390 346.173889,82.506020 
	C346.163757,82.970329 346.949371,83.452034 348.118378,84.129868 
M470.887085,60.540165 
	C466.950836,72.130486 463.014587,83.720810 459.000702,95.539719 
	C467.927551,95.539719 476.166992,95.539719 484.923584,95.539719 
	C480.830750,83.512886 476.886292,71.884850 472.857758,60.286003 
	C472.750458,59.977112 471.730621,59.985176 470.887085,60.540165 
M695.000000,137.383545 
	C695.000000,104.670319 695.000000,71.957092 695.000000,39.243866 
	C694.780457,39.245712 694.560852,39.247559 694.341309,39.249405 
	C694.341309,74.411293 694.341309,109.573181 694.341309,144.735062 
	C694.560852,144.735764 694.780457,144.736450 695.000000,144.737152 
	C695.000000,142.603241 695.000000,140.469330 695.000000,137.383545 
M554.500000,35.023506 
	C547.436035,35.023506 540.372131,35.023506 533.308167,35.023506 
	C533.316467,35.254787 533.324768,35.486073 533.333069,35.717354 
	C553.512451,35.717354 573.691772,35.717354 593.871094,35.717354 
	C593.871643,35.486088 593.872192,35.254826 593.872742,35.023560 
	C581.081848,35.023560 568.290894,35.023560 554.500000,35.023506 
z"/>
<path fill="#2576BB" opacity="1.000000" stroke="none" 
	d="
M75.740570,34.581665 
	C80.037811,34.425991 84.334717,34.148048 88.632362,34.135956 
	C106.599091,34.085400 124.566040,34.114647 142.810440,34.114647 
	C149.985092,59.990376 157.083832,85.592247 164.182556,111.194122 
	C164.392715,111.206451 164.602875,111.218781 164.813034,111.231110 
	C164.936020,110.094864 165.059006,108.958611 165.489059,107.755753 
	C165.960587,109.431709 166.125076,111.174271 166.289551,112.916832 
	C166.526855,112.902748 166.764160,112.888664 167.001465,112.874580 
	C167.001465,111.628357 167.001450,110.382133 167.001450,109.135910 
	C167.001419,86.316788 167.020828,63.497627 166.975815,40.678593 
	C166.970428,37.944004 166.977020,35.851082 170.784012,35.933296 
	C180.273682,36.138237 189.771576,36.071484 199.264297,35.957596 
	C202.066559,35.923969 203.046127,36.919853 203.065170,39.726074 
	C203.090591,43.473408 203.588638,47.217533 203.883713,50.963032 
	C202.133850,53.342506 200.335312,55.687901 198.641602,58.106697 
	C180.137314,84.532898 189.505188,124.326782 218.148773,141.014084 
	C219.298279,141.683777 220.474075,142.308334 221.904755,143.493073 
	C221.449249,145.016525 220.726593,146.000824 220.003922,146.985123 
	C202.976089,147.049149 185.948273,147.113190 168.276123,146.834900 
	C166.754868,146.658203 165.877914,146.823807 165.000977,146.989410 
	C156.644913,147.053238 148.288834,147.117081 139.397385,146.933395 
	C138.583267,146.738388 138.304520,146.790894 138.025787,146.843414 
	C136.022995,140.587265 133.852509,134.379028 132.049286,128.065872 
	C126.934181,110.157494 121.976921,92.204063 116.932320,74.275452 
	C116.466743,72.620789 115.821625,71.016640 114.117821,69.635818 
	C114.117821,94.783440 114.117821,119.931068 113.611267,145.539215 
	C111.071007,146.327835 109.037308,146.655960 107.003609,146.984070 
	C97.310730,147.049576 87.617851,147.115067 77.464432,146.622345 
	C77.002930,110.942650 77.022980,75.821136 76.947144,40.699829 
	C76.942741,38.659584 76.160713,36.621014 75.740570,34.581665 
M83.804710,35.024120 
	C82.228226,35.024120 80.651741,35.024120 79.075256,35.024120 
	C79.078026,35.257935 79.080795,35.491749 79.083557,35.725563 
	C99.685654,35.725563 120.287750,35.725563 140.889847,35.725563 
	C140.890579,35.491779 140.891327,35.257992 140.892075,35.024208 
	C122.171089,35.024208 103.450104,35.024208 83.804710,35.024120 
z"/>
<path fill="#2677BB" opacity="1.000000" stroke="none" 
	d="
M55.997593,147.013580 
	C42.306240,147.068588 28.614887,147.123581 14.464070,146.620422 
	C14.003751,111.110329 14.070457,76.158104 13.913051,41.206898 
	C13.894236,37.029202 15.112455,35.799622 19.249554,35.909184 
	C29.561474,36.182281 39.891811,36.210892 50.201679,35.901646 
	C54.694237,35.766891 56.134735,36.939404 56.107338,41.659077 
	C55.903469,76.776276 55.997223,111.895195 55.997593,147.013580 
z"/>
<path fill="#2F7BBC" opacity="1.000000" stroke="none" 
	d="
M744.917175,126.677063 
	C741.458923,126.676422 738.475586,126.676422 735.492310,126.676422 
	C735.418884,126.995316 735.345520,127.314209 735.272095,127.633110 
	C739.853394,129.026230 744.470825,130.315475 748.990967,131.884796 
	C750.135254,132.282104 750.969543,133.572495 751.946289,134.452484 
	C750.916687,135.482773 750.063293,137.024902 748.825745,137.450867 
	C744.495483,138.941330 740.032715,140.046661 735.717285,142.183502 
	C740.876160,142.183502 746.035034,142.183502 751.604370,142.183502 
	C751.717590,144.002319 751.801636,145.352890 751.903259,146.985535 
	C743.441650,146.985535 735.372253,146.985535 727.338745,146.985535 
	C726.031067,139.068192 726.031067,139.068192 740.777954,134.182007 
	C737.939270,133.231430 736.068848,132.534348 734.157532,131.977417 
	C726.358337,129.704803 726.353760,129.720596 727.052063,121.268539 
	C735.087891,121.268539 743.162170,121.268539 751.668884,121.268539 
	C751.776855,122.821976 751.885437,124.385056 752.044800,126.677704 
	C749.582458,126.677704 747.487305,126.677704 744.917175,126.677063 
z"/>
<path fill="#2D79BA" opacity="1.000000" stroke="none" 
	d="
M745.176392,71.111641 
	C747.587952,71.113197 749.544250,71.113197 751.713135,71.113197 
	C751.713135,73.205322 751.713135,74.783760 751.713135,76.643646 
	C743.494812,76.643646 735.444763,76.643646 726.979614,76.643646 
	C726.979614,72.227867 726.624207,67.937019 727.068481,63.730652 
	C727.638916,58.330715 733.818848,55.012836 737.701111,58.482624 
	C741.432861,61.817940 744.133179,60.138439 747.398804,58.962723 
	C748.762634,58.471710 750.100891,57.909901 751.469543,57.372894 
	C752.922241,61.754097 751.804871,64.357254 747.307800,65.171844 
	C746.027954,65.403679 744.693054,65.911926 743.646851,66.661217 
	C742.874207,67.214600 741.908325,68.615036 742.140015,69.190338 
	C742.481934,70.039085 743.811829,70.489838 745.176392,71.111641 
M731.496887,65.413788 
	C731.399780,67.151794 731.302673,68.889809 731.191162,70.885544 
	C733.541931,70.885544 735.409912,70.885544 738.378601,70.885544 
	C737.538208,68.185287 737.071899,65.901222 736.008545,63.941025 
	C735.798584,63.554035 733.289978,64.414001 731.496887,65.413788 
z"/>
<path fill="#2D79BA" opacity="1.000000" stroke="none" 
	d="
M730.796143,34.632408 
	C735.637146,33.989632 740.249817,32.798752 744.658386,33.323296 
	C749.323975,33.878414 752.172241,37.463451 752.290833,42.467808 
	C752.408508,47.433628 749.946411,50.894405 745.173584,52.026379 
	C742.011414,52.776363 738.556946,53.061390 735.347656,52.653942 
	C731.174133,52.124092 727.914856,49.728878 726.723511,45.353924 
	C725.541260,41.012398 726.833862,37.489605 730.796143,34.632408 
M744.561401,46.331284 
	C745.451599,44.933296 747.227661,43.360565 746.995605,42.183979 
	C746.737000,40.872776 744.778503,39.226429 743.334839,38.963982 
	C740.625671,38.471451 737.675110,38.490330 734.983093,39.053104 
	C733.572021,39.348083 731.371948,41.426262 731.524292,42.380577 
	C731.772644,43.936928 733.453613,46.124218 734.890747,46.448837 
	C737.713745,47.086456 740.784485,46.626892 744.561401,46.331284 
z"/>
<path fill="#2F79B9" opacity="1.000000" stroke="none" 
	d="
M727.976379,97.836250 
	C724.430969,89.195244 726.775208,84.492897 735.824158,82.239006 
	C736.108887,83.993340 736.387268,85.708694 736.699524,87.632828 
	C735.547913,88.084221 734.458679,88.223854 733.808411,88.832489 
	C732.801025,89.775291 731.297058,91.164131 731.450745,92.134659 
	C731.664124,93.482315 733.072388,95.487236 734.223450,95.678375 
	C737.443970,96.213142 740.834229,96.268105 744.074097,95.856209 
	C745.250610,95.706642 746.739319,93.834236 747.064758,92.499100 
	C747.321594,91.445351 746.058350,89.987022 745.392273,88.750343 
	C744.401978,86.911530 743.342957,85.109756 742.853271,82.943588 
	C748.132324,82.942215 751.063660,85.323883 752.051575,89.897926 
	C753.118835,94.839119 751.217896,98.915054 746.908752,101.214233 
	C740.773438,104.487747 733.408997,103.287727 727.976379,97.836250 
z"/>
<path fill="#156BB6" opacity="1.000000" stroke="none" 
	d="
M56.439342,146.895569 
	C55.997223,111.895195 55.903469,76.776276 56.107338,41.659077 
	C56.134735,36.939404 54.694237,35.766891 50.201679,35.901646 
	C39.891811,36.210892 29.561474,36.182281 19.249554,35.909184 
	C15.112455,35.799622 13.894236,37.029202 13.913051,41.206898 
	C14.070457,76.158104 14.003751,111.110329 14.002597,146.530853 
	C13.826082,147.035004 13.651579,147.070526 13.250473,146.514008 
	C13.024713,110.698059 13.090908,75.473862 12.938643,40.250599 
	C12.920830,36.130295 14.035601,34.854195 18.214830,34.933094 
	C31.169554,35.177654 44.132248,35.000042 57.091850,34.986282 
	C57.249680,43.797295 57.538784,52.608273 57.540863,61.419323 
	C57.547241,88.407425 57.451088,115.395569 57.361496,142.383591 
	C57.356636,143.848770 57.048214,145.312927 56.439342,146.895569 
z"/>
<path fill="#1A6DB4" opacity="1.000000" stroke="none" 
	d="
M75.726715,34.627357 
	C76.160713,36.621014 76.942741,38.659584 76.947144,40.699829 
	C77.022980,75.821136 77.002930,110.942650 77.003052,146.532883 
	C76.826088,147.035645 76.649971,147.069656 76.171097,146.585785 
	C75.783783,145.819260 75.699203,145.570633 75.614624,145.321991 
	C75.470253,142.681152 75.200066,140.040283 75.200607,137.399475 
	C75.207413,104.075523 75.253265,70.751579 75.555099,36.575325 
	C75.792877,35.403862 75.764694,35.084709 75.736511,34.765560 
	C75.736511,34.765560 75.712868,34.673046 75.726715,34.627357 
z"/>
<path fill="#156BB6" opacity="1.000000" stroke="none" 
	d="
M204.021088,50.516273 
	C203.588638,47.217533 203.090591,43.473408 203.065170,39.726074 
	C203.046127,36.919853 202.066559,35.923969 199.264297,35.957596 
	C189.771576,36.071484 180.273682,36.138237 170.784012,35.933296 
	C166.977020,35.851082 166.970428,37.944004 166.975815,40.678593 
	C167.020828,63.497627 167.001419,86.316788 167.001450,109.135910 
	C167.001450,110.382133 167.001465,111.628357 167.001465,112.874580 
	C166.764160,112.888664 166.526855,112.902748 166.289551,112.916832 
	C166.125076,111.174271 165.960587,109.431709 165.586899,107.390533 
	C165.324295,106.298157 165.270905,105.504402 165.488434,104.088684 
	C165.635437,102.336426 165.511536,101.206146 165.387650,100.075859 
	C165.331482,80.002235 165.275330,59.928612 165.499237,39.114693 
	C165.758255,37.706841 165.737244,37.039280 165.716217,36.371723 
	C165.572159,36.080257 165.428085,35.788792 165.895767,35.268394 
	C178.979599,35.028088 191.451675,35.016720 203.923737,35.005352 
	C204.001984,40.026737 204.080215,45.048122 204.021088,50.516273 
z"/>
<path fill="#357CB8" opacity="1.000000" stroke="none" 
	d="
M774.932861,5.763928 
	C782.320557,9.432443 784.912354,15.050147 782.331848,21.163916 
	C779.969177,26.761843 773.424561,29.712425 767.430725,27.881987 
	C761.404968,26.041801 757.803833,19.876221 759.246216,13.869135 
	C760.727783,7.698914 766.934387,4.353039 774.932861,5.763928 
M765.637268,24.210897 
	C769.115356,26.596252 772.605286,26.930052 776.774719,23.970861 
	C780.847778,19.577066 781.272888,14.072019 777.831238,10.287208 
	C774.532043,6.659004 769.481323,6.556271 764.445740,10.383347 
	C760.808899,16.118376 760.946960,18.681305 765.637268,24.210897 
z"/>
<path fill="#347FBD" opacity="1.000000" stroke="none" 
	d="
M385.845093,34.714500 
	C383.450806,35.260162 380.672699,35.926113 377.892487,35.935104 
	C352.772034,36.016384 327.651154,35.998413 302.530518,35.951897 
	C300.574585,35.948277 298.619476,35.508724 296.268311,35.105091 
	C296.752838,34.650417 297.632874,34.111324 298.513184,34.110886 
	C326.338684,34.097061 354.164215,34.131229 381.989716,34.181343 
	C383.146790,34.183426 384.303467,34.408772 385.845093,34.714500 
z"/>
<path fill="#2677BB" opacity="1.000000" stroke="none" 
	d="
M56.846893,34.628502 
	C44.132248,35.000042 31.169554,35.177654 18.214830,34.933094 
	C14.035601,34.854195 12.920830,36.130295 12.938643,40.250599 
	C13.090908,75.473862 13.024713,110.698059 13.019779,146.379349 
	C12.717060,145.815994 12.158634,144.795609 12.157386,143.774521 
	C12.113829,108.129181 12.121775,72.483788 12.131675,36.838402 
	C12.131856,36.185833 12.243967,35.533298 12.359836,34.270725 
	C27.128218,34.270725 41.865074,34.270725 56.846893,34.628502 
z"/>
<path fill="#347FBD" opacity="1.000000" stroke="none" 
	d="
M503.806641,34.473289 
	C501.436462,35.166176 498.756409,35.918186 496.074768,35.923889 
	C478.223206,35.961853 460.371307,35.840256 442.032471,35.595367 
	C442.643738,34.971466 443.741150,34.134033 444.840363,34.131683 
	C464.392090,34.089851 483.944092,34.149441 503.806641,34.473289 
z"/>
<path fill="#3E82BB" opacity="1.000000" stroke="none" 
	d="
M297.290771,41.353264 
	C298.418854,43.745934 299.965302,46.462051 300.425751,49.351242 
	C300.581879,50.330795 298.157867,52.450432 296.624786,52.805626 
	C294.097839,53.391102 291.313477,53.191845 288.677917,52.925087 
	C278.198944,51.864452 268.361023,54.793732 258.245392,57.289787 
	C267.244202,52.336124 277.250885,51.466606 287.366272,51.207447 
	C291.139954,51.110767 294.918182,51.191807 299.695740,51.191807 
	C298.854156,47.894863 298.069183,44.819653 297.290771,41.353264 
z"/>
<path fill="#1A6DB4" opacity="1.000000" stroke="none" 
	d="
M568.263672,147.056030 
	C567.997375,119.720810 567.980957,92.434349 568.034180,65.148026 
	C568.037903,63.231140 568.556641,61.315262 569.254150,59.228378 
	C569.638367,59.403130 569.604370,59.748413 569.313904,60.762051 
	C569.035522,89.893547 569.013672,118.356697 568.991760,146.819839 
	C568.838013,146.914841 568.684204,147.009842 568.263672,147.056030 
z"/>
<path fill="#2476BB" opacity="1.000000" stroke="none" 
	d="
M569.336426,146.594833 
	C569.013672,118.356697 569.035522,89.893547 569.101135,60.917976 
	C569.372742,61.173164 569.800171,61.940887 569.799744,62.708382 
	C569.784912,90.595535 569.730286,118.482681 569.336426,146.594833 
z"/>
<path fill="#3E82BB" opacity="1.000000" stroke="none" 
	d="
M749.064819,108.499542 
	C754.067810,107.775734 751.115906,111.539139 752.374084,113.768753 
	C743.650818,113.768753 735.527893,113.768753 727.678833,113.382385 
	C735.287109,112.996017 742.621643,112.996017 749.956177,112.996017 
	C747.517151,111.975983 745.078796,112.075966 742.651306,111.955391 
	C737.424744,111.695786 732.203857,111.322723 726.980652,110.996086 
	C726.924500,110.831955 726.868347,110.667816 727.356995,110.268585 
	C734.800293,110.033707 741.698914,110.044350 748.596680,109.970032 
	C748.757996,109.968300 748.908997,109.011093 749.064819,108.499542 
z"/>
<path fill="#1371BE" opacity="1.000000" stroke="none" 
	d="
M696.211304,35.741051 
	C675.510620,35.998676 654.880981,35.998676 634.251404,35.998676 
	C634.249695,35.671658 634.247986,35.344635 634.246216,35.017616 
	C654.528442,35.017616 674.810608,35.017616 695.564209,35.013428 
	C696.117920,35.167305 696.200195,35.325363 696.211304,35.741051 
z"/>
<path fill="#156BB6" opacity="1.000000" stroke="none" 
	d="
M748.597473,108.420906 
	C748.908997,109.011093 748.757996,109.968300 748.596680,109.970032 
	C741.698914,110.044350 734.800293,110.033707 727.430420,110.018944 
	C728.240662,109.439758 729.509216,108.425591 730.806152,108.387871 
	C736.576355,108.220032 742.354736,108.331665 748.597473,108.420906 
z"/>
<path fill="#2576BB" opacity="1.000000" stroke="none" 
	d="
M203.711121,34.638653 
	C191.451675,35.016720 178.979599,35.028088 165.999557,35.032860 
	C166.129257,34.720985 166.766953,34.149788 167.404602,34.149807 
	C179.435898,34.150177 191.467178,34.218113 203.711121,34.638653 
z"/>
<path fill="#1E6EB2" opacity="1.000000" stroke="none" 
	d="
M346.426971,146.875061 
	C345.995361,136.243576 345.963501,125.481140 346.030548,114.719315 
	C346.041504,112.961075 346.488892,111.205566 347.131104,109.257721 
	C347.447998,119.829399 347.386108,130.592316 347.271210,141.354691 
	C347.252045,143.152481 347.002655,144.947830 346.426971,146.875061 
z"/>
<path fill="#1E6EB2" opacity="1.000000" stroke="none" 
	d="
M297.512207,141.501831 
	C297.579926,143.048508 297.257233,144.675156 296.967010,146.648026 
	C291.759613,146.994232 286.519745,146.994232 281.279907,146.994232 
	C281.227936,146.788101 281.175964,146.581985 281.123993,146.375854 
	C283.685181,145.747772 286.246338,145.119690 289.455933,144.959351 
	C291.546814,145.554657 292.989258,145.682220 294.431732,145.809769 
	C294.428467,145.407410 294.425232,145.005066 294.421997,144.602707 
	C292.771301,144.732239 291.120605,144.861771 289.469910,144.991302 
	C292.020538,143.854813 294.571198,142.718307 297.512207,141.501831 
z"/>
<path fill="#357CB8" opacity="1.000000" stroke="none" 
	d="
M238.938110,78.969460 
	C239.249771,85.428505 239.561417,91.887550 239.763275,98.783844 
	C236.729843,92.955482 236.558075,86.403503 238.051819,79.355385 
	C238.479294,78.988083 238.938110,78.969460 238.938110,78.969460 
z"/>
<path fill="#156BB6" opacity="1.000000" stroke="none" 
	d="
M726.916626,111.328339 
	C732.203857,111.322723 737.424744,111.695786 742.651306,111.955391 
	C745.078796,112.075966 747.517151,111.975983 749.956177,112.996017 
	C742.621643,112.996017 735.287109,112.996017 727.485168,112.994637 
	C726.962769,112.549034 726.907715,112.104813 726.916626,111.328339 
z"/>
<path fill="#1E6EB2" opacity="1.000000" stroke="none" 
	d="
M220.448456,147.067627 
	C220.726593,146.000824 221.449249,145.016525 222.136810,143.712753 
	C224.681992,144.393784 227.262238,145.394272 229.842499,146.394775 
	C229.835373,146.646561 229.828232,146.898361 229.821106,147.150146 
	C226.845078,147.150146 223.869034,147.150146 220.448456,147.067627 
z"/>
<path fill="#357CB8" opacity="1.000000" stroke="none" 
	d="
M253.093384,116.402390 
	C256.069305,116.875610 259.277466,117.628670 262.734772,118.635834 
	C259.764496,118.154037 256.545074,117.418137 253.093384,116.402390 
z"/>
<path fill="#3E82BB" opacity="1.000000" stroke="none" 
	d="
M239.105530,78.627991 
	C238.938110,78.969460 238.479294,78.988083 238.249893,78.997597 
	C238.428909,77.424751 238.837326,75.842384 239.509308,74.030647 
	C239.606216,75.296356 239.439575,76.791435 239.105530,78.627991 
z"/>
<path fill="#357CB8" opacity="1.000000" stroke="none" 
	d="
M244.055939,108.316330 
	C245.000870,109.048637 246.012451,110.091995 247.048370,111.487793 
	C246.089310,110.769279 245.105942,109.698326 244.055939,108.316330 
z"/>
<path fill="#1A6DB4" opacity="1.000000" stroke="none" 
	d="
M107.423294,147.065857 
	C109.037308,146.655960 111.071007,146.327835 113.517593,145.999878 
	C111.901306,146.382568 109.872147,146.765106 107.423294,147.065857 
z"/>
<path fill="#357CB8" opacity="1.000000" stroke="none" 
	d="
M239.587296,99.633606 
	C240.340332,100.681610 241.116333,102.074776 241.811554,103.847183 
	C241.023941,102.810547 240.317093,101.394661 239.587296,99.633606 
z"/>
<path fill="#3E82BB" opacity="1.000000" stroke="none" 
	d="
M254.506485,58.624390 
	C253.790558,59.347744 252.750732,60.165535 251.339325,60.977268 
	C252.039352,60.220417 253.110962,59.469624 254.506485,58.624390 
z"/>
<path fill="#1E6EB2" opacity="1.000000" stroke="none" 
	d="
M441.395935,147.070496 
	C442.172577,146.787033 443.343506,146.586761 444.738037,146.624954 
	C443.904510,146.960175 442.847412,147.056931 441.395935,147.070496 
z"/>
<path fill="#2576BB" opacity="1.000000" stroke="none" 
	d="
M165.286438,100.452774 
	C165.511536,101.206146 165.635437,102.336426 165.567001,103.696899 
	C165.311539,102.894615 165.248383,101.862160 165.286438,100.452774 
z"/>
<path fill="#1E6EB2" opacity="1.000000" stroke="none" 
	d="
M165.371323,147.071289 
	C165.877914,146.823807 166.754868,146.658203 167.815262,146.741089 
	C167.246368,147.044128 166.494019,147.098663 165.371323,147.071289 
z"/>
<path fill="#1E6EB2" opacity="1.000000" stroke="none" 
	d="
M628.371704,147.070892 
	C628.850159,146.783966 629.699768,146.579742 630.750732,146.594788 
	C630.215576,146.927216 629.479248,147.040405 628.371704,147.070892 
z"/>
<path fill="#3E82BB" opacity="1.000000" stroke="none" 
	d="
M248.353241,62.703587 
	C248.149170,63.264763 247.681213,63.913204 246.889526,64.453300 
	C247.073639,63.826916 247.581512,63.308884 248.353241,62.703587 
z"/>
<path fill="#357CB8" opacity="1.000000" stroke="none" 
	d="
M241.722061,104.485641 
	C242.078079,104.633865 242.479858,105.080330 242.846420,105.860260 
	C242.463409,105.723785 242.115631,105.253838 241.722061,104.485641 
z"/>
<path fill="#2576BB" opacity="1.000000" stroke="none" 
	d="
M165.498413,36.637348 
	C165.737244,37.039280 165.758255,37.706841 165.583633,38.648525 
	C165.352203,38.249428 165.316406,37.576199 165.498413,36.637348 
z"/>
<path fill="#3E82BB" opacity="1.000000" stroke="none" 
	d="
M245.136383,65.669571 
	C245.122543,66.008110 244.882904,66.469551 244.331421,66.969231 
	C244.316589,66.602470 244.613586,66.197464 245.136383,65.669571 
z"/>
<path fill="#357CB8" opacity="1.000000" stroke="none" 
	d="
M251.162933,115.244995 
	C251.556427,115.202370 252.115448,115.406319 252.801941,115.891556 
	C252.395752,115.945755 251.862106,115.718666 251.162933,115.244995 
z"/>
<path fill="#357CB8" opacity="1.000000" stroke="none" 
	d="
M247.277100,112.183365 
	C247.668518,112.192154 248.175903,112.456802 248.734619,113.017616 
	C248.321655,113.022255 247.857361,112.730736 247.277100,112.183365 
z"/>
<path fill="#3E82BB" opacity="1.000000" stroke="none" 
	d="
M243.750488,67.150269 
	C243.765091,67.562012 243.521698,68.103065 242.970367,68.701622 
	C242.939133,68.265953 243.215805,67.772774 243.750488,67.150269 
z"/>
<path fill="#3E82BB" opacity="1.000000" stroke="none" 
	d="
M241.628860,70.032623 
	C241.697861,70.453880 241.514877,71.038109 241.028564,71.732239 
	C240.942429,71.293297 241.159653,70.744446 241.628860,70.032623 
z"/>
<path fill="#3E82BB" opacity="1.000000" stroke="none" 
	d="
M240.519104,71.979584 
	C240.619629,72.403770 240.479050,73.007217 240.032867,73.732635 
	C239.910828,73.289345 240.094421,72.724091 240.519104,71.979584 
z"/>
<path fill="#357CB8" opacity="1.000000" stroke="none" 
	d="
M242.799637,106.418549 
	C243.153763,106.544609 243.552994,106.965363 243.972931,107.698853 
	C243.610687,107.578804 243.227707,107.146027 242.799637,106.418549 
z"/>
<path fill="#357CB8" opacity="1.000000" stroke="none" 
	d="
M248.822891,113.482086 
	C249.052399,113.384705 249.388763,113.548317 249.815887,113.989120 
	C249.581024,114.091904 249.255386,113.917488 248.822891,113.482086 
z"/>
<path fill="#3E82BB" opacity="1.000000" stroke="none" 
	d="
M242.477158,68.826355 
	C242.599335,69.041298 242.479935,69.373375 242.104584,69.811951 
	C241.977600,69.593460 242.106583,69.268478 242.477158,68.826355 
z"/>
<path fill="#3E82BB" opacity="1.000000" stroke="none" 
	d="
M246.158096,64.694290 
	C246.256699,64.922867 246.194778,65.226700 245.869629,65.437874 
	C245.665009,65.104538 245.795410,64.912651 246.158096,64.694290 
z"/>
<path fill="#3E82BB" opacity="1.000000" stroke="none" 
	d="
M249.555359,61.799084 
	C249.613541,62.045135 249.418961,62.343006 248.940918,62.627682 
	C248.872513,62.359959 249.087570,62.105431 249.555359,61.799084 
z"/>
<path fill="#3E82BB" opacity="1.000000" stroke="none" 
	d="
M250.719513,61.012569 
	C250.751907,61.223621 250.525803,61.482555 250.035339,61.769455 
	C250.000992,61.551762 250.231003,61.306107 250.719513,61.012569 
z"/>
<path fill="#2576BB" opacity="1.000000" stroke="none" 
	d="
M75.429146,145.524048 
	C75.699203,145.570633 75.783783,145.819260 75.935379,146.456055 
	C75.749489,146.471512 75.496582,146.098816 75.429146,145.524048 
z"/>
<path fill="#1E6EB2" opacity="1.000000" stroke="none" 
	d="
M138.252731,146.989990 
	C138.304520,146.790894 138.583267,146.738388 138.934814,146.853836 
	C138.831665,147.060028 138.655670,147.098282 138.252731,146.989990 
z"/>
<path fill="#347FBD" opacity="1.000000" stroke="none" 
	d="
M441.307007,35.879829 
	C441.466522,36.039101 441.453583,36.366951 441.226257,36.848328 
	C440.977325,36.674313 441.018219,36.356499 441.307007,35.879829 
z"/>
<path fill="#1E6EB2" opacity="1.000000" stroke="none" 
	d="
M377.531799,146.236511 
	C377.865509,146.057663 378.254639,146.258560 378.825073,146.733505 
	C378.533356,146.877121 378.060272,146.746689 377.531799,146.236511 
z"/>
<path fill="#347FBD" opacity="1.000000" stroke="none" 
	d="
M504.847534,35.736694 
	C504.531616,35.853474 504.315735,35.623901 504.179779,35.060188 
	C504.391083,35.039509 504.620392,35.260944 504.847534,35.736694 
z"/>
<path fill="#1E6EB2" opacity="1.000000" stroke="none" 
	d="
M593.753540,146.238068 
	C594.032410,146.103683 594.369324,146.303299 594.856506,146.757141 
	C594.608398,146.864929 594.210022,146.718491 593.753540,146.238068 
z"/>
<path fill="#2576BB" opacity="1.000000" stroke="none" 
	d="
M75.504082,34.942680 
	C75.764694,35.084709 75.792877,35.403862 75.756973,36.201370 
	C75.552475,36.159748 75.412064,35.639774 75.504082,34.942680 
z"/>
<path fill="#F6FAFC" opacity="1.000000" stroke="none" 
	d="
M347.690369,59.081696 
	C353.471405,59.341702 359.279999,59.335693 365.026306,59.930866 
	C371.799713,60.632412 375.932281,64.737320 376.381531,70.454185 
	C376.804688,75.839699 374.244873,80.907364 368.993591,81.991447 
	C362.178467,83.398376 355.089478,83.478569 347.693054,83.566193 
	C347.408630,75.028915 347.549500,67.055305 347.690369,59.081696 
z"/>
<path fill="#F8FAFC" opacity="1.000000" stroke="none" 
	d="
M471.011719,60.192802 
	C471.730621,59.985176 472.750458,59.977112 472.857758,60.286003 
	C476.886292,71.884850 480.830750,83.512886 484.923584,95.539719 
	C476.166992,95.539719 467.927551,95.539719 459.000702,95.539719 
	C463.014587,83.720810 466.950836,72.130486 471.011719,60.192802 
z"/>
<path fill="#1D77C6" opacity="1.000000" stroke="none" 
	d="
M695.000000,137.859482 
	C695.000000,140.469330 695.000000,142.603241 695.000000,144.737152 
	C694.780457,144.736450 694.560852,144.735764 694.341309,144.735062 
	C694.341309,109.573181 694.341309,74.411293 694.341309,39.249405 
	C694.560852,39.247559 694.780457,39.245712 695.000000,39.243866 
	C695.000000,71.957092 695.000000,104.670319 695.000000,137.859482 
z"/>
<path fill="#1371BE" opacity="1.000000" stroke="none" 
	d="
M555.000000,35.023533 
	C568.290894,35.023560 581.081848,35.023560 593.872742,35.023560 
	C593.872192,35.254826 593.871643,35.486088 593.871094,35.717354 
	C573.691772,35.717354 553.512451,35.717354 533.333069,35.717354 
	C533.324768,35.486073 533.316467,35.254787 533.308167,35.023506 
	C540.372131,35.023506 547.436035,35.023506 555.000000,35.023533 
z"/>
<path fill="#1A6DB4" opacity="1.000000" stroke="none" 
	d="
M347.273499,59.243347 
	C347.549500,67.055305 347.408630,75.028915 347.316223,83.464081 
	C346.949371,83.452034 346.163757,82.970329 346.173889,82.506020 
	C346.342316,74.804390 346.610626,67.104935 347.273499,59.243347 
z"/>
<path fill="#1371BE" opacity="1.000000" stroke="none" 
	d="
M84.266922,35.024162 
	C103.450104,35.024208 122.171089,35.024208 140.892075,35.024208 
	C140.891327,35.257992 140.890579,35.491779 140.889847,35.725563 
	C120.287750,35.725563 99.685654,35.725563 79.083557,35.725563 
	C79.080795,35.491749 79.078026,35.257935 79.075256,35.024120 
	C80.651741,35.024120 82.228226,35.024120 84.266922,35.024162 
z"/>
<path fill="#E8F1F7" opacity="1.000000" stroke="none" 
	d="
M731.669189,65.056351 
	C733.289978,64.414001 735.798584,63.554035 736.008545,63.941025 
	C737.071899,65.901222 737.538208,68.185287 738.378601,70.885544 
	C735.409912,70.885544 733.541931,70.885544 731.191162,70.885544 
	C731.302673,68.889809 731.399780,67.151794 731.669189,65.056351 
z"/>
<path fill="#F6FAFC" opacity="1.000000" stroke="none" 
	d="
M744.157104,46.476292 
	C740.784485,46.626892 737.713745,47.086456 734.890747,46.448837 
	C733.453613,46.124218 731.772644,43.936928 731.524292,42.380577 
	C731.371948,41.426262 733.572021,39.348083 734.983093,39.053104 
	C737.675110,38.490330 740.625671,38.471451 743.334839,38.963982 
	C744.778503,39.226429 746.737000,40.872776 746.995605,42.183979 
	C747.227661,43.360565 745.451599,44.933296 744.157104,46.476292 
z"/>
<path fill="#E8F1F7" opacity="1.000000" stroke="none" 
	d="
M765.084351,10.027911 
	C769.481323,6.556271 774.532043,6.659004 777.831238,10.287208 
	C781.272888,14.072019 780.847778,19.577066 776.403442,23.870449 
	C776.037048,23.601437 776.041931,23.432837 776.075317,22.880779 
	C775.308350,21.085939 774.513000,19.674557 774.327148,19.344828 
	C775.209656,16.429775 776.802124,13.836204 776.107178,12.842645 
	C775.052979,11.335583 772.465698,10.749246 770.419556,10.144928 
	C769.209656,9.787570 767.787598,10.148550 766.116760,10.147224 
	C765.543152,10.081264 765.313782,10.054587 765.084351,10.027911 
z"/>
<path fill="#F6FAFC" opacity="1.000000" stroke="none" 
	d="
M776.046875,23.264240 
	C776.041931,23.432837 776.037048,23.601437 776.072388,24.020798 
	C772.605286,26.930052 769.115356,26.596252 765.678894,23.723614 
	C765.889038,23.085629 766.057495,22.934929 766.610596,22.913960 
	C768.000977,21.466204 769.006653,19.888716 769.979187,18.363253 
	C771.846497,19.871513 773.946655,21.567881 776.046875,23.264240 
z"/>
<path fill="#F6FAFC" opacity="1.000000" stroke="none" 
	d="
M764.765015,10.205629 
	C765.313782,10.054587 765.543152,10.081264 766.043274,10.588739 
	C766.284668,14.974436 766.255310,18.879333 766.225952,22.784229 
	C766.057495,22.934929 765.889038,23.085629 765.439880,23.430820 
	C760.946960,18.681305 760.808899,16.118376 764.765015,10.205629 
z"/>
<path fill="#2476BB" opacity="1.000000" stroke="none" 
	d="
M289.488953,145.023468 
	C291.120605,144.861771 292.771301,144.732239 294.421997,144.602707 
	C294.425232,145.005066 294.428467,145.407410 294.431732,145.809769 
	C292.989258,145.682220 291.546814,145.554657 289.777649,145.212616 
	C289.450958,144.998108 289.508026,145.055634 289.488953,145.023468 
z"/>
<path fill="#3E82BB" opacity="1.000000" stroke="none" 
	d="
M766.610596,22.913960 
	C766.255310,18.879333 766.284668,14.974436 766.387451,10.628023 
	C767.787598,10.148550 769.209656,9.787570 770.419556,10.144928 
	C772.465698,10.749246 775.052979,11.335583 776.107178,12.842645 
	C776.802124,13.836204 775.209656,16.429775 774.327148,19.344828 
	C774.513000,19.674557 775.308350,21.085939 776.075317,22.880787 
	C773.946655,21.567881 771.846497,19.871513 769.979187,18.363253 
	C769.006653,19.888716 768.000977,21.466204 766.610596,22.913960 
z"/>
</svg>