<?xml version="1.0" encoding="utf-8"?>
<!-- Generator: Adobe Illustrator 16.0.0, SVG Export Plug-In . SVG Version: 6.00 Build 0)  -->
<!DOCTYPE svg PUBLIC "-//W3C//DTD SVG 1.1//EN" "http://www.w3.org/Graphics/SVG/1.1/DTD/svg11.dtd">
<svg version="1.1" id="Layer_1" xmlns="http://www.w3.org/2000/svg" xmlns:xlink="http://www.w3.org/1999/xlink" x="0px" y="0px"
	 width="664px" height="143px" viewBox="0 0 664 143" enable-background="new 0 0 664 143" xml:space="preserve">
<g>
	<path fill="#2073B1" d="M366.617,27.752v71.348h45.149v10.683h-57.559V27.752H366.617z"/>
	<path fill="#2073B1" d="M642.372,32.235c5.746,4.25,8.96,10.799,9.766,19.762H639.73c-1.146-5.286-3.219-9.196-6.433-11.492
		c-3.216-2.412-7.813-3.562-14.018-3.562c-5.398,0-9.538,0.804-12.407,2.415c-3.562,1.835-5.286,4.826-5.286,8.96
		c0,3.678,1.953,6.548,6.089,8.733c1.837,1.031,6.549,2.756,14.246,5.052c11.028,3.445,18.266,6.09,21.484,8.045
		c7.007,4.247,10.57,10.107,10.57,17.689c0,7.354-2.873,13.098-8.617,17.35c-5.743,4.135-13.788,6.2-24.126,6.2
		c-9.993,0-17.808-2.065-23.437-5.97c-6.78-4.826-10.454-12.411-11.145-22.749h12.405c0.919,6.434,3.216,11.145,6.896,13.901
		c3.331,2.529,8.389,3.792,15.28,3.792c6.204,0,11.145-1.149,14.819-3.218c3.678-2.067,5.515-4.942,5.515-8.613
		c0-4.6-2.64-8.163-7.812-10.804c-1.835-0.921-7.238-2.756-16.314-5.514c-10.112-3.217-16.314-5.399-18.842-6.778
		c-6.318-3.792-9.422-9.307-9.422-16.427c0-7.241,2.987-12.871,9.078-17.008c5.744-3.906,12.984-5.858,21.713-5.858
		C629.503,26.145,636.972,28.098,642.372,32.235z"/>
	<path fill="#17ADBC" d="M343.817,27.752v10.684h-27.342v71.347h-12.407V38.436h-27.457V27.752H343.817z"/>
	<path fill="#17ADBC" d="M82.071,73.479c-2.758-3.33-6.894-5.514-12.292-6.549c4.131-1.493,7.235-3.792,9.534-6.778
		c2.294-3.216,3.447-7.125,3.447-11.718c0-6.321-2.183-11.261-6.551-14.938c-4.593-3.903-10.797-5.744-18.84-5.744H19.914v10.731
		H32.44v-0.391h21.829c5.513,0,9.649,0.919,12.176,2.872c2.53,1.836,3.791,4.825,3.791,8.962c0,4.366-1.261,7.582-3.791,9.65
		c-2.527,1.951-6.663,2.988-12.407,2.988h-14.8v0.001H19.914v47.217h37.455c8.731,0,15.511-1.608,20.338-4.826
		c5.627-3.903,8.498-9.879,8.498-18.151C86.205,81.29,84.826,76.808,82.071,73.479z M68.052,96.916
		c-2.985,1.605-7.121,2.527-12.408,2.527H32.44V72.79h23.55c5.977,0,10.456,1.033,13.329,3.216
		c2.873,2.184,4.365,5.743,4.365,10.569C73.683,91.286,71.729,94.731,68.052,96.916z"/>
	<path fill="#2073B1" d="M572.128,73.479c-2.759-3.33-6.893-5.514-12.293-6.549c4.134-1.493,7.237-3.792,9.534-6.778
		c2.299-3.216,3.449-7.125,3.449-11.718c0-6.321-2.183-11.261-6.551-14.938c-4.594-3.903-10.797-5.744-18.842-5.744h-37.453v10.731
		h12.526v-0.391h21.827c5.515,0,9.65,0.919,12.176,2.872c2.532,1.836,3.791,4.825,3.791,8.962c0,4.366-1.259,7.582-3.791,9.65
		c-2.525,1.951-6.661,2.988-12.405,2.988h-14.8v0.001h-19.324v47.217h37.453c8.733,0,15.511-1.608,20.337-4.826
		c5.63-3.903,8.501-9.879,8.501-18.151C576.264,81.29,574.884,76.808,572.128,73.479z M558.11,96.916
		c-2.985,1.605-7.123,2.527-12.411,2.527h-23.2V72.79h23.55c5.977,0,10.453,1.033,13.326,3.216
		c2.873,2.184,4.362,5.743,4.362,10.569C563.737,91.286,561.788,94.731,558.11,96.916z"/>
	<g>
		<polygon fill="#2073B1" points="467.992,27.752 455.546,27.752 486.144,109.783 499.582,109.783 		"/>
		<polygon fill="#2073B1" points="456.938,67.173 451.075,67.173 451.079,67.167 438.565,67.167 422.157,109.777 435.482,109.777 
			447.172,77.835 461.146,77.835 		"/>
	</g>
	<g>
		<g>
			<g>
				<path fill="#2073B1" d="M111.485,50.474c1.113,0.773,1.822,1.912,2.119,3.042c0.313,1.151,0.339,2.365-0.239,3.375
					c-0.46,1.071-1.381,1.817-2.516,2.268c-1.073,0.465-2.403,0.612-3.698,0.21c-1.293-0.4-2.295-1.315-2.828-2.568
					c-0.478-1.222-0.423-2.763,0.219-4.207c0.76-1.384,1.894-2.401,3.181-2.76C109.035,49.48,110.372,49.702,111.485,50.474z"/>
			</g>
			<g>
				<path fill="#2073B1" d="M105.997,64.2c1.338,0.209,2.495,0.932,3.29,1.828c0.398,0.448,0.705,0.946,0.891,1.472
					c0.237,0.529,0.376,1.089,0.366,1.673c-0.071,1.17-0.456,2.242-1.293,3.138c-0.839,0.893-1.953,1.595-3.288,1.793
					c-1.344,0.198-2.67-0.189-3.615-1.098c-0.95-0.898-1.692-2.298-1.618-3.879c0.012-0.787,0.157-1.534,0.425-2.193
					c0.317-0.656,0.74-1.222,1.236-1.667C103.381,64.372,104.66,63.988,105.997,64.2z"/>
			</g>
			<g>
				<path fill="#2073B1" d="M107.051,78.948c1.316-0.393,2.574-0.209,3.71,0.242c1.167,0.445,1.958,1.259,2.501,2.29
					c0.538,1.031,0.48,2.256,0.201,3.374c-0.325,1.139-1.055,2.278-2.176,3.04c-1.12,0.76-2.448,0.961-3.744,0.582
					c-1.33-0.347-2.434-1.386-3.149-2.795c-0.721-1.407-0.635-2.999-0.18-4.201C104.687,80.259,105.772,79.329,107.051,78.948z"/>
			</g>
			<g>
				<path fill="#2073B1" d="M114.36,91.79c1.003-0.912,2.28-1.355,3.465-1.407c1.159-0.009,2.352,0.24,3.243,0.992
					c0.854,0.808,1.479,1.733,1.639,2.971c0.163,1.222,0.028,2.509-0.658,3.683c-0.68,1.166-1.825,1.976-3.122,2.138
					c-1.273,0.155-2.867-0.104-4.036-1.166c-1.212-1.012-1.945-2.339-1.972-3.711C112.854,93.946,113.359,92.702,114.36,91.79z"/>
			</g>
			<g>
				<path fill="#2073B1" d="M126.512,100.208c0.515-1.274,1.442-2.142,2.503-2.749c1.077-0.63,2.207-0.745,3.351-0.523
					c1.145,0.229,2.064,1.031,2.767,1.952c0.685,0.968,1.118,2.252,1.012,3.601c-0.106,1.352-0.781,2.513-1.884,3.283
					c-1.103,0.819-2.601,1.04-4.146,0.715c-1.546-0.314-2.74-1.376-3.398-2.479C126.061,102.871,126.009,101.444,126.512,100.208z"
					/>
			</g>
			<g>
				
					<ellipse transform="matrix(-0.6837 0.7297 -0.7297 -0.6837 335.9043 48.6063)" fill="#2073B1" cx="157.419" cy="97.095" rx="3.056" ry="3.016"/>
			</g>
			<g>
				
					<ellipse transform="matrix(-0.6838 0.7297 -0.7297 -0.6838 346.3886 30.7382)" fill="#2073B1" cx="166.534" cy="90.422" rx="3.055" ry="3.015"/>
			</g>
			<g>
				
					<ellipse transform="matrix(-0.6838 0.7297 -0.7297 -0.6838 353.2397 12.8508)" fill="#2073B1" cx="173.835" cy="82.969" rx="3.055" ry="3.015"/>
			</g>
			<g>
				
					<ellipse transform="matrix(-0.6839 0.7296 -0.7296 -0.6839 320.2722 64.8788)" fill="#2073B1" cx="146.08" cy="101.825" rx="3.485" ry="3.441"/>
			</g>
			<g>
				
					<ellipse transform="matrix(0.7321 0.6812 -0.6812 0.7321 82.6793 -102.3651)" fill="#2073B1" cx="171.473" cy="53.925" rx="7.834" ry="7.734"/>
			</g>
			<g>
				<path fill="#2073B1" d="M164.177,47.332c-2.211,2.478-6.2,2.334-8.286,0.663c-2.172-1.716-2.822-5.229-1.259-8.101
					c0.811-1.415,2.223-2.451,3.798-2.65c1.553-0.199,3.486,0.123,4.941,1.39C166.497,41.187,166.366,44.883,164.177,47.332z"/>
			</g>
			<g>
				<path fill="#2073B1" d="M151.954,38.611c-1.243,2.925-4.299,4.539-6.915,3.937c-1.353-0.288-2.458-1.197-3.296-2.292
					c-0.819-1.147-1.344-2.667-1.228-4.27c0.114-1.6,0.903-2.979,2.203-3.896c1.3-0.971,3.08-1.279,4.908-0.881
					c1.845,0.329,3.255,1.611,4.044,2.911C152.469,35.438,152.534,37.144,151.954,38.611z"/>
			</g>
			<g>
				<path fill="#2073B1" d="M136.478,36.132c0.092,1.35-0.354,2.62-1.05,3.565c-0.705,0.944-1.635,1.742-2.789,1.919
					c-1.124,0.306-2.285,0.055-3.345-0.549c-1.03-0.547-1.976-1.495-2.47-2.755c-0.497-1.263-0.405-2.617,0.241-3.814
					c0.656-1.136,1.89-2.059,3.418-2.454c1.553-0.269,3.053-0.04,4.14,0.762C135.717,33.603,136.381,34.779,136.478,36.132z"/>
			</g>
			<g>
				<path fill="#2073B1" d="M122.327,40.422c0.672,1.175,0.832,2.531,0.631,3.712c-0.1,0.593-0.296,1.142-0.586,1.62
					c-0.278,0.499-0.615,0.971-1.079,1.329c-0.948,0.682-2.05,1.026-3.251,0.96c-1.2-0.077-2.485-0.542-3.476-1.463
					c-0.993-0.92-1.477-2.161-1.385-3.489c0.084-1.325,0.733-2.75,2.009-3.691c0.623-0.484,1.283-0.855,1.978-1.042
					c0.711-0.164,1.418-0.19,2.074-0.082C120.562,38.489,121.657,39.245,122.327,40.422z"/>
			</g>
			<circle fill="#2073B1" cx="185.399" cy="68.79" r="10.596"/>
		</g>
		<g>
			<g>
				<path fill="#2073B1" d="M259.25,87.061c-1.113-0.772-1.82-1.911-2.117-3.042c-0.312-1.153-0.337-2.364,0.241-3.376
					c0.458-1.069,1.381-1.816,2.513-2.268c1.073-0.465,2.403-0.611,3.699-0.211c1.293,0.4,2.294,1.315,2.83,2.569
					c0.477,1.222,0.421,2.762-0.218,4.205c-0.762,1.386-1.896,2.402-3.186,2.761C261.703,88.054,260.366,87.832,259.25,87.061z"/>
			</g>
			<g>
				<path fill="#2073B1" d="M264.741,73.337c-1.338-0.213-2.495-0.935-3.29-1.828c-0.396-0.449-0.703-0.947-0.891-1.474
					c-0.237-0.53-0.376-1.089-0.364-1.675c0.069-1.167,0.454-2.238,1.29-3.138c0.842-0.89,1.955-1.594,3.29-1.791
					c1.345-0.199,2.671,0.19,3.615,1.099c0.95,0.896,1.694,2.297,1.618,3.877c-0.012,0.787-0.157,1.536-0.425,2.195
					c-0.319,0.655-0.74,1.223-1.234,1.667C267.356,73.163,266.08,73.547,264.741,73.337z"/>
			</g>
			<g>
				<path fill="#2073B1" d="M263.687,58.586c-1.316,0.394-2.575,0.208-3.711-0.241c-1.167-0.447-1.958-1.261-2.501-2.291
					c-0.538-1.032-0.478-2.257-0.203-3.376c0.327-1.138,1.057-2.276,2.179-3.038c1.12-0.76,2.448-0.962,3.743-0.582
					c1.33,0.346,2.434,1.385,3.149,2.793c0.723,1.408,0.635,3,0.182,4.203C266.051,57.277,264.968,58.206,263.687,58.586z"/>
			</g>
			<g>
				<path fill="#2073B1" d="M256.378,45.744c-1.001,0.912-2.281,1.356-3.466,1.408c-1.159,0.008-2.352-0.239-3.245-0.992
					c-0.854-0.807-1.478-1.731-1.637-2.97c-0.164-1.223-0.027-2.509,0.658-3.683c0.679-1.166,1.823-1.975,3.12-2.138
					c1.277-0.157,2.869,0.104,4.038,1.166c1.211,1.011,1.943,2.337,1.97,3.709C257.884,43.589,257.379,44.833,256.378,45.744z"/>
			</g>
			<g>
				<path fill="#2073B1" d="M244.228,37.328c-0.517,1.274-1.445,2.141-2.505,2.747c-1.077,0.632-2.205,0.746-3.351,0.525
					c-1.142-0.229-2.066-1.031-2.767-1.953c-0.685-0.967-1.118-2.252-1.012-3.602c0.108-1.351,0.783-2.511,1.884-3.282
					c1.101-0.819,2.601-1.041,4.146-0.715c1.549,0.314,2.74,1.374,3.396,2.479C244.677,34.663,244.729,36.091,244.228,37.328z"/>
			</g>
			<g>
				<path fill="#2073B1" d="M215.408,38.211c1.216,1.138,1.265,3.059,0.11,4.292c-1.152,1.231-3.073,1.307-4.289,0.167
					c-1.216-1.14-1.265-3.062-0.112-4.293C212.274,37.146,214.192,37.072,215.408,38.211z"/>
			</g>
			<g>
				
					<ellipse transform="matrix(0.6838 -0.7296 0.7296 0.6838 30.1861 163.8878)" fill="#2073B1" cx="204.204" cy="47.112" rx="3.055" ry="3.016"/>
			</g>
			<g>
				
					<ellipse transform="matrix(0.6838 -0.7296 0.7296 0.6838 22.4399 160.9173)" fill="#2073B1" cx="196.903" cy="54.565" rx="3.055" ry="3.016"/>
			</g>
			<g>
				<path fill="#2073B1" d="M227.043,33.166c1.383,1.3,1.438,3.491,0.125,4.895c-1.316,1.405-3.506,1.491-4.894,0.191
					c-1.385-1.3-1.444-3.491-0.126-4.896C223.463,31.952,225.654,31.866,227.043,33.166z"/>
			</g>
			<g>
				
					<ellipse transform="matrix(-0.7321 -0.6812 0.6812 -0.7321 288.1821 280.5638)" fill="#2073B1" cx="199.265" cy="83.61" rx="7.833" ry="7.733"/>
			</g>
			<g>
				<path fill="#2073B1" d="M206.561,90.202c2.211-2.478,6.202-2.333,8.284-0.663c2.174,1.717,2.824,5.23,1.263,8.103
					c-0.813,1.415-2.226,2.448-3.799,2.648c-1.555,0.2-3.49-0.122-4.941-1.39C204.241,96.349,204.374,92.651,206.561,90.202z"/>
			</g>
			<g>
				<path fill="#2073B1" d="M218.786,98.925c1.24-2.926,4.297-4.54,6.915-3.937c1.353,0.287,2.454,1.195,3.294,2.29
					c0.819,1.148,1.345,2.669,1.228,4.27c-0.116,1.601-0.905,2.979-2.205,3.897c-1.298,0.969-3.075,1.277-4.904,0.88
					c-1.847-0.33-3.257-1.611-4.046-2.911C218.269,102.097,218.206,100.391,218.786,98.925z"/>
			</g>
			<g>
				<path fill="#2073B1" d="M234.262,101.403c-0.094-1.351,0.352-2.62,1.048-3.565c0.705-0.943,1.635-1.741,2.79-1.919
					c1.124-0.307,2.286-0.056,3.343,0.548c1.034,0.547,1.978,1.496,2.475,2.758c0.494,1.26,0.402,2.613-0.243,3.813
					c-0.656,1.136-1.892,2.058-3.417,2.453c-1.555,0.269-3.053,0.038-4.14-0.762C235.021,103.933,234.358,102.756,234.262,101.403z"
					/>
			</g>
			<g>
				<path fill="#2073B1" d="M248.409,97.113c-0.668-1.177-0.828-2.532-0.631-3.713c0.102-0.593,0.298-1.143,0.59-1.618
					c0.276-0.5,0.613-0.974,1.077-1.33c0.948-0.683,2.049-1.025,3.251-0.96c1.197,0.076,2.484,0.541,3.478,1.463
					c0.991,0.922,1.478,2.16,1.383,3.488c-0.082,1.326-0.733,2.751-2.006,3.691c-0.624,0.483-1.286,0.856-1.98,1.042
					c-0.711,0.163-1.418,0.191-2.074,0.084C250.178,99.046,249.081,98.29,248.409,97.113z"/>
			</g>
		</g>
	</g>
</g>
</svg>
