<?xml version="1.0" encoding="utf-8"?>
<!-- Generator: Adobe Illustrator 16.0.0, SVG Export Plug-In . SVG Version: 6.00 Build 0)  -->
<!DOCTYPE svg PUBLIC "-//W3C//DTD SVG 1.1//EN" "http://www.w3.org/Graphics/SVG/1.1/DTD/svg11.dtd">
<svg version="1.1" id="Layer_1" xmlns="http://www.w3.org/2000/svg" xmlns:xlink="http://www.w3.org/1999/xlink" x="0px" y="0px"
	 width="841.89px" height="595.28px" viewBox="0 0 841.89 595.28" enable-background="new 0 0 841.89 595.28" xml:space="preserve">
<g>
	<path fill="#2073B2" d="M449.307,211.626v68.197h43.156v10.211h-55.018v-78.408H449.307z"/>
	<path fill="#2073B2" d="M712.885,215.911c5.492,4.062,8.564,10.322,9.334,18.89h-11.859c-1.096-5.053-3.076-8.79-6.148-10.984
		c-3.074-2.306-7.469-3.404-13.398-3.404c-5.16,0-9.117,0.769-11.859,2.309c-3.404,1.754-5.053,4.612-5.053,8.564
		c0,3.516,1.867,6.259,5.82,8.348c1.756,0.985,6.26,2.634,13.617,4.829c10.541,3.293,17.459,5.821,20.535,7.689
		c6.697,4.06,10.104,9.661,10.104,16.909c0,7.029-2.746,12.519-8.236,16.583c-5.49,3.952-13.18,5.927-23.061,5.927
		c-9.553,0-17.021-1.975-22.402-5.706c-6.48-4.613-9.992-11.863-10.652-21.745h11.857c0.879,6.149,3.074,10.652,6.592,13.288
		c3.184,2.417,8.018,3.624,14.605,3.624c5.93,0,10.652-1.099,14.164-3.075c3.516-1.977,5.271-4.725,5.271-8.233
		c0-4.396-2.523-7.803-7.467-10.326c-1.754-0.881-6.918-2.635-15.594-5.271c-9.666-3.074-15.594-5.161-18.01-6.479
		c-6.039-3.624-9.006-8.896-9.006-15.701c0-6.921,2.855-12.303,8.678-16.257c5.49-3.733,12.41-5.6,20.754-5.6
		C700.584,210.09,707.723,211.956,712.885,215.911z"/>
	<path fill="#17AEBD" d="M427.514,211.626v10.212h-26.135v68.196H389.52v-68.196h-26.244v-10.212H427.514z"/>
	<path fill="#17AEBD" d="M177.326,255.333c-2.637-3.183-6.59-5.271-11.75-6.26c3.949-1.427,6.916-3.624,9.113-6.479
		c2.193-3.074,3.295-6.81,3.295-11.2c0-6.042-2.086-10.764-6.262-14.278c-4.391-3.73-10.32-5.49-18.008-5.49h-35.801v10.258h11.973
		v-0.374h20.865c5.27,0,9.223,0.879,11.639,2.745c2.418,1.755,3.623,4.612,3.623,8.566c0,4.173-1.205,7.247-3.623,9.224
		c-2.416,1.865-6.369,2.856-11.859,2.856h-14.146v0.001h-18.471v45.132h35.801c8.346,0,14.826-1.537,19.439-4.612
		c5.379-3.731,8.123-9.443,8.123-17.351C181.277,262.8,179.959,258.515,177.326,255.333z M163.926,277.735
		c-2.854,1.535-6.807,2.416-11.859,2.416h-22.18v-25.477h22.51c5.713,0,9.994,0.987,12.74,3.074s4.172,5.489,4.172,10.103
		C169.309,272.354,167.441,275.647,163.926,277.735z"/>
	<path fill="#2073B2" d="M645.742,255.333c-2.637-3.183-6.588-5.271-11.75-6.26c3.951-1.427,6.918-3.624,9.113-6.479
		c2.197-3.074,3.297-6.81,3.297-11.2c0-6.042-2.086-10.764-6.262-14.278c-4.391-3.73-10.32-5.49-18.01-5.49h-35.799v10.258h11.973
		v-0.374h20.863c5.271,0,9.225,0.879,11.639,2.745c2.42,1.755,3.623,4.612,3.623,8.566c0,4.173-1.203,7.247-3.623,9.224
		c-2.414,1.865-6.367,2.856-11.857,2.856h-14.146v0.001h-18.471v45.132h35.799c8.348,0,14.826-1.537,19.439-4.612
		c5.381-3.731,8.125-9.443,8.125-17.351C649.695,262.8,648.377,258.515,645.742,255.333z M632.344,277.735
		c-2.854,1.535-6.809,2.416-11.863,2.416h-22.176v-25.477h22.51c5.713,0,9.992,0.987,12.738,3.074s4.17,5.489,4.17,10.103
		C637.723,272.354,635.859,275.647,632.344,277.735z"/>
	<g>
		<polygon fill="#2073B2" points="546.205,211.626 534.309,211.626 563.555,290.034 576.4,290.034 		"/>
		<polygon fill="#2073B2" points="535.639,249.306 530.035,249.306 530.039,249.3 518.078,249.3 502.395,290.029 515.131,290.029 
			526.305,259.497 539.662,259.497 		"/>
	</g>
	<g>
		<g>
			<g>
				<path fill="#2073B2" d="M205.441,233.344c1.064,0.739,1.742,1.828,2.025,2.908c0.299,1.101,0.324,2.261-0.229,3.227
					c-0.439,1.023-1.32,1.737-2.404,2.168c-1.025,0.444-2.297,0.585-3.535,0.201c-1.236-0.383-2.193-1.257-2.703-2.455
					c-0.457-1.168-0.404-2.641,0.209-4.021c0.727-1.323,1.811-2.295,3.041-2.639C203.1,232.395,204.377,232.606,205.441,233.344z"/>
			</g>
			<g>
				<path fill="#2073B2" d="M200.195,246.464c1.279,0.2,2.385,0.891,3.145,1.747c0.381,0.428,0.674,0.904,0.852,1.407
					c0.227,0.506,0.359,1.041,0.35,1.6c-0.068,1.118-0.436,2.143-1.236,2.999c-0.803,0.853-1.867,1.524-3.143,1.714
					c-1.285,0.189-2.553-0.182-3.455-1.05c-0.908-0.858-1.617-2.196-1.547-3.707c0.012-0.752,0.15-1.467,0.406-2.097
					c0.303-0.627,0.707-1.168,1.182-1.594C197.695,246.629,198.918,246.262,200.195,246.464z"/>
			</g>
			<g>
				<path fill="#2073B2" d="M201.203,260.562c1.258-0.376,2.461-0.2,3.547,0.231c1.115,0.426,1.871,1.203,2.391,2.188
					c0.514,0.986,0.459,2.156,0.191,3.226c-0.311,1.088-1.008,2.178-2.08,2.905c-1.07,0.727-2.34,0.919-3.578,0.557
					c-1.271-0.332-2.326-1.325-3.01-2.672c-0.689-1.345-0.607-2.866-0.172-4.016C198.943,261.813,199.98,260.925,201.203,260.562z"
					/>
			</g>
			<g>
				<path fill="#2073B2" d="M208.189,272.836c0.959-0.872,2.18-1.296,3.312-1.345c1.107-0.009,2.248,0.229,3.1,0.948
					c0.816,0.771,1.414,1.656,1.566,2.839c0.156,1.168,0.027,2.398-0.629,3.521c-0.65,1.114-1.744,1.889-2.984,2.043
					c-1.217,0.148-2.74-0.099-3.857-1.114c-1.158-0.967-1.859-2.235-1.885-3.547C206.75,274.896,207.232,273.708,208.189,272.836z"
					/>
			</g>
			<g>
				<path fill="#2073B2" d="M219.805,280.882c0.492-1.218,1.379-2.047,2.393-2.627c1.029-0.603,2.109-0.713,3.203-0.501
					c1.094,0.22,1.973,0.986,2.645,1.866c0.654,0.925,1.068,2.152,0.967,3.441c-0.102,1.292-0.746,2.402-1.801,3.139
					c-1.055,0.783-2.486,0.994-3.963,0.683c-1.479-0.3-2.619-1.314-3.248-2.369C219.373,283.428,219.324,282.063,219.805,280.882z"
					/>
			</g>
			<g>
				
					<ellipse transform="matrix(-0.6837 0.7297 -0.7297 -0.6837 622.6306 285.9713)" fill="#2073B2" cx="249.347" cy="277.907" rx="2.921" ry="2.883"/>
			</g>
			<g>
				
					<ellipse transform="matrix(-0.6838 0.7296 -0.7296 -0.6838 632.6467 268.9165)" fill="#2073B2" cx="258.06" cy="271.528" rx="2.92" ry="2.882"/>
			</g>
			<g>
				
					<ellipse transform="matrix(-0.6838 0.7296 -0.7296 -0.6838 639.1994 251.8291)" fill="#2073B2" cx="265.038" cy="264.404" rx="2.92" ry="2.882"/>
			</g>
			<g>
				
					<ellipse transform="matrix(-0.6839 0.7296 -0.7296 -0.6839 607.6781 301.5561)" fill="#2073B2" cx="238.509" cy="282.428" rx="3.331" ry="3.288"/>
			</g>
			<g>
				
					<ellipse transform="matrix(0.732 0.6813 -0.6813 0.732 231.6254 -115.6108)" fill="#2073B2" cx="262.78" cy="236.643" rx="7.488" ry="7.392"/>
			</g>
			<g>
				<path fill="#2073B2" d="M255.807,230.341c-2.113,2.368-5.926,2.231-7.92,0.634c-2.076-1.641-2.697-4.998-1.203-7.743
					c0.775-1.353,2.125-2.343,3.631-2.533c1.484-0.19,3.332,0.117,4.723,1.328C258.023,224.467,257.898,228,255.807,230.341z"/>
			</g>
			<g>
				<path fill="#2073B2" d="M244.123,222.005c-1.188,2.796-4.109,4.339-6.609,3.763c-1.293-0.275-2.35-1.144-3.15-2.19
					c-0.783-1.097-1.285-2.55-1.174-4.081c0.109-1.529,0.863-2.848,2.105-3.724c1.242-0.928,2.943-1.223,4.691-0.842
					c1.764,0.314,3.111,1.54,3.865,2.782C244.615,218.972,244.678,220.603,244.123,222.005z"/>
			</g>
			<g>
				<path fill="#2073B2" d="M229.33,219.636c0.088,1.29-0.338,2.504-1.004,3.407c-0.674,0.902-1.562,1.665-2.666,1.835
					c-1.074,0.292-2.184,0.053-3.197-0.525c-0.984-0.522-1.889-1.429-2.361-2.634c-0.475-1.207-0.387-2.501,0.23-3.646
					c0.627-1.086,1.807-1.968,3.268-2.346c1.484-0.257,2.918-0.038,3.957,0.729C228.604,217.218,229.238,218.343,229.33,219.636z"/>
			</g>
			<g>
				<path fill="#2073B2" d="M215.805,223.736c0.643,1.123,0.795,2.419,0.604,3.548c-0.096,0.566-0.283,1.092-0.561,1.548
					c-0.266,0.477-0.588,0.929-1.031,1.271c-0.906,0.652-1.959,0.98-3.107,0.918c-1.146-0.073-2.375-0.518-3.322-1.398
					c-0.949-0.88-1.412-2.065-1.324-3.335c0.08-1.267,0.701-2.629,1.92-3.528c0.596-0.463,1.227-0.817,1.891-0.996
					c0.68-0.156,1.355-0.182,1.982-0.078C214.117,221.889,215.164,222.611,215.805,223.736z"/>
			</g>
			<circle fill="#2073B2" cx="276.091" cy="250.852" r="10.128"/>
		</g>
		<g>
			<g>
				<path fill="#2073B2" d="M346.682,268.315c-1.064-0.738-1.74-1.827-2.023-2.908c-0.299-1.102-0.322-2.26,0.23-3.227
					c0.438-1.022,1.32-1.736,2.402-2.167c1.025-0.444,2.297-0.585,3.535-0.202c1.236,0.383,2.193,1.258,2.705,2.456
					c0.455,1.168,0.402,2.64-0.209,4.02c-0.729,1.324-1.812,2.296-3.045,2.639C349.025,269.265,347.748,269.053,346.682,268.315z"/>
			</g>
			<g>
				<path fill="#2073B2" d="M351.93,255.197c-1.279-0.203-2.385-0.893-3.145-1.747c-0.379-0.43-0.672-0.905-0.852-1.408
					c-0.227-0.507-0.359-1.041-0.348-1.602c0.066-1.116,0.434-2.14,1.232-2.999c0.805-0.851,1.869-1.523,3.145-1.712
					c1.285-0.19,2.553,0.182,3.455,1.05c0.908,0.856,1.619,2.196,1.547,3.706c-0.012,0.752-0.15,1.468-0.406,2.098
					c-0.305,0.626-0.707,1.169-1.18,1.594C354.43,255.031,353.209,255.398,351.93,255.197z"/>
			</g>
			<g>
				<path fill="#2073B2" d="M350.922,241.099c-1.258,0.376-2.461,0.199-3.547-0.23c-1.115-0.428-1.871-1.205-2.391-2.189
					c-0.514-0.986-0.457-2.157-0.193-3.228c0.312-1.088,1.01-2.176,2.082-2.903c1.07-0.727,2.34-0.92,3.578-0.557
					c1.271,0.331,2.326,1.324,3.01,2.67c0.691,1.346,0.607,2.867,0.174,4.018C353.182,239.847,352.146,240.734,350.922,241.099z"/>
			</g>
			<g>
				<path fill="#2073B2" d="M343.936,228.823c-0.957,0.872-2.18,1.297-3.312,1.346c-1.107,0.008-2.248-0.229-3.102-0.948
					c-0.816-0.771-1.412-1.655-1.564-2.839c-0.156-1.169-0.025-2.398,0.629-3.521c0.648-1.114,1.742-1.888,2.982-2.043
					c1.221-0.15,2.742,0.099,3.859,1.114c1.158,0.967,1.857,2.234,1.883,3.546C345.375,226.764,344.893,227.952,343.936,228.823z"/>
			</g>
			<g>
				<path fill="#2073B2" d="M332.322,220.778c-0.494,1.218-1.381,2.047-2.395,2.626c-1.029,0.604-2.107,0.713-3.203,0.502
					c-1.092-0.22-1.975-0.985-2.645-1.867c-0.654-0.924-1.068-2.152-0.967-3.442c0.104-1.291,0.748-2.4,1.801-3.137
					c1.053-0.783,2.486-0.995,3.963-0.684c1.48,0.301,2.619,1.313,3.246,2.369C332.752,218.231,332.801,219.597,332.322,220.778z"/>
			</g>
			<g>
				
					<ellipse transform="matrix(0.6838 -0.7296 0.7296 0.6838 -67.5307 291.6639)" fill="#2073B2" cx="302.778" cy="223.754" rx="2.92" ry="2.882"/>
			</g>
			<g>
				
					<ellipse transform="matrix(0.6838 -0.7296 0.7296 0.6838 -74.9383 287.3229)" fill="#2073B2" cx="294.065" cy="230.131" rx="2.92" ry="2.883"/>
			</g>
			<g>
				
					<ellipse transform="matrix(0.6838 -0.7296 0.7296 0.6838 -82.3427 284.4834)" fill="#2073B2" cx="287.087" cy="237.255" rx="2.92" ry="2.882"/>
			</g>
			<g>
				<path fill="#2073B2" d="M315.896,216.801c1.322,1.242,1.375,3.337,0.119,4.679c-1.258,1.343-3.352,1.425-4.678,0.183
					c-1.324-1.243-1.381-3.337-0.121-4.68C312.475,215.641,314.568,215.558,315.896,216.801z"/>
			</g>
			<g>
				
					<ellipse transform="matrix(-0.732 -0.6813 0.6813 -0.732 320.6163 656.1392)" fill="#2073B2" cx="289.345" cy="265.017" rx="7.488" ry="7.392"/>
			</g>
			<g>
				<path fill="#2073B2" d="M296.318,271.318c2.113-2.368,5.928-2.23,7.918-0.634c2.078,1.641,2.699,4.999,1.207,7.744
					c-0.777,1.353-2.127,2.341-3.631,2.532c-1.486,0.191-3.336-0.117-4.723-1.329C294.102,277.193,294.229,273.659,296.318,271.318z
					"/>
			</g>
			<g>
				<path fill="#2073B2" d="M308.004,279.655c1.186-2.796,4.107-4.339,6.609-3.763c1.293,0.274,2.346,1.143,3.148,2.189
					c0.783,1.098,1.285,2.551,1.174,4.081c-0.111,1.529-0.865,2.848-2.107,3.725c-1.24,0.927-2.939,1.222-4.688,0.842
					c-1.766-0.315-3.113-1.54-3.867-2.783C307.51,282.688,307.449,281.057,308.004,279.655z"/>
			</g>
			<g>
				<path fill="#2073B2" d="M322.797,282.024c-0.09-1.291,0.336-2.504,1.002-3.408c0.674-0.901,1.562-1.664,2.666-1.834
					c1.074-0.293,2.186-0.053,3.195,0.523c0.988,0.523,1.891,1.431,2.365,2.637c0.473,1.204,0.385,2.498-0.232,3.645
					c-0.627,1.086-1.809,1.967-3.266,2.345c-1.486,0.257-2.918,0.037-3.957-0.728C323.521,284.442,322.889,283.317,322.797,282.024z
					"/>
			</g>
			<g>
				<path fill="#2073B2" d="M336.318,277.924c-0.639-1.125-0.791-2.42-0.604-3.549c0.098-0.566,0.285-1.092,0.564-1.547
					c0.264-0.478,0.586-0.931,1.029-1.271c0.906-0.652,1.959-0.979,3.107-0.917c1.145,0.072,2.375,0.517,3.324,1.398
					c0.947,0.881,1.412,2.064,1.322,3.334c-0.078,1.268-0.701,2.63-1.918,3.528c-0.596,0.462-1.229,0.818-1.893,0.996
					c-0.68,0.156-1.355,0.183-1.982,0.08C338.01,279.771,336.961,279.049,336.318,277.924z"/>
			</g>
		</g>
	</g>
	<g>
		<g>
			<path fill="#5D5E5E" d="M419.729,329.076v2.023h-12.896v-17.807h12.491v2.023h-10.333v5.747h8.04v2.023h-8.04v5.989H419.729z"/>
			<path fill="#5D5E5E" d="M441.838,317.893c0.783,0.369,1.416,0.94,1.902,1.714s0.729,1.727,0.729,2.859v8.634h-2.158v-8.418
				c0-1.169-0.293-2.037-0.877-2.604s-1.354-0.85-2.307-0.85c-0.719,0-1.381,0.176-1.982,0.526c-0.604,0.351-1.09,0.863-1.457,1.537
				c-0.369,0.675-0.553,1.48-0.553,2.415v7.393h-2.16v-8.418c0-1.169-0.291-2.037-0.875-2.604c-0.586-0.566-1.355-0.85-2.309-0.85
				c-0.646,0-1.277,0.166-1.889,0.499s-1.115,0.85-1.51,1.552c-0.396,0.701-0.594,1.574-0.594,2.616v7.204h-2.158v-13.49h1.889
				l0.135,2.104c0.467-0.791,1.084-1.385,1.848-1.78c0.766-0.396,1.588-0.594,2.469-0.594c0.99,0,1.902,0.226,2.738,0.675
				s1.471,1.105,1.902,1.97c0.396-0.864,1.043-1.521,1.943-1.97c0.898-0.449,1.816-0.675,2.752-0.675
				C440.215,317.34,441.057,317.524,441.838,317.893z"/>
			<path fill="#5D5E5E" d="M460.48,319.215c1.105,1.25,1.66,2.964,1.66,5.14c0,2.177-0.555,3.89-1.66,5.14
				c-1.105,1.251-2.604,1.875-4.492,1.875c-0.988,0-1.875-0.216-2.658-0.647c-0.781-0.432-1.389-1.007-1.82-1.727v7.771h-2.158
				v-19.156h1.889l0.135,2.348c0.395-0.791,1.002-1.426,1.82-1.902s1.75-0.715,2.793-0.715
				C457.877,317.34,459.375,317.965,460.48,319.215z M458.848,328.092c0.756-0.927,1.135-2.172,1.135-3.737
				c0-1.564-0.379-2.81-1.135-3.736c-0.754-0.927-1.789-1.39-3.102-1.39c-1.295,0-2.326,0.45-3.09,1.349
				c-0.764,0.9-1.146,2.104-1.146,3.615v0.324c0,1.511,0.383,2.716,1.146,3.615s1.795,1.349,3.09,1.349
				C457.059,329.48,458.094,329.018,458.848,328.092z"/>
			<path fill="#5D5E5E" d="M476.83,319.201c1.16,1.241,1.74,2.959,1.74,5.153s-0.58,3.912-1.74,5.153s-2.756,1.861-4.789,1.861
				s-3.629-0.62-4.789-1.861s-1.74-2.959-1.74-5.153s0.58-3.912,1.74-5.153s2.756-1.861,4.789-1.861S475.67,317.96,476.83,319.201z
				 M468.83,320.577c-0.773,0.918-1.16,2.177-1.16,3.777c0,1.602,0.387,2.86,1.16,3.777s1.844,1.376,3.211,1.376
				s2.438-0.459,3.211-1.376s1.16-2.176,1.16-3.777c0-1.601-0.387-2.859-1.16-3.777c-0.773-0.917-1.844-1.376-3.211-1.376
				S469.604,319.66,468.83,320.577z"/>
			<path fill="#5D5E5E" d="M501.908,317.609l-4.693,13.49h-2.16l-3.803-10.738l-3.588,10.738h-2.16l-4.693-13.49h2.4l3.4,10.981
				l3.668-10.981h2.16l3.668,10.981l3.4-10.981H501.908z"/>
			<path fill="#5D5E5E" d="M516.451,325.164h-10.172c0.125,1.367,0.58,2.428,1.363,3.184c0.781,0.756,1.793,1.133,3.035,1.133
				c0.988,0,1.811-0.17,2.469-0.513c0.656-0.341,1.102-0.836,1.334-1.483l1.809,0.944c-0.539,0.953-1.26,1.682-2.158,2.186
				c-0.9,0.503-2.051,0.755-3.453,0.755c-2.033,0-3.629-0.62-4.789-1.861s-1.74-2.959-1.74-5.153s0.553-3.912,1.658-5.153
				c1.107-1.241,2.676-1.861,4.709-1.861c1.258,0,2.348,0.279,3.264,0.836c0.918,0.559,1.609,1.313,2.078,2.267
				c0.467,0.954,0.701,2.023,0.701,3.211C516.559,324.157,516.521,324.661,516.451,325.164z M507.643,320.28
				c-0.729,0.702-1.174,1.691-1.336,2.968h8.174c-0.143-1.259-0.557-2.243-1.24-2.954c-0.684-0.71-1.592-1.065-2.725-1.065
				C509.328,319.229,508.371,319.579,507.643,320.28z"/>
			<path fill="#5D5E5E" d="M528.51,317.609l-0.432,2.104c-0.432-0.233-0.998-0.351-1.699-0.351c-0.576,0-1.139,0.167-1.686,0.499
				c-0.549,0.333-1,0.837-1.35,1.511c-0.352,0.675-0.525,1.489-0.525,2.442v7.284h-2.16v-13.49h1.754l0.297,2.213
				c0.756-1.655,2.195-2.482,4.316-2.482C527.674,317.34,528.168,317.43,528.51,317.609z"/>
			<path fill="#5D5E5E" d="M552.225,311.404V331.1h-1.889l-0.135-2.348c-0.395,0.792-1.002,1.426-1.82,1.902
				s-1.75,0.715-2.793,0.715c-1.889,0-3.387-0.624-4.492-1.875c-1.105-1.25-1.658-2.963-1.658-5.14c0-2.176,0.553-3.89,1.658-5.14
				s2.604-1.875,4.492-1.875c0.988,0,1.875,0.216,2.658,0.647c0.781,0.432,1.389,1.008,1.82,1.727v-8.31H552.225z M548.92,328.132
				c0.764-0.899,1.146-2.104,1.146-3.615v-0.324c0-1.511-0.383-2.715-1.146-3.615c-0.764-0.898-1.795-1.349-3.09-1.349
				c-1.312,0-2.346,0.463-3.102,1.39s-1.133,2.172-1.133,3.736c0,1.565,0.377,2.811,1.133,3.737
				c0.756,0.926,1.789,1.389,3.102,1.389C547.125,329.48,548.156,329.031,548.92,328.132z"/>
			<path fill="#5D5E5E" d="M557.148,314.574c-0.297-0.297-0.445-0.688-0.445-1.174c0-0.485,0.148-0.876,0.445-1.173
				s0.688-0.445,1.174-0.445s0.877,0.148,1.174,0.445s0.445,0.688,0.445,1.173c0,0.486-0.148,0.877-0.445,1.174
				s-0.688,0.445-1.174,0.445S557.445,314.871,557.148,314.574z M559.402,331.1h-2.16v-13.49h2.16V331.1z"/>
			<path fill="#5D5E5E" d="M574.941,330.236c0.719,0.576,1.08,1.357,1.08,2.348c0,0.863-0.297,1.622-0.891,2.279
				c-0.594,0.656-1.398,1.16-2.414,1.511c-1.018,0.351-2.137,0.526-3.359,0.526c-2.051,0-3.598-0.328-4.641-0.985
				c-1.043-0.656-1.564-1.515-1.564-2.576c0-0.611,0.211-1.151,0.633-1.619c0.424-0.468,1.004-0.8,1.74-0.998
				c-0.557-0.27-1.002-0.611-1.334-1.025c-0.334-0.413-0.5-0.898-0.5-1.457c0-0.665,0.18-1.218,0.539-1.659
				c0.359-0.44,0.855-0.769,1.484-0.984c-0.648-0.396-1.139-0.913-1.471-1.552c-0.332-0.638-0.498-1.353-0.498-2.145
				c0-0.881,0.232-1.668,0.701-2.36c0.467-0.692,1.123-1.232,1.969-1.619s1.799-0.58,2.859-0.58c1.008,0,1.926,0.18,2.752,0.54
				c0.504-1.835,1.771-2.752,3.805-2.752l0.486,1.888c-1.764,0-2.834,0.495-3.211,1.484c0.539,0.414,0.957,0.908,1.254,1.484
				c0.297,0.575,0.445,1.214,0.445,1.915c0,0.882-0.234,1.669-0.701,2.36c-0.469,0.693-1.125,1.232-1.969,1.619
				c-0.846,0.387-1.799,0.58-2.861,0.58c-0.791,0-1.482-0.081-2.076-0.243c-0.541,0.127-0.928,0.324-1.16,0.594
				c-0.234,0.271-0.352,0.639-0.352,1.106s0.162,0.827,0.486,1.079s0.756,0.378,1.295,0.378h4.479
				C573.225,329.373,574.223,329.661,574.941,330.236z M572.838,334.432c0.791-0.441,1.188-0.976,1.188-1.605
				c0-0.521-0.203-0.917-0.607-1.187c-0.404-0.271-1.094-0.405-2.064-0.405h-3.615c-0.828,0-1.467,0.148-1.916,0.445
				s-0.674,0.706-0.674,1.228c0,0.684,0.377,1.219,1.133,1.605s1.861,0.58,3.318,0.58
				C570.967,335.093,572.045,334.872,572.838,334.432z M566.93,319.876c-0.631,0.521-0.945,1.196-0.945,2.023
				s0.314,1.502,0.945,2.023c0.629,0.522,1.41,0.782,2.346,0.782s1.719-0.26,2.348-0.782c0.629-0.521,0.945-1.196,0.945-2.023
				s-0.316-1.502-0.945-2.023s-1.412-0.782-2.348-0.782S567.559,319.354,566.93,319.876z"/>
			<path fill="#5D5E5E" d="M579.137,314.574c-0.297-0.297-0.445-0.688-0.445-1.174c0-0.485,0.148-0.876,0.445-1.173
				s0.688-0.445,1.174-0.445s0.877,0.148,1.174,0.445s0.445,0.688,0.445,1.173c0,0.486-0.148,0.877-0.445,1.174
				s-0.688,0.445-1.174,0.445S579.434,314.871,579.137,314.574z M581.391,331.1h-2.16v-13.49h2.16V331.1z"/>
			<path fill="#5D5E5E" d="M594.664,330.155c-0.9,0.81-2.061,1.214-3.48,1.214c-1.098,0-1.992-0.297-2.686-0.89
				c-0.691-0.594-1.047-1.502-1.064-2.726v-8.282h-2.699v-1.862h2.699v-3.237l2.158-0.594v3.831h4.99v1.862h-4.99v7.904
				c0,0.647,0.184,1.139,0.553,1.471c0.369,0.333,0.859,0.499,1.471,0.499c0.863,0,1.627-0.332,2.293-0.998L594.664,330.155z"/>
			<path fill="#5D5E5E" d="M609.854,329.399l-0.135,1.7c-0.504,0.18-1.045,0.27-1.619,0.27c-0.701,0-1.256-0.152-1.66-0.458
				s-0.66-0.818-0.77-1.538c-0.412,0.63-1.02,1.119-1.82,1.471c-0.801,0.351-1.641,0.525-2.523,0.525
				c-1.33,0-2.428-0.31-3.291-0.931c-0.863-0.62-1.295-1.515-1.295-2.685c0-1.025,0.449-1.911,1.35-2.657
				c0.898-0.746,2.203-1.264,3.912-1.552l3.588-0.593v-0.756c0-0.899-0.279-1.619-0.836-2.158c-0.559-0.54-1.332-0.81-2.32-0.81
				c-0.9,0-1.678,0.216-2.334,0.647s-1.164,1.07-1.525,1.916l-1.592-1.16c0.361-1.008,1.031-1.808,2.012-2.401
				c0.979-0.594,2.125-0.891,3.439-0.891c1.6,0,2.887,0.387,3.857,1.16s1.457,1.916,1.457,3.427v6.637
				c0,0.324,0.082,0.566,0.242,0.729c0.162,0.162,0.424,0.243,0.783,0.243S609.492,329.49,609.854,329.399z M604.363,328.672
				c0.816-0.54,1.227-1.241,1.227-2.104v-1.862l-3.021,0.566c-1.205,0.216-2.105,0.526-2.697,0.932
				c-0.594,0.404-0.891,0.922-0.891,1.551c0,0.558,0.215,0.985,0.646,1.282c0.432,0.296,1.035,0.444,1.809,0.444
				C602.568,329.48,603.543,329.211,604.363,328.672z"/>
			<path fill="#5D5E5E" d="M615.033,327.484c0,0.684,0.104,1.156,0.311,1.416c0.205,0.262,0.588,0.392,1.146,0.392
				c0.377,0,0.705-0.027,0.984-0.081s0.607-0.152,0.984-0.297l-0.35,2.077c-0.594,0.252-1.26,0.378-1.998,0.378
				c-1.098,0-1.91-0.297-2.441-0.89c-0.531-0.594-0.795-1.502-0.795-2.726v-16.35h2.158V327.484z"/>
			<path fill="#5D5E5E" d="M631.652,332.476c0,1.528-0.41,2.648-1.229,3.359c-0.818,0.71-1.775,1.065-2.873,1.065
				c-0.539,0-1.043-0.081-1.51-0.243c-0.469-0.162-0.863-0.378-1.188-0.647l0.459-2.05c0.629,0.557,1.367,0.836,2.213,0.836
				c1.312,0,1.969-0.846,1.969-2.536v-14.65h2.158V332.476z M631.721,312.254c0.314,0.315,0.471,0.697,0.471,1.146
				c0,0.45-0.156,0.833-0.471,1.147c-0.316,0.314-0.697,0.472-1.148,0.472c-0.449,0-0.832-0.157-1.146-0.472
				s-0.471-0.697-0.471-1.147c0-0.449,0.156-0.831,0.471-1.146c0.314-0.314,0.697-0.472,1.146-0.472
				C631.023,311.782,631.404,311.939,631.721,312.254z"/>
			<path fill="#5D5E5E" d="M647.152,319.201c1.16,1.241,1.74,2.959,1.74,5.153s-0.58,3.912-1.74,5.153s-2.756,1.861-4.789,1.861
				s-3.629-0.62-4.789-1.861s-1.74-2.959-1.74-5.153s0.58-3.912,1.74-5.153s2.756-1.861,4.789-1.861S645.992,317.96,647.152,319.201
				z M639.152,320.577c-0.773,0.918-1.16,2.177-1.16,3.777c0,1.602,0.387,2.86,1.16,3.777s1.844,1.376,3.211,1.376
				s2.438-0.459,3.211-1.376s1.16-2.176,1.16-3.777c0-1.601-0.387-2.859-1.16-3.777c-0.773-0.917-1.844-1.376-3.211-1.376
				S639.926,319.66,639.152,320.577z"/>
			<path fill="#5D5E5E" d="M664.756,317.609v13.49h-1.889l-0.135-2.051c-0.898,1.548-2.508,2.32-4.828,2.32
				c-1.457,0-2.65-0.404-3.576-1.214s-1.389-2.051-1.389-3.724v-8.822h2.158v8.256c0,1.313,0.27,2.244,0.809,2.793
				c0.541,0.549,1.332,0.822,2.375,0.822c1.24,0,2.27-0.377,3.09-1.133c0.818-0.756,1.227-1.889,1.227-3.399v-7.339H664.756z"/>
			<path fill="#5D5E5E" d="M677.625,317.609l-0.432,2.104c-0.432-0.233-0.998-0.351-1.699-0.351c-0.576,0-1.139,0.167-1.686,0.499
				c-0.549,0.333-1,0.837-1.35,1.511c-0.352,0.675-0.525,1.489-0.525,2.442v7.284h-2.16v-13.49h1.754l0.297,2.213
				c0.756-1.655,2.195-2.482,4.316-2.482C676.789,317.34,677.283,317.43,677.625,317.609z"/>
			<path fill="#5D5E5E" d="M691.115,318.662c0.988,0.881,1.484,2.149,1.484,3.804v8.634h-2.158v-7.878
				c0-1.403-0.303-2.419-0.904-3.049c-0.604-0.63-1.408-0.944-2.414-0.944c-0.721,0-1.395,0.157-2.023,0.472
				c-0.631,0.315-1.146,0.828-1.553,1.538c-0.404,0.711-0.605,1.605-0.605,2.685v7.177h-2.16v-13.49h1.889l0.135,2.104
				c0.451-0.81,1.07-1.407,1.863-1.794c0.791-0.387,1.682-0.58,2.67-0.58C688.867,317.34,690.127,317.781,691.115,318.662z"/>
			<path fill="#5D5E5E" d="M708.949,325.164h-10.172c0.125,1.367,0.58,2.428,1.363,3.184c0.781,0.756,1.793,1.133,3.035,1.133
				c0.988,0,1.811-0.17,2.469-0.513c0.656-0.341,1.102-0.836,1.334-1.483l1.809,0.944c-0.539,0.953-1.26,1.682-2.158,2.186
				c-0.9,0.503-2.051,0.755-3.453,0.755c-2.033,0-3.629-0.62-4.789-1.861s-1.74-2.959-1.74-5.153s0.553-3.912,1.658-5.153
				c1.107-1.241,2.676-1.861,4.709-1.861c1.258,0,2.348,0.279,3.264,0.836c0.918,0.559,1.609,1.313,2.078,2.267
				c0.467,0.954,0.701,2.023,0.701,3.211C709.057,324.157,709.02,324.661,708.949,325.164z M700.141,320.28
				c-0.729,0.702-1.174,1.691-1.336,2.968h8.174c-0.143-1.259-0.557-2.243-1.24-2.954c-0.684-0.71-1.592-1.065-2.725-1.065
				C701.826,319.229,700.869,319.579,700.141,320.28z"/>
			<path fill="#5D5E5E" d="M717.637,333.366c-0.523,1.295-1.107,2.207-1.754,2.738c-0.648,0.53-1.484,0.796-2.51,0.796
				c-0.684,0-1.254-0.09-1.713-0.27c-0.459-0.181-0.877-0.469-1.256-0.863l0.756-1.835c0.521,0.719,1.25,1.079,2.186,1.079
				c0.521,0,0.984-0.157,1.391-0.473c0.404-0.314,0.758-0.886,1.064-1.713l0.701-1.754l-5.639-13.463h2.455l3.373,8.796l0.836,2.401
				l0.973-2.671l3.156-8.526h2.32L717.637,333.366z"/>
		</g>
	</g>
</g>
</svg>
