<svg width="512.001" height="512.001" xmlns="http://www.w3.org/2000/svg">

 <g>
  <title>background</title>
  <rect fill="none" id="canvas_background" height="402" width="582" y="-1" x="-1"/>
 </g>
 <g>
  <title>Layer 1</title>
  <g id="svg_1">
   <g id="svg_2">
    <path fill="#ffffff" id="svg_3" d="m268.662,243.351c-3.91,-3.91 -10.24,-3.91 -14.15,0c-3.9,3.9 -3.9,10.23 0,14.14c3.91,3.9 10.24,3.9 14.15,0c3.9,-3.91 3.9,-10.24 0,-14.14z"/>
   </g>
  </g>
  <g id="svg_4">
   <g id="svg_5">
    <path fill="#ffffff" id="svg_6" d="m395.933,116.07c-19.54,-19.539 -51.172,-19.54 -70.713,0c-19.489,19.489 -19.49,51.209 0.003,70.714c19.496,19.484 51.216,19.492 70.71,-0.002c19.538,-19.538 19.542,-51.171 0,-70.712zm-14.142,56.569c-11.693,11.694 -30.727,11.694 -42.426,0.002c-11.695,-11.702 -11.696,-30.736 -0.002,-42.429c11.723,-11.723 30.703,-11.725 42.428,0c11.723,11.722 11.725,30.703 0,42.427z"/>
   </g>
  </g>
  <g id="svg_7">
   <g stroke="null" id="svg_8">
    <path fill="#ffffff" stroke="null" id="svg_9" d="m509.02776,2.943083c-1.992328,-1.972438 -4.710984,-3.041554 -7.537168,-2.936049c-2.293612,0.081389 -56.905113,2.255794 -121.82316,24.983545c-52.019649,18.193053 -95.379162,44.240689 -128.874419,77.419448c-7.505721,7.434574 -14.809572,15.318297 -21.797937,23.508487c-33.118906,-19.310399 -59.658259,-13.255426 -76.435813,-4.361871c-38.63027,20.477986 -62.541252,76.080039 -62.541252,115.850337c0.003043,4.063443 2.475194,7.727978 6.265081,9.282416c1.254842,0.515466 2.573593,0.765664 3.880171,0.765664c2.640545,0 5.234426,-1.02189 7.175019,-2.943082c20.372672,-20.179558 45.500962,-18.917519 53.709679,-17.848404l3.552512,3.518837c-6.991408,16.47885 -12.623489,32.865258 -16.754222,48.802517c-1.491203,5.767598 -0.988049,11.870801 1.228467,17.453514c-9.766872,4.458333 -19.189854,11.004657 -27.394513,19.131543c-26.112281,25.865766 -31.414674,88.901388 -31.627703,91.572168c-0.233317,2.931025 0.839943,5.816833 2.938786,7.895781c1.91016,1.891049 4.493897,2.943082 7.171976,2.943082c0.265779,0 0.532572,-0.010048 0.799366,-0.031149c2.696338,-0.210005 66.337225,-5.462136 92.449506,-31.326897c8.201616,-8.123872 14.809572,-17.456528 19.31057,-27.12881c5.96684,2.324121 12.108162,2.610491 17.630684,1.208784c16.082674,-4.090573 32.623867,-9.667257 49.262445,-16.593398l3.552512,3.518837c1.078332,8.131911 2.352449,33.022008 -18.019209,53.199557c-2.900237,2.873751 -3.768584,7.19543 -2.198256,10.949392c1.569314,3.754967 5.267902,6.202679 9.371246,6.202679c40.150891,0 96.284028,-23.684328 116.957984,-61.94842c8.978664,-16.616509 15.091582,-42.904295 -4.403613,-75.710269c8.26451,-6.919108 16.224693,-14.153725 23.733458,-21.591313c33.496271,-33.178758 59.792163,-76.127265 78.159319,-127.649797c22.946265,-64.305699 25.140463,-118.40054 25.222632,-120.671406c0.101442,-2.788342 -0.972832,-5.49228 -2.964146,-7.465723zm-396.329264,212.851482c6.3016,-30.207541 24.604848,-63.355151 49.43794,-76.520145c16.594958,-8.796089 34.733868,-7.933964 54.020092,2.523073c-16.430621,21.404419 -30.714722,44.464761 -42.621013,68.816282c-0.151149,-0.092442 -1.977112,-2.366323 -5.369345,-3.123948c-1.394833,-0.312495 -28.23547,-6.030857 -55.467675,8.304738zm66.367658,156.617405c-13.948326,13.816109 -46.668564,21.102977 -67.34962,24.078213c3.004723,-20.486024 10.362338,-52.8951 24.30965,-66.710205c7.811063,-7.737021 16.867838,-13.60309 25.971276,-16.906899l34.137387,33.813797c-3.335425,9.017147 -9.256617,17.988072 -17.068694,25.725093zm46.247578,-31.176176c-2.935742,0.744563 -6.336091,-0.348668 -8.864035,-2.848631c-13.1236,-12.9992 -18.257598,-18.084533 -19.868503,-19.679164c-2.954002,-2.926001 -10.198002,-10.101334 -26.198507,-25.951175c-2.529973,-2.511015 -3.633666,-5.878127 -2.884007,-8.781017c3.249199,-12.533974 7.49862,-25.393506 12.666095,-38.37663l83.88777,83.092593c-13.109398,5.119497 -26.089964,9.327632 -38.738813,12.544022zm146.081075,5.313424c-13.29098,24.596694 -46.75479,42.727448 -77.250396,48.968311c9.723251,-18.123721 11.866729,-41.195116 8.314217,-55.185057c-0.824726,-3.249549 -2.965161,-4.883367 -3.084863,-5.075285c24.58253,-11.793431 47.86254,-25.942132 69.473823,-42.217006c10.557108,19.105418 11.426469,37.074399 2.547218,53.509038zm22.871197,-102.029204c-9.140972,9.05332 -18.983926,17.800173 -29.25598,25.996391c-24.693102,19.694236 -51.871543,36.376057 -80.867831,49.655599l-95.376119,-94.470034c13.406624,-28.72344 30.248087,-55.644255 50.128763,-80.100275c8.281755,-10.181719 17.111299,-19.932375 26.248214,-28.981676c30.052303,-29.76844 68.83778,-53.459802 115.31056,-70.513403l85.000593,84.194868c-17.214771,46.031257 -41.132853,84.449084 -71.1882,114.218529zm78.486978,-135.410934l-70.904161,-70.232056c38.63027,-11.884868 72.237114,-16.335163 89.011624,-17.934817c-1.615977,16.618519 -6.109874,49.906801 -18.107464,88.166873z"/>
   </g>
  </g>
  <g id="svg_10">
   <g id="svg_11">
    <path fill="#ffffff" id="svg_12" d="m240.371,413.049c-3.907,-3.905 -10.239,-3.903 -14.143,0.002l-28.28,28.29c-3.904,3.906 -3.903,10.238 0.002,14.142c3.907,3.904 10.239,3.904 14.143,-0.002l28.28,-28.29c3.904,-3.906 3.903,-10.238 -0.002,-14.142z"/>
   </g>
  </g>
  <g id="svg_13">
   <g id="svg_14">
    <path fill="#ffffff" id="svg_15" d="m98.954,271.631c-3.904,-3.906 -10.235,-3.906 -14.142,-0.002l-28.29,28.28c-3.906,3.904 -3.907,10.236 -0.003,14.142c3.903,3.904 10.234,3.908 14.142,0.002l28.29,-28.28c3.906,-3.904 3.907,-10.236 0.003,-14.142z"/>
   </g>
  </g>
  <g id="svg_16">
   <g id="svg_17">
    <path fill="#ffffff" id="svg_18" d="m169.663,427.2c-3.903,-3.905 -10.236,-3.905 -14.142,-0.001l-67.74,67.73c-3.906,3.905 -3.906,10.237 -0.001,14.142c3.903,3.905 10.236,3.907 14.142,0.001l67.74,-67.73c3.906,-3.905 3.906,-10.237 0.001,-14.142z"/>
   </g>
  </g>
  <g id="svg_19">
   <g id="svg_20">
    <path fill="#ffffff" id="svg_21" d="m89.663,427.2c-3.904,-3.905 -10.237,-3.905 -14.142,-0.001l-67.74,67.73c-3.906,3.905 -3.906,10.237 -0.001,14.142c3.903,3.905 10.236,3.907 14.142,0.001l67.74,-67.73c3.906,-3.905 3.906,-10.237 0.001,-14.142z"/>
   </g>
  </g>
  <g id="svg_22">
   <g id="svg_23">
    <path fill="#ffffff" id="svg_24" d="m84.802,342.338c-3.904,-3.904 -10.237,-3.904 -14.142,0.001l-67.73,67.74c-3.905,3.906 -3.905,10.237 0.001,14.143c3.905,3.905 10.237,3.905 14.142,-0.001l67.73,-67.74c3.905,-3.906 3.905,-10.237 -0.001,-14.143z"/>
   </g>
  </g>
  <g id="svg_25">
   <g id="svg_26">
    <path fill="#ffffff" id="svg_27" d="m311.083,200.919c-3.906,-3.905 -10.236,-3.905 -14.143,0l-14.14,14.14c-3.905,3.905 -3.905,10.237 0,14.143c3.906,3.905 10.237,3.905 14.143,0l14.14,-14.14c3.905,-3.905 3.905,-10.237 0,-14.143z"/>
   </g>
  </g>
  <g id="svg_28"/>
  <g id="svg_29"/>
  <g id="svg_30"/>
  <g id="svg_31"/>
  <g id="svg_32"/>
  <g id="svg_33"/>
  <g id="svg_34"/>
  <g id="svg_35"/>
  <g id="svg_36"/>
  <g id="svg_37"/>
  <g id="svg_38"/>
  <g id="svg_39"/>
  <g id="svg_40"/>
  <g id="svg_41"/>
  <g id="svg_42"/>
 </g>
</svg>