<svg version="1.1" id="Layer_1" xmlns="http://www.w3.org/2000/svg" xmlns:xlink="http://www.w3.org/1999/xlink" x="0px" y="0px"
	 width="100%" viewBox="0 0 2560 2560" enable-background="new 0 0 2560 2560" xml:space="preserve">
<path fill="#000000" opacity="1.000000" stroke="none" 
	d="
M1370.000000,2562.000000 
	C913.333313,2562.000000 457.666656,2562.000000 2.000000,2562.000000 
	C2.000000,1708.666626 2.000000,855.333313 2.000000,2.000000 
	C855.333313,2.000000 1708.666626,2.000000 2562.000000,2.000000 
	C2562.000000,855.333313 2562.000000,1708.666626 2562.000000,2562.000000 
	C2165.000000,2562.000000 1768.000000,2562.000000 1370.000000,2562.000000 
M748.257141,1055.701416 
	C748.257141,1055.701416 748.533875,1055.666626 748.046814,1054.653564 
	C747.365479,1054.401123 746.684143,1054.148682 746.014221,1054.013428 
	C746.014221,1054.013428 746.116882,1053.955688 745.445251,1052.876099 
	C743.710815,1051.730835 741.976379,1050.585693 740.249268,1049.670532 
	C740.249268,1049.670532 740.478638,1049.652588 739.851685,1048.479492 
	C737.232544,1046.917236 734.613342,1045.354980 731.494873,1042.964355 
	C731.014648,1042.487671 730.437012,1042.226562 729.091980,1041.031128 
	C726.709778,1039.954834 724.327515,1038.878540 721.752625,1037.503662 
	C721.752625,1037.503662 721.445251,1037.681885 720.689575,1036.503784 
	C719.915588,1035.998047 719.141541,1035.492188 718.497498,1035.313721 
	C718.497498,1035.313721 718.816467,1035.164673 718.000854,1034.162109 
	C716.007141,1033.467285 714.013489,1032.772583 711.485352,1031.609009 
	C711.485352,1031.609009 710.775085,1031.641724 710.258911,1030.549194 
	C709.549316,1030.226440 708.839783,1029.903809 708.188599,1029.768311 
	C708.188599,1029.768311 708.373535,1029.702881 707.606140,1028.728882 
	C706.412781,1028.463867 705.219421,1028.198730 704.013916,1028.013184 
	C704.013916,1028.013184 704.070557,1027.954834 703.256958,1026.904175 
	C698.745239,1024.928101 694.233459,1022.952026 688.750427,1020.389160 
	C688.378479,1020.320312 688.006531,1020.251465 686.875122,1019.022522 
	C683.300293,1017.980164 679.725403,1016.937866 676.093262,1015.935608 
	C676.093262,1015.935608 676.086853,1015.866272 675.271179,1014.711060 
	C667.368286,1012.341858 659.550415,1009.613037 651.535461,1007.717773 
	C645.173340,1006.213318 638.569946,1005.729187 630.877197,1004.381836 
	C630.461975,1004.308411 630.046814,1004.234924 628.721069,1002.987000 
	C621.187988,1002.686707 613.654907,1002.386414 604.261353,1001.752380 
	C593.476074,1001.865479 582.690796,1001.978577 570.434937,1001.707397 
	C547.839172,1000.819336 526.741211,1008.093384 505.347534,1013.720154 
	C504.527832,1013.935791 503.927460,1014.985291 501.830872,1015.631348 
	C499.249115,1016.537598 496.667358,1017.443787 492.869904,1018.293762 
	C491.921143,1018.926086 490.972351,1019.558411 488.911255,1020.372620 
	C487.960419,1020.972717 487.009583,1021.572754 484.756714,1022.039429 
	C483.648407,1022.634705 482.540100,1023.229980 480.679504,1023.730530 
	C480.679504,1023.730530 480.109406,1024.230469 479.000244,1024.185913 
	C478.607605,1024.768555 478.214996,1025.351318 477.934052,1025.862793 
	C477.934052,1025.862793 477.815521,1025.803101 476.377136,1025.997681 
	C473.627441,1027.163330 470.772186,1028.130371 468.144653,1029.526123 
	C446.337494,1041.109863 426.507660,1055.546875 408.676392,1072.536133 
	C397.730621,1082.964844 387.093018,1093.866455 378.430817,1107.862427 
	C374.772461,1111.407715 373.324860,1116.538818 367.323425,1118.527344 
	C356.088196,1122.250000 344.994873,1126.831299 334.526123,1132.351685 
	C309.011139,1145.806396 287.462189,1164.191284 269.731720,1187.033569 
	C251.160217,1210.959229 238.542953,1237.737549 231.777481,1267.156738 
	C227.585388,1285.385742 227.409729,1304.053345 227.644943,1322.699585 
	C228.020065,1352.437012 235.393402,1380.517944 248.900848,1406.770020 
	C270.348633,1448.454224 302.492523,1479.402222 344.903229,1499.685547 
	C372.292603,1512.784668 401.485565,1518.255859 431.396088,1519.411255 
	C458.347687,1520.452515 485.371124,1519.562012 512.362244,1519.675781 
	C529.676636,1519.748901 546.989990,1520.281494 564.303528,1520.270996 
	C580.617126,1520.260986 597.092163,1521.154419 613.203552,1519.216919 
	C634.130371,1516.700317 654.982971,1512.654907 674.894287,1505.175659 
	C690.413757,1499.346069 705.880981,1493.360352 720.617249,1485.227905 
	C736.029358,1497.591797 753.153259,1506.414307 772.167542,1512.135376 
	C788.336426,1517.000366 804.680786,1517.894531 821.295044,1517.682129 
	C850.012451,1517.314819 875.731140,1507.886719 899.382629,1492.091431 
	C919.092651,1478.928589 933.495300,1460.931030 947.177185,1440.367310 
	C958.551514,1423.425293 962.886780,1404.063721 965.729431,1384.370850 
	C968.318848,1366.431885 966.109985,1348.464722 961.343384,1331.239868 
	C948.704285,1285.566895 920.772583,1252.129883 877.511902,1232.384766 
	C870.341980,1229.112427 862.909485,1223.963013 852.106262,1225.900757 
	C850.408630,1225.100220 848.710999,1224.299683 846.922485,1222.974976 
	C846.661133,1222.588501 846.354797,1222.549194 845.411072,1221.258789 
	C842.750549,1209.489014 840.090088,1197.719360 837.530518,1184.843506 
	C837.059692,1183.884644 836.588867,1182.925903 836.174011,1180.933960 
	C836.012268,1180.629272 835.850525,1180.324707 835.453369,1178.539185 
	C833.766663,1174.254517 832.079895,1169.969727 830.354187,1164.369629 
	C828.197510,1159.698608 826.040833,1155.027466 823.919128,1150.130493 
	C823.919128,1150.130493 823.692749,1150.099243 823.562073,1148.998413 
	C823.095764,1148.446045 822.629456,1147.893677 822.195007,1146.593628 
	C822.195007,1146.593628 821.698547,1146.033691 821.626587,1144.771729 
	C820.470398,1143.115845 819.314270,1141.459961 818.063171,1139.949219 
	C818.063171,1139.949219 818.218201,1139.871460 818.054810,1138.603882 
	C817.426575,1137.530396 816.798340,1136.457031 816.208252,1134.674194 
	C816.208252,1134.674194 815.713318,1134.164551 815.643005,1132.889404 
	C814.554749,1131.673462 813.466492,1130.457642 812.289246,1128.491333 
	C812.289246,1128.491333 811.729004,1127.984253 811.727539,1126.633667 
	C809.891785,1124.183838 808.056030,1121.733887 806.132874,1118.202881 
	C805.804260,1117.565796 805.475647,1116.928711 805.051636,1115.130981 
	C804.092407,1114.530396 803.133118,1113.929688 802.088867,1112.573853 
	C802.088867,1112.573853 801.536011,1112.052246 801.540894,1111.035400 
	C801.065002,1110.592896 800.589111,1110.150513 800.062805,1109.915771 
	C800.062805,1109.915771 800.271118,1109.963745 800.179810,1108.766235 
	C799.434570,1107.920410 798.689331,1107.074585 797.944214,1106.066040 
	C797.944214,1106.066040 797.781555,1106.068115 797.525574,1105.130249 
	C797.152161,1104.545654 796.622925,1104.198608 796.005249,1104.006836 
	C796.005249,1104.006836 795.924377,1104.071411 795.676086,1102.884399 
	C794.371521,1101.408569 793.066956,1099.932739 791.791748,1098.177612 
	C791.791748,1098.177612 791.511902,1098.154053 791.369141,1097.238647 
	C791.060120,1096.651855 790.582031,1096.286133 790.010132,1096.045044 
	C790.010132,1096.045044 789.889893,1096.067749 789.668762,1094.796631 
	C787.856689,1092.994873 786.044678,1091.192993 784.165955,1088.539185 
	C784.165955,1088.539185 783.570435,1087.926270 783.323669,1086.822144 
	C782.311035,1086.357910 781.298401,1085.893799 780.292297,1085.698242 
	C780.292297,1085.698242 780.560486,1085.681152 780.227417,1084.594360 
	C779.692810,1084.079346 779.158264,1083.564453 778.629822,1083.368896 
	C778.629822,1083.368896 778.948120,1083.340210 778.536926,1082.310913 
	C777.647034,1081.730225 776.757141,1081.149536 775.397705,1079.946167 
	C775.397705,1079.946167 774.634033,1079.788330 774.341919,1078.643433 
	C773.822632,1078.072632 773.303345,1077.501831 772.821899,1077.177246 
	C772.821899,1077.177246 773.061951,1077.110840 772.524170,1076.147095 
	C771.636597,1075.554199 770.749084,1074.961304 769.863892,1074.135498 
	C769.863892,1074.135498 769.631042,1074.138062 769.350525,1073.068115 
	C768.518127,1072.352051 767.685791,1071.636108 766.809998,1071.142212 
	C766.809998,1071.142212 767.035950,1071.156372 766.336243,1070.208984 
	C765.616577,1069.917725 764.896973,1069.626343 763.937927,1068.297241 
	C763.190430,1067.594971 762.442871,1066.892578 761.188782,1065.136353 
	C760.133789,1064.687622 759.078857,1064.238770 758.046265,1063.936646 
	C758.046265,1063.936646 758.192688,1063.912231 757.726746,1062.718140 
	C755.487305,1060.787231 753.247864,1058.856445 750.755249,1057.799683 
	C750.755249,1057.799683 750.953369,1056.913086 750.249329,1056.101562 
	C749.576965,1055.875610 748.904541,1055.649536 748.257141,1055.701416 
M1683.654785,1320.620972 
	C1690.312744,1288.825928 1689.285522,1257.144897 1680.821411,1225.918091 
	C1671.526489,1191.625854 1653.134888,1162.794067 1625.273438,1140.541870 
	C1609.061279,1127.593628 1590.955933,1118.257812 1570.630371,1112.753784 
	C1552.626465,1107.878418 1534.531982,1107.489502 1516.231323,1107.705200 
	C1485.278198,1108.069824 1457.598755,1117.944092 1433.068359,1136.682495 
	C1427.934448,1140.604370 1423.203369,1145.053467 1416.232544,1151.016724 
	C1416.232544,1137.521973 1416.232544,1126.464355 1416.232544,1114.341309 
	C1391.361694,1114.388184 1367.963867,1113.864380 1344.804443,1114.668091 
	C1342.564697,1129.901123 1343.325317,1556.121826 1345.389648,1563.226440 
	C1358.145020,1565.425537 1412.723145,1564.738403 1420.172119,1562.057251 
	C1420.538940,1513.604492 1420.023804,1464.891357 1420.461426,1415.180664 
	C1422.744507,1416.566040 1423.610107,1416.996216 1424.367554,1417.569092 
	C1426.488770,1419.174072 1428.615234,1420.778809 1430.651855,1422.488281 
	C1449.220337,1438.070923 1470.621094,1447.741821 1494.577515,1450.307129 
	C1511.040649,1452.070190 1527.788940,1452.293945 1544.355103,1451.694214 
	C1566.639893,1450.887451 1587.510132,1443.857056 1606.552856,1432.401611 
	C1648.450317,1407.197388 1673.468506,1369.954834 1683.654785,1320.620972 
M1784.140015,1424.936035 
	C1823.406372,1450.712891 1866.710083,1456.643555 1912.264282,1450.439331 
	C1921.721313,1449.151123 1931.021606,1446.256714 1940.198853,1443.461304 
	C1962.533447,1436.657959 1981.756348,1424.363770 1999.181274,1409.049316 
	C2022.153564,1388.859253 2039.272339,1364.639404 2048.329590,1335.324585 
	C2051.935303,1323.653931 2054.227539,1311.486206 2056.041992,1299.383545 
	C2057.412354,1290.244385 2057.653320,1280.827759 2057.317383,1271.573975 
	C2057.030762,1263.682495 2055.094238,1255.861450 2054.081299,1247.984253 
	C2051.050049,1224.408813 2042.192261,1203.013672 2028.488281,1183.878174 
	C2020.789795,1173.128418 2011.928345,1163.004272 2002.433350,1153.791138 
	C1982.034668,1133.998413 1957.712280,1120.766602 1930.220215,1113.223511 
	C1913.014404,1108.502563 1895.577515,1107.600708 1877.856201,1107.557861 
	C1848.653564,1107.486816 1821.256958,1113.659302 1795.693726,1127.993164 
	C1749.211914,1154.056519 1719.938354,1192.814697 1709.697021,1245.235596 
	C1706.714722,1260.500244 1707.027466,1276.119385 1707.374878,1291.791626 
	C1708.103027,1324.628906 1719.090698,1353.726685 1737.442749,1380.090454 
	C1749.600708,1397.555786 1765.064087,1412.239624 1784.140015,1424.936035 
M1227.354248,1251.634644 
	C1214.451050,1246.388306 1201.401001,1241.470337 1188.692261,1235.789062 
	C1179.010742,1231.460938 1169.203491,1226.996826 1160.442627,1221.117432 
	C1144.409424,1210.357788 1146.141968,1187.797241 1163.516357,1179.725098 
	C1169.979858,1176.722290 1177.476807,1174.821167 1184.588501,1174.532104 
	C1213.574829,1173.353271 1238.674927,1183.023438 1259.480347,1203.472534 
	C1261.316406,1205.277100 1263.549927,1206.677612 1265.331299,1208.058350 
	C1266.544678,1207.665527 1267.384033,1207.656250 1267.759155,1207.234253 
	C1280.111572,1193.339966 1292.440552,1179.424561 1304.716797,1165.462769 
	C1307.249634,1162.582275 1307.351562,1159.460083 1304.853760,1156.427856 
	C1302.950195,1154.116943 1301.112671,1151.734009 1299.035034,1149.586914 
	C1276.467041,1126.261963 1248.635620,1112.604858 1216.826660,1108.781982 
	C1194.113281,1106.052246 1171.032471,1105.971313 1148.431274,1112.325806 
	C1125.328735,1118.821411 1105.296387,1130.193726 1090.678345,1149.288940 
	C1072.136963,1173.509399 1070.334839,1201.258911 1076.721802,1229.999878 
	C1077.998413,1235.744019 1080.360474,1241.433960 1083.204712,1246.608765 
	C1093.013794,1264.456177 1108.613525,1276.610474 1126.093262,1285.757080 
	C1145.166138,1295.737061 1165.236572,1303.806152 1184.839844,1312.778809 
	C1198.414917,1318.992188 1212.249634,1324.452148 1224.982056,1332.656982 
	C1240.968018,1342.958496 1239.323120,1366.421387 1223.609741,1376.174194 
	C1209.112915,1385.171997 1193.081421,1387.881104 1176.604126,1384.959473 
	C1151.075562,1380.432983 1129.182739,1368.295898 1110.539429,1350.290771 
	C1106.325928,1346.221558 1102.041260,1342.226074 1098.042603,1338.436523 
	C1096.656982,1339.027222 1095.879639,1339.128052 1095.463745,1339.569458 
	C1081.812012,1354.055298 1068.151855,1368.533813 1054.616821,1383.128296 
	C1052.482544,1385.429810 1053.269287,1388.072754 1055.172729,1390.374146 
	C1058.564941,1394.475098 1061.666748,1398.854736 1065.358887,1402.663330 
	C1091.190674,1429.309692 1122.172119,1446.754517 1159.208374,1450.944580 
	C1194.598877,1454.948242 1229.729126,1453.976318 1262.130005,1435.763794 
	C1278.728516,1426.433838 1292.139893,1414.110962 1301.253662,1397.192627 
	C1310.934814,1379.220581 1313.132080,1359.833740 1311.423950,1340.070435 
	C1309.455933,1317.301514 1299.614380,1298.401367 1281.763184,1283.396118 
	C1265.757935,1269.942627 1247.582520,1260.629028 1227.354248,1251.634644 
M2267.009277,1182.308960 
	C2278.999756,1182.308838 2290.990723,1182.344727 2302.980957,1182.298462 
	C2314.838867,1182.252686 2326.696533,1182.123901 2338.242432,1182.033936 
	C2340.700195,1169.239380 2340.178467,1115.561157 2337.800781,1108.579468 
	C2324.988037,1106.766724 2058.843262,1107.374512 2051.559814,1109.233032 
	C2049.417480,1119.810181 2049.812744,1174.182739 2052.374023,1182.308594 
	C2063.357422,1182.308594 2074.645020,1182.308716 2085.932617,1182.308716 
	C2097.257080,1182.308716 2108.583008,1182.189331 2119.905273,1182.342529 
	C2131.083984,1182.493774 2142.327393,1181.646729 2154.599121,1183.030518 
	C2154.599121,1271.536743 2154.599121,1358.969604 2154.599121,1446.128784 
	C2166.515869,1448.688232 2227.859131,1448.198975 2235.712158,1445.458740 
	C2235.712158,1423.825073 2235.712158,1401.880615 2235.712158,1379.936157 
	C2235.712158,1358.286621 2235.712158,1336.637207 2235.712158,1314.987671 
	C2235.712158,1293.005127 2235.692383,1271.022461 2235.717773,1249.039917 
	C2235.742676,1227.193848 2235.812988,1205.347778 2235.866211,1182.309326 
	C2246.524414,1182.309326 2255.769287,1182.309326 2267.009277,1182.308960 
z"/>
<path fill="#0087FE" opacity="1.000000" stroke="none" 
	d="
M719.824341,1484.143677 
	C705.880981,1493.360352 690.413757,1499.346069 674.894287,1505.175659 
	C654.982971,1512.654907 634.130371,1516.700317 613.203552,1519.216919 
	C597.092163,1521.154419 580.617126,1520.260986 564.303528,1520.270996 
	C546.989990,1520.281494 529.676636,1519.748901 512.362244,1519.675781 
	C485.371124,1519.562012 458.347687,1520.452515 431.396088,1519.411255 
	C401.485565,1518.255859 372.292603,1512.784668 344.903229,1499.685547 
	C302.492523,1479.402222 270.348633,1448.454224 248.900848,1406.770020 
	C235.393402,1380.517944 228.020065,1352.437012 227.644943,1322.699585 
	C227.409729,1304.053345 227.585388,1285.385742 231.777481,1267.156738 
	C238.542953,1237.737549 251.160217,1210.959229 269.731720,1187.033569 
	C287.462189,1164.191284 309.011139,1145.806396 334.526123,1132.351685 
	C344.994873,1126.831299 356.088196,1122.250000 367.323425,1118.527344 
	C373.324860,1116.538818 374.772461,1111.407715 379.016876,1108.409912 
	C375.983124,1120.083984 381.013763,1122.687012 388.173523,1126.022217 
	C396.016571,1129.675659 403.890289,1133.266846 411.802002,1136.769165 
	C451.357178,1154.279419 490.940826,1171.725464 530.491089,1189.246948 
	C555.743530,1200.434326 580.948853,1211.728149 606.187500,1222.946655 
	C628.992310,1233.083496 651.734802,1243.366455 674.661865,1253.219360 
	C685.621155,1257.929199 696.944458,1261.791992 707.800171,1266.637451 
	C702.687012,1273.627808 697.876587,1280.019287 692.558044,1286.895752 
	C689.878357,1290.724365 687.520569,1293.962891 685.562866,1297.427368 
	C651.331726,1358.002686 664.373230,1436.922363 719.962524,1483.112793 
	C719.986511,1483.462158 719.824341,1484.143677 719.824341,1484.143677 
z"/>
<path fill="#1E1E99" opacity="1.000000" stroke="none" 
	d="
M1683.515381,1321.459717 
	C1673.468506,1369.954834 1648.450317,1407.197388 1606.552856,1432.401611 
	C1587.510132,1443.857056 1566.639893,1450.887451 1544.355103,1451.694214 
	C1527.788940,1452.293945 1511.040649,1452.070190 1494.577515,1450.307129 
	C1470.621094,1447.741821 1449.220337,1438.070923 1430.651855,1422.488281 
	C1428.615234,1420.778809 1426.488770,1419.174072 1424.367554,1417.569092 
	C1423.610107,1416.996216 1422.744507,1416.566040 1420.461426,1415.180664 
	C1420.023804,1464.891357 1420.538940,1513.604492 1420.172119,1562.057251 
	C1412.723145,1564.738403 1358.145020,1565.425537 1345.389648,1563.226440 
	C1343.325317,1556.121826 1342.564697,1129.901123 1344.804443,1114.668091 
	C1367.963867,1113.864380 1391.361694,1114.388184 1416.232544,1114.341309 
	C1416.232544,1126.464355 1416.232544,1137.521973 1416.232544,1151.016724 
	C1423.203369,1145.053467 1427.934448,1140.604370 1433.068359,1136.682495 
	C1457.598755,1117.944092 1485.278198,1108.069824 1516.231323,1107.705200 
	C1534.531982,1107.489502 1552.626465,1107.878418 1570.630371,1112.753784 
	C1590.955933,1118.257812 1609.061279,1127.593628 1625.273438,1140.541870 
	C1653.134888,1162.794067 1671.526489,1191.625854 1680.821411,1225.918091 
	C1689.285522,1257.144897 1690.312744,1288.825928 1683.515381,1321.459717 
M1531.187622,1179.266235 
	C1527.228149,1178.830078 1523.278442,1178.168579 1519.307495,1177.993652 
	C1488.982056,1176.657593 1463.024536,1186.648315 1442.550415,1209.146851 
	C1434.773438,1217.692871 1427.695557,1227.113892 1427.776855,1239.879150 
	C1427.946533,1266.543457 1427.735352,1293.210449 1427.930908,1319.874390 
	C1427.959473,1323.764893 1428.640869,1327.979980 1430.255737,1331.473755 
	C1438.049805,1348.336670 1450.738892,1361.120850 1466.712280,1369.958618 
	C1491.775513,1383.825195 1518.294067,1386.416138 1545.570923,1376.581787 
	C1571.758179,1367.140259 1589.750122,1349.118652 1600.600586,1323.686157 
	C1608.953369,1304.108032 1610.260864,1283.646729 1607.516113,1262.895142 
	C1603.612549,1233.382202 1589.792725,1209.846191 1564.814087,1192.894287 
	C1554.935791,1186.190552 1544.047852,1182.764771 1531.187622,1179.266235 
z"/>
<path fill="#1E1E99" opacity="1.000000" stroke="none" 
	d="
M1783.536255,1424.530518 
	C1765.064087,1412.239624 1749.600708,1397.555786 1737.442749,1380.090454 
	C1719.090698,1353.726685 1708.103027,1324.628906 1707.374878,1291.791626 
	C1707.027466,1276.119385 1706.714722,1260.500244 1709.697021,1245.235596 
	C1719.938354,1192.814697 1749.211914,1154.056519 1795.693726,1127.993164 
	C1821.256958,1113.659302 1848.653564,1107.486816 1877.856201,1107.557861 
	C1895.577515,1107.600708 1913.014404,1108.502563 1930.220215,1113.223511 
	C1957.712280,1120.766602 1982.034668,1133.998413 2002.433350,1153.791138 
	C2011.928345,1163.004272 2020.789795,1173.128418 2028.488281,1183.878174 
	C2042.192261,1203.013672 2051.050049,1224.408813 2054.081299,1247.984253 
	C2055.094238,1255.861450 2057.030762,1263.682495 2057.317383,1271.573975 
	C2057.653320,1280.827759 2057.412354,1290.244385 2056.041992,1299.383545 
	C2054.227539,1311.486206 2051.935303,1323.653931 2048.329590,1335.324585 
	C2039.272339,1364.639404 2022.153564,1388.859253 1999.181274,1409.049316 
	C1981.756348,1424.363770 1962.533447,1436.657959 1940.198853,1443.461304 
	C1931.021606,1446.256714 1921.721313,1449.151123 1912.264282,1450.439331 
	C1866.710083,1456.643555 1823.406372,1450.712891 1783.536255,1424.530518 
M1970.039429,1237.318359 
	C1969.270142,1235.849121 1968.437378,1234.409302 1967.740723,1232.906250 
	C1958.602539,1213.185059 1944.248291,1198.238892 1924.959351,1188.591309 
	C1903.164795,1177.690430 1880.417969,1174.695923 1856.399902,1181.631592 
	C1821.837769,1191.612183 1800.229370,1214.326416 1789.331543,1247.802368 
	C1782.244141,1269.574097 1782.542847,1291.620239 1789.653931,1313.423340 
	C1800.913330,1347.945679 1823.946045,1371.207764 1859.245483,1379.292114 
	C1894.804565,1387.435913 1926.442993,1377.629150 1951.662354,1350.520874 
	C1964.796387,1336.403198 1973.333496,1319.781738 1976.445068,1300.475098 
	C1979.851074,1279.341919 1978.369995,1258.780640 1970.039429,1237.318359 
z"/>
<path fill="#1E1E99" opacity="1.000000" stroke="none" 
	d="
M1228.073242,1251.885132 
	C1247.582520,1260.629028 1265.757935,1269.942627 1281.763184,1283.396118 
	C1299.614380,1298.401367 1309.455933,1317.301514 1311.423950,1340.070435 
	C1313.132080,1359.833740 1310.934814,1379.220581 1301.253662,1397.192627 
	C1292.139893,1414.110962 1278.728516,1426.433838 1262.130005,1435.763794 
	C1229.729126,1453.976318 1194.598877,1454.948242 1159.208374,1450.944580 
	C1122.172119,1446.754517 1091.190674,1429.309692 1065.358887,1402.663330 
	C1061.666748,1398.854736 1058.564941,1394.475098 1055.172729,1390.374146 
	C1053.269287,1388.072754 1052.482544,1385.429810 1054.616821,1383.128296 
	C1068.151855,1368.533813 1081.812012,1354.055298 1095.463745,1339.569458 
	C1095.879639,1339.128052 1096.656982,1339.027222 1098.042603,1338.436523 
	C1102.041260,1342.226074 1106.325928,1346.221558 1110.539429,1350.290771 
	C1129.182739,1368.295898 1151.075562,1380.432983 1176.604126,1384.959473 
	C1193.081421,1387.881104 1209.112915,1385.171997 1223.609741,1376.174194 
	C1239.323120,1366.421387 1240.968018,1342.958496 1224.982056,1332.656982 
	C1212.249634,1324.452148 1198.414917,1318.992188 1184.839844,1312.778809 
	C1165.236572,1303.806152 1145.166138,1295.737061 1126.093262,1285.757080 
	C1108.613525,1276.610474 1093.013794,1264.456177 1083.204712,1246.608765 
	C1080.360474,1241.433960 1077.998413,1235.744019 1076.721802,1229.999878 
	C1070.334839,1201.258911 1072.136963,1173.509399 1090.678345,1149.288940 
	C1105.296387,1130.193726 1125.328735,1118.821411 1148.431274,1112.325806 
	C1171.032471,1105.971313 1194.113281,1106.052246 1216.826660,1108.781982 
	C1248.635620,1112.604858 1276.467041,1126.261963 1299.035034,1149.586914 
	C1301.112671,1151.734009 1302.950195,1154.116943 1304.853760,1156.427856 
	C1307.351562,1159.460083 1307.249634,1162.582275 1304.716797,1165.462769 
	C1292.440552,1179.424561 1280.111572,1193.339966 1267.759155,1207.234253 
	C1267.384033,1207.656250 1266.544678,1207.665527 1265.331299,1208.058350 
	C1263.549927,1206.677612 1261.316406,1205.277100 1259.480347,1203.472534 
	C1238.674927,1183.023438 1213.574829,1173.353271 1184.588501,1174.532104 
	C1177.476807,1174.821167 1169.979858,1176.722290 1163.516357,1179.725098 
	C1146.141968,1187.797241 1144.409424,1210.357788 1160.442627,1221.117432 
	C1169.203491,1226.996826 1179.010742,1231.460938 1188.692261,1235.789062 
	C1201.401001,1241.470337 1214.451050,1246.388306 1228.073242,1251.885132 
z"/>
<path fill="#009BFF" opacity="1.000000" stroke="none" 
	d="
M708.102844,1266.038452 
	C696.944458,1261.791992 685.621155,1257.929199 674.661865,1253.219360 
	C651.734802,1243.366455 628.992310,1233.083496 606.187500,1222.946655 
	C580.948853,1211.728149 555.743530,1200.434326 530.491089,1189.246948 
	C490.940826,1171.725464 451.357178,1154.279419 411.802002,1136.769165 
	C403.890289,1133.266846 396.016571,1129.675659 388.173523,1126.022217 
	C381.013763,1122.687012 375.983124,1120.083984 379.690002,1108.181152 
	C387.093018,1093.866455 397.730621,1082.964844 408.676392,1072.536133 
	C426.507660,1055.546875 446.337494,1041.109863 468.144653,1029.526123 
	C470.772186,1028.130371 473.627441,1027.163330 477.089905,1026.665771 
	C476.178284,1037.845581 476.210541,1037.771484 485.848572,1041.965576 
	C491.624878,1044.479248 497.225464,1047.396606 503.000916,1049.912109 
	C535.269165,1063.967041 567.619629,1077.834229 599.839783,1091.998047 
	C635.703247,1107.763428 671.477478,1123.732422 707.252441,1139.698120 
	C740.310791,1154.451538 773.221069,1169.542358 806.419434,1183.971680 
	C814.441406,1187.458374 822.056274,1192.826416 830.956055,1192.906738 
	C833.439575,1190.237549 835.434570,1188.093628 837.429565,1185.949585 
	C840.090088,1197.719360 842.750549,1209.489014 845.530029,1222.324219 
	C845.648987,1223.389648 846.007996,1223.922607 846.011108,1223.987793 
	C846.014221,1224.052856 845.884094,1224.043945 845.015869,1224.045654 
	C831.597351,1223.380005 819.013672,1221.786499 806.503967,1222.239014 
	C780.864197,1223.166504 756.879761,1230.167969 734.937744,1245.336914 
	C725.558411,1252.417847 716.830627,1259.228149 708.102844,1266.038452 
z"/>
<path fill="#1E1E99" opacity="1.000000" stroke="none" 
	d="
M2266.011719,1182.309082 
	C2255.769287,1182.309326 2246.524414,1182.309326 2235.866211,1182.309326 
	C2235.812988,1205.347778 2235.742676,1227.193848 2235.717773,1249.039917 
	C2235.692383,1271.022461 2235.712158,1293.005127 2235.712158,1314.987671 
	C2235.712158,1336.637207 2235.712158,1358.286621 2235.712158,1379.936157 
	C2235.712158,1401.880615 2235.712158,1423.825073 2235.712158,1445.458740 
	C2227.859131,1448.198975 2166.515869,1448.688232 2154.599121,1446.128784 
	C2154.599121,1358.969604 2154.599121,1271.536743 2154.599121,1183.030518 
	C2142.327393,1181.646729 2131.083984,1182.493774 2119.905273,1182.342529 
	C2108.583008,1182.189331 2097.257080,1182.308716 2085.932617,1182.308716 
	C2074.645020,1182.308716 2063.357422,1182.308594 2052.374023,1182.308594 
	C2049.812744,1174.182739 2049.417480,1119.810181 2051.559814,1109.233032 
	C2058.843262,1107.374512 2324.988037,1106.766724 2337.800781,1108.579468 
	C2340.178467,1115.561157 2340.700195,1169.239380 2338.242432,1182.033936 
	C2326.696533,1182.123901 2314.838867,1182.252686 2302.980957,1182.298462 
	C2290.990723,1182.344727 2278.999756,1182.308838 2266.011719,1182.309082 
z"/>
<path fill="#00A8FE" opacity="1.000000" stroke="none" 
	d="
M837.479980,1185.396484 
	C835.434570,1188.093628 833.439575,1190.237549 830.956055,1192.906738 
	C822.056274,1192.826416 814.441406,1187.458374 806.419434,1183.971680 
	C773.221069,1169.542358 740.310791,1154.451538 707.252441,1139.698120 
	C671.477478,1123.732422 635.703247,1107.763428 599.839783,1091.998047 
	C567.619629,1077.834229 535.269165,1063.967041 503.000916,1049.912109 
	C497.225464,1047.396606 491.624878,1044.479248 485.848572,1041.965576 
	C476.210541,1037.771484 476.178284,1037.845581 477.809082,1026.568604 
	C477.815521,1025.803101 477.934052,1025.862793 478.304138,1025.677979 
	C479.221130,1025.150269 479.699524,1024.729248 480.109406,1024.230469 
	C480.109406,1024.230469 480.679504,1023.730530 481.681335,1023.726440 
	C483.808319,1023.205872 484.933502,1022.689331 486.058716,1022.172729 
	C487.009583,1021.572754 487.960419,1020.972717 489.864807,1020.526367 
	C491.907440,1019.903442 492.996521,1019.126709 494.085571,1018.349976 
	C496.667358,1017.443787 499.249115,1016.537598 503.353943,1015.649414 
	C506.513092,1015.418518 508.170715,1015.265930 509.781860,1014.905579 
	C524.657104,1011.578613 539.502441,1008.113770 554.404907,1004.914734 
	C560.174622,1003.676147 566.068298,1003.015564 571.905518,1002.091675 
	C582.690796,1001.978577 593.476074,1001.865479 605.884033,1002.311707 
	C614.881714,1003.301208 622.256653,1003.731384 629.631592,1004.161499 
	C630.046814,1004.234924 630.461975,1004.308411 632.107788,1004.919983 
	C645.003357,1008.623169 656.651978,1011.851257 668.346680,1014.902710 
	C670.840759,1015.553528 673.502380,1015.561890 676.086853,1015.866272 
	C676.086853,1015.866272 676.093262,1015.935608 676.580444,1016.418396 
	C680.589966,1017.994995 684.112305,1019.088745 687.634583,1020.182556 
	C688.006531,1020.251465 688.378479,1020.320312 689.585815,1021.236145 
	C694.971008,1024.040405 699.520813,1025.997559 704.070557,1027.954834 
	C704.070557,1027.954834 704.013916,1028.013184 704.473389,1028.374512 
	C706.079834,1029.058228 707.226685,1029.380493 708.373535,1029.702881 
	C708.373535,1029.702881 708.188599,1029.768311 708.522461,1030.113770 
	C709.495911,1030.853394 710.135498,1031.247559 710.775085,1031.641724 
	C710.775085,1031.641724 711.485352,1031.609009 712.152588,1032.373291 
	C714.818726,1033.813232 716.817566,1034.489014 718.816467,1035.164673 
	C718.816467,1035.164673 718.497498,1035.313721 718.831421,1035.725342 
	C719.925293,1036.651978 720.685242,1037.166870 721.445251,1037.681885 
	C721.445251,1037.681885 721.752625,1037.503662 722.228394,1038.203125 
	C725.056763,1039.995483 727.409363,1041.088135 729.761963,1042.180908 
	C730.437012,1042.226562 731.014648,1042.487671 732.082520,1043.969604 
	C735.273071,1046.534058 737.875854,1048.093262 740.478638,1049.652588 
	C740.478638,1049.652588 740.249268,1049.670532 740.514404,1050.158447 
	C742.558594,1051.749390 744.337769,1052.852539 746.116882,1053.955688 
	C746.116882,1053.955688 746.014221,1054.013428 746.362305,1054.340820 
	C747.318176,1055.000977 747.926025,1055.333740 748.533875,1055.666626 
	C748.533875,1055.666626 748.257141,1055.701416 748.608093,1055.958984 
	C749.623840,1056.448608 750.288574,1056.680908 750.953369,1056.913086 
	C750.953369,1056.913086 750.755249,1057.799683 750.952637,1058.045898 
	C753.497559,1060.165405 755.845154,1062.038818 758.192688,1063.912231 
	C758.192688,1063.912231 758.046265,1063.936646 758.379761,1064.314697 
	C759.707275,1065.191895 760.701294,1065.691040 761.695312,1066.190308 
	C762.442871,1066.892578 763.190430,1067.594971 764.434998,1069.256836 
	C765.633362,1070.529663 766.334656,1070.843018 767.035950,1071.156372 
	C767.035950,1071.156372 766.809998,1071.142212 766.965210,1071.583740 
	C767.957336,1072.729492 768.794189,1073.433838 769.631042,1074.138062 
	C769.631042,1074.138062 769.863892,1074.135498 770.083862,1074.766846 
	C771.223267,1075.969116 772.142639,1076.539917 773.061951,1077.110840 
	C773.061951,1077.110840 772.821899,1077.177246 772.973267,1077.615601 
	C773.627747,1078.632080 774.130920,1079.210205 774.634033,1079.788330 
	C774.634033,1079.788330 775.397705,1079.946167 775.850952,1080.760254 
	C777.185486,1082.163086 778.066772,1082.751587 778.948120,1083.340210 
	C778.948120,1083.340210 778.629822,1083.368896 778.812073,1083.743408 
	C779.516357,1084.638916 780.038452,1085.160034 780.560486,1085.681152 
	C780.560486,1085.681152 780.292297,1085.698242 780.563049,1086.028320 
	C781.745972,1086.880981 782.658203,1087.403687 783.570435,1087.926270 
	C783.570435,1087.926270 784.165955,1088.539185 784.262207,1089.648682 
	C786.202209,1092.528076 788.046021,1094.297852 789.889893,1096.067749 
	C789.889893,1096.067749 790.010132,1096.045044 790.132263,1096.502075 
	C790.554199,1097.483032 790.973389,1097.881348 791.511902,1098.154053 
	C791.511902,1098.154053 791.791748,1098.177612 791.861084,1098.946777 
	C793.261719,1101.167847 794.593018,1102.619629 795.924377,1104.071411 
	C795.924377,1104.071411 796.005249,1104.006836 796.187622,1104.456421 
	C796.737671,1105.418335 797.208191,1105.805786 797.781555,1106.068115 
	C797.781555,1106.068115 797.944214,1106.066040 798.085876,1106.693359 
	C798.908752,1108.201782 799.589966,1109.082764 800.271118,1109.963745 
	C800.271118,1109.963745 800.062805,1109.915771 800.225342,1110.258057 
	C800.655640,1111.175171 801.038330,1111.659058 801.536011,1112.052246 
	C801.536011,1112.052246 802.088867,1112.573853 802.360596,1113.442871 
	C803.470520,1114.971802 804.308777,1115.631714 805.147095,1116.291626 
	C805.475647,1116.928711 805.804260,1117.565796 806.345215,1119.388672 
	C808.281311,1123.044434 810.005188,1125.514404 811.729004,1127.984253 
	C811.729004,1127.984253 812.289246,1128.491333 812.408203,1129.494873 
	C813.589172,1131.720337 814.651245,1132.942505 815.713318,1134.164551 
	C815.713318,1134.164551 816.208252,1134.674194 816.251160,1135.667725 
	C816.935425,1137.731201 817.576782,1138.801392 818.218201,1139.871460 
	C818.218201,1139.871460 818.063171,1139.949219 818.182190,1140.493408 
	C819.433655,1142.703003 820.566101,1144.368408 821.698547,1146.033691 
	C821.698547,1146.033691 822.195007,1146.593628 822.322144,1147.485352 
	C822.863831,1148.951050 823.278259,1149.525146 823.692749,1150.099243 
	C823.692749,1150.099243 823.919128,1150.130493 823.948669,1150.936035 
	C826.116516,1156.389404 828.254883,1161.037231 830.393188,1165.685059 
	C832.079895,1169.969727 833.766663,1174.254517 835.441223,1179.536133 
	C835.341431,1181.152344 835.571106,1181.630493 836.118042,1181.967163 
	C836.588867,1182.925903 837.059692,1183.884644 837.479980,1185.396484 
z"/>
<path fill="#FE00CE" opacity="1.000000" stroke="none" 
	d="
M720.220825,1484.685791 
	C719.824341,1484.143677 719.986511,1483.462158 720.620605,1482.798462 
	C745.317261,1467.533569 766.814026,1449.865356 785.017578,1428.344971 
	C803.607422,1406.368042 819.081482,1382.497314 829.108154,1354.530273 
	C833.682373,1341.285889 837.781311,1328.629761 842.526855,1316.204834 
	C843.970947,1317.012573 845.190674,1317.419434 845.500610,1318.191528 
	C848.597839,1325.908569 855.027832,1329.326050 862.149353,1332.691040 
	C875.602844,1339.048340 888.599670,1346.367310 901.833862,1353.194580 
	C919.468811,1362.291992 937.127136,1371.344971 954.840393,1380.288574 
	C956.847290,1381.301880 959.272888,1381.485962 961.603638,1382.839844 
	C960.358887,1399.799927 955.931580,1415.191162 949.933472,1430.193115 
	C948.493835,1433.793701 947.243591,1437.470093 945.906189,1441.111572 
	C933.495300,1460.931030 919.092651,1478.928589 899.382629,1492.091431 
	C875.731140,1507.886719 850.012451,1517.314819 821.295044,1517.682129 
	C804.680786,1517.894531 788.336426,1517.000366 772.167542,1512.135376 
	C753.153259,1506.414307 736.029358,1497.591797 720.220825,1484.685791 
z"/>
<path fill="#FE01D8" opacity="1.000000" stroke="none" 
	d="
M961.504395,1382.054443 
	C959.272888,1381.485962 956.847290,1381.301880 954.840393,1380.288574 
	C937.127136,1371.344971 919.468811,1362.291992 901.833862,1353.194580 
	C888.599670,1346.367310 875.602844,1339.048340 862.149353,1332.691040 
	C855.027832,1329.326050 848.597839,1325.908569 845.500610,1318.191528 
	C845.190674,1317.419434 843.970947,1317.012573 842.496643,1315.367798 
	C842.499023,1308.850098 843.178223,1303.400757 844.173462,1297.209473 
	C847.591187,1277.698975 847.938721,1258.843994 846.438538,1239.909180 
	C846.020996,1234.639160 846.056458,1229.333374 845.884094,1224.043945 
	C845.884094,1224.043945 846.014221,1224.052856 846.325989,1224.032837 
	C846.637756,1224.012817 847.013306,1223.499268 847.013306,1223.499268 
	C848.710999,1224.299683 850.408630,1225.100220 853.400696,1226.501953 
	C856.872681,1227.897217 859.025635,1228.768188 861.231323,1229.474487 
	C920.469849,1248.444824 968.170593,1309.486450 961.504395,1382.054443 
z"/>
<path fill="#E8C5E3" opacity="1.000000" stroke="none" 
	d="
M961.603638,1382.839844 
	C968.170593,1309.486450 920.469849,1248.444824 861.231323,1229.474487 
	C859.025635,1228.768188 856.872681,1227.897217 854.332092,1226.689819 
	C862.909485,1223.963013 870.341980,1229.112427 877.511902,1232.384766 
	C920.772583,1252.129883 948.704285,1285.566895 961.343384,1331.239868 
	C966.109985,1348.464722 968.318848,1366.431885 965.729431,1384.370850 
	C962.886780,1404.063721 958.551514,1423.425293 946.541687,1440.739502 
	C947.243591,1437.470093 948.493835,1433.793701 949.933472,1430.193115 
	C955.931580,1415.191162 960.358887,1399.799927 961.603638,1382.839844 
z"/>
<path fill="#0087FE" opacity="1.000000" stroke="none" 
	d="
M571.170227,1001.899536 
	C566.068298,1003.015564 560.174622,1003.676147 554.404907,1004.914734 
	C539.502441,1008.113770 524.657104,1011.578613 509.781860,1014.905579 
	C508.170715,1015.265930 506.513092,1015.418518 504.050964,1015.656860 
	C503.927460,1014.985291 504.527832,1013.935791 505.347534,1013.720154 
	C526.741211,1008.093384 547.839172,1000.819336 571.170227,1001.899536 
z"/>
<path fill="#0087FE" opacity="1.000000" stroke="none" 
	d="
M675.679016,1015.288696 
	C673.502380,1015.561890 670.840759,1015.553528 668.346680,1014.902710 
	C656.651978,1011.851257 645.003357,1008.623169 632.705994,1005.125061 
	C638.569946,1005.729187 645.173340,1006.213318 651.535461,1007.717773 
	C659.550415,1009.613037 667.368286,1012.341858 675.679016,1015.288696 
z"/>
<path fill="#0087FE" opacity="1.000000" stroke="none" 
	d="
M629.176331,1003.574280 
	C622.256653,1003.731384 614.881714,1003.301208 606.814331,1002.478516 
	C613.654907,1002.386414 621.187988,1002.686707 629.176331,1003.574280 
z"/>
<path fill="#0087FE" opacity="1.000000" stroke="none" 
	d="
M830.373657,1165.027344 
	C828.254883,1161.037231 826.116516,1156.389404 823.931152,1151.049072 
	C826.040833,1155.027466 828.197510,1159.698608 830.373657,1165.027344 
z"/>
<path fill="#0087FE" opacity="1.000000" stroke="none" 
	d="
M703.663757,1027.429443 
	C699.520813,1025.997559 694.971008,1024.040405 690.071533,1021.529541 
	C694.233459,1022.952026 698.745239,1024.928101 703.663757,1027.429443 
z"/>
<path fill="#0087FE" opacity="1.000000" stroke="none" 
	d="
M740.165161,1049.066040 
	C737.875854,1048.093262 735.273071,1046.534058 732.332153,1044.383789 
	C734.613342,1045.354980 737.232544,1046.917236 740.165161,1049.066040 
z"/>
<path fill="#0087FE" opacity="1.000000" stroke="none" 
	d="
M757.959717,1063.315186 
	C755.845154,1062.038818 753.497559,1060.165405 751.079224,1057.608765 
	C753.247864,1058.856445 755.487305,1060.787231 757.959717,1063.315186 
z"/>
<path fill="#0087FE" opacity="1.000000" stroke="none" 
	d="
M687.254883,1019.602539 
	C684.112305,1019.088745 680.589966,1017.994995 676.609131,1016.398376 
	C679.725403,1016.937866 683.300293,1017.980164 687.254883,1019.602539 
z"/>
<path fill="#0087FE" opacity="1.000000" stroke="none" 
	d="
M789.779297,1095.432129 
	C788.046021,1094.297852 786.202209,1092.528076 784.295532,1090.074707 
	C786.044678,1091.192993 787.856689,1092.994873 789.779297,1095.432129 
z"/>
<path fill="#0087FE" opacity="1.000000" stroke="none" 
	d="
M729.427002,1041.605957 
	C727.409363,1041.088135 725.056763,1039.995483 722.324707,1038.352539 
	C724.327515,1038.878540 726.709778,1039.954834 729.427002,1041.605957 
z"/>
<path fill="#0087FE" opacity="1.000000" stroke="none" 
	d="
M811.728271,1127.308960 
	C810.005188,1125.514404 808.281311,1123.044434 806.388916,1119.929321 
	C808.056030,1121.733887 809.891785,1124.183838 811.728271,1127.308960 
z"/>
<path fill="#0087FE" opacity="1.000000" stroke="none" 
	d="
M718.408691,1034.663330 
	C716.817566,1034.489014 714.818726,1033.813232 712.419800,1032.607666 
	C714.013489,1032.772583 716.007141,1033.467285 718.408691,1034.663330 
z"/>
<path fill="#0087FE" opacity="1.000000" stroke="none" 
	d="
M821.662598,1145.402710 
	C820.566101,1144.368408 819.433655,1142.703003 818.229675,1140.420898 
	C819.314270,1141.459961 820.470398,1143.115845 821.662598,1145.402710 
z"/>
<path fill="#0087FE" opacity="1.000000" stroke="none" 
	d="
M795.800232,1103.477905 
	C794.593018,1102.619629 793.261719,1101.167847 791.846375,1099.086426 
	C793.066956,1099.932739 794.371521,1101.408569 795.800232,1103.477905 
z"/>
<path fill="#0087FE" opacity="1.000000" stroke="none" 
	d="
M815.678162,1133.526978 
	C814.651245,1132.942505 813.589172,1131.720337 812.452637,1129.869995 
	C813.466492,1130.457642 814.554749,1131.673462 815.678162,1133.526978 
z"/>
<path fill="#009BFF" opacity="1.000000" stroke="none" 
	d="
M493.477722,1018.321899 
	C492.996521,1019.126709 491.907440,1019.903442 490.420959,1020.435425 
	C490.972351,1019.558411 491.921143,1018.926086 493.477722,1018.321899 
z"/>
<path fill="#0087FE" opacity="1.000000" stroke="none" 
	d="
M745.781067,1053.415894 
	C744.337769,1052.852539 742.558594,1051.749390 740.510742,1050.043457 
	C741.976379,1050.585693 743.710815,1051.730835 745.781067,1053.415894 
z"/>
<path fill="#0087FE" opacity="1.000000" stroke="none" 
	d="
M805.099365,1115.711304 
	C804.308777,1115.631714 803.470520,1114.971802 802.403076,1113.820435 
	C803.133118,1113.929688 804.092407,1114.530396 805.099365,1115.711304 
z"/>
<path fill="#0087FE" opacity="1.000000" stroke="none" 
	d="
M761.442017,1065.663330 
	C760.701294,1065.691040 759.707275,1065.191895 758.368591,1064.241211 
	C759.078857,1064.238770 760.133789,1064.687622 761.442017,1065.663330 
z"/>
<path fill="#0087FE" opacity="1.000000" stroke="none" 
	d="
M769.490784,1073.603027 
	C768.794189,1073.433838 767.957336,1072.729492 766.986938,1071.472656 
	C767.685791,1071.636108 768.518127,1072.352051 769.490784,1073.603027 
z"/>
<path fill="#0087FE" opacity="1.000000" stroke="none" 
	d="
M772.793091,1076.628906 
	C772.142639,1076.539917 771.223267,1075.969116 770.082703,1074.883301 
	C770.749084,1074.961304 771.636597,1075.554199 772.793091,1076.628906 
z"/>
<path fill="#0087FE" opacity="1.000000" stroke="none" 
	d="
M778.742554,1082.825562 
	C778.066772,1082.751587 777.185486,1082.163086 776.085693,1081.071655 
	C776.757141,1081.149536 777.647034,1081.730225 778.742554,1082.825562 
z"/>
<path fill="#0087FE" opacity="1.000000" stroke="none" 
	d="
M818.136475,1139.237671 
	C817.576782,1138.801392 816.935425,1137.731201 816.232056,1136.022339 
	C816.798340,1136.457031 817.426575,1137.530396 818.136475,1139.237671 
z"/>
<path fill="#0087FE" opacity="1.000000" stroke="none" 
	d="
M783.447021,1087.374268 
	C782.658203,1087.403687 781.745972,1086.880981 780.559814,1085.894043 
	C781.298401,1085.893799 782.311035,1086.357910 783.447021,1087.374268 
z"/>
<path fill="#009BFF" opacity="1.000000" stroke="none" 
	d="
M485.407715,1022.106079 
	C484.933502,1022.689331 483.808319,1023.205872 482.057465,1023.773804 
	C482.540100,1023.229980 483.648407,1022.634705 485.407715,1022.106079 
z"/>
<path fill="#0087FE" opacity="1.000000" stroke="none" 
	d="
M707.989868,1029.215820 
	C707.226685,1029.380493 706.079834,1029.058228 704.479492,1028.334839 
	C705.219421,1028.198730 706.412781,1028.463867 707.989868,1029.215820 
z"/>
<path fill="#0087FE" opacity="1.000000" stroke="none" 
	d="
M800.225464,1109.364990 
	C799.589966,1109.082764 798.908752,1108.201782 798.085815,1106.774780 
	C798.689331,1107.074585 799.434570,1107.920410 800.225464,1109.364990 
z"/>
<path fill="#0087FE" opacity="1.000000" stroke="none" 
	d="
M710.516968,1031.095459 
	C710.135498,1031.247559 709.495911,1030.853394 708.493286,1030.020020 
	C708.839783,1029.903809 709.549316,1030.226440 710.516968,1031.095459 
z"/>
<path fill="#0087FE" opacity="1.000000" stroke="none" 
	d="
M748.290344,1055.160156 
	C747.926025,1055.333740 747.318176,1055.000977 746.356567,1054.282227 
	C746.684143,1054.148682 747.365479,1054.401123 748.290344,1055.160156 
z"/>
<path fill="#0087FE" opacity="1.000000" stroke="none" 
	d="
M721.067383,1037.092773 
	C720.685242,1037.166870 719.925293,1036.651978 718.766479,1035.561768 
	C719.141541,1035.492188 719.915588,1035.998047 721.067383,1037.092773 
z"/>
<path fill="#0087FE" opacity="1.000000" stroke="none" 
	d="
M750.601318,1056.507324 
	C750.288574,1056.680908 749.623840,1056.448608 748.595581,1055.820068 
	C748.904541,1055.649536 749.576965,1055.875610 750.601318,1056.507324 
z"/>
<path fill="#2B2ABB" opacity="1.000000" stroke="none" 
	d="
M846.967896,1223.237061 
	C847.013306,1223.499268 846.637756,1224.012817 846.322876,1223.967773 
	C846.007996,1223.922607 845.648987,1223.389648 845.826172,1223.123413 
	C846.354797,1222.549194 846.661133,1222.588501 846.967896,1223.237061 
z"/>
<path fill="#0087FE" opacity="1.000000" stroke="none" 
	d="
M791.440552,1097.696289 
	C790.973389,1097.881348 790.554199,1097.483032 790.094604,1096.550293 
	C790.582031,1096.286133 791.060120,1096.651855 791.440552,1097.696289 
z"/>
<path fill="#0087FE" opacity="1.000000" stroke="none" 
	d="
M766.686096,1070.682617 
	C766.334656,1070.843018 765.633362,1070.529663 764.554688,1069.775757 
	C764.896973,1069.626343 765.616577,1069.917725 766.686096,1070.682617 
z"/>
<path fill="#009BFF" opacity="1.000000" stroke="none" 
	d="
M836.145996,1181.450562 
	C835.571106,1181.630493 835.341431,1181.152344 835.558960,1180.276611 
	C835.850525,1180.324707 836.012268,1180.629272 836.145996,1181.450562 
z"/>
<path fill="#0087FE" opacity="1.000000" stroke="none" 
	d="
M774.487976,1079.215820 
	C774.130920,1079.210205 773.627747,1078.632080 772.954346,1077.492432 
	C773.303345,1077.501831 773.822632,1078.072632 774.487976,1079.215820 
z"/>
<path fill="#0087FE" opacity="1.000000" stroke="none" 
	d="
M823.627441,1149.548828 
	C823.278259,1149.525146 822.863831,1148.951050 822.306274,1147.859131 
	C822.629456,1147.893677 823.095764,1148.446045 823.627441,1149.548828 
z"/>
<path fill="#0087FE" opacity="1.000000" stroke="none" 
	d="
M780.393921,1085.137695 
	C780.038452,1085.160034 779.516357,1084.638916 778.809021,1083.583618 
	C779.158264,1083.564453 779.692810,1084.079346 780.393921,1085.137695 
z"/>
<path fill="#0087FE" opacity="1.000000" stroke="none" 
	d="
M801.538452,1111.543823 
	C801.038330,1111.659058 800.655640,1111.175171 800.250549,1110.154175 
	C800.589111,1110.150513 801.065002,1110.592896 801.538452,1111.543823 
z"/>
<path fill="#009BFF" opacity="1.000000" stroke="none" 
	d="
M479.554810,1024.208252 
	C479.699524,1024.729248 479.221130,1025.150269 478.248291,1025.713623 
	C478.214996,1025.351318 478.607605,1024.768555 479.554810,1024.208252 
z"/>
<path fill="#0087FE" opacity="1.000000" stroke="none" 
	d="
M797.653564,1105.599121 
	C797.208191,1105.805786 796.737671,1105.418335 796.153931,1104.497559 
	C796.622925,1104.198608 797.152161,1104.545654 797.653564,1105.599121 
z"/>
<path fill="#1F1F9C" opacity="1.000000" stroke="none" 
	d="
M828.632874,1355.118530 
	C819.081482,1382.497314 803.607422,1406.368042 785.017578,1428.344971 
	C766.814026,1449.865356 745.317261,1467.533569 720.596619,1482.448975 
	C664.373230,1436.922363 651.331726,1358.002686 685.562866,1297.427368 
	C687.520569,1293.962891 689.878357,1290.724365 693.099976,1287.538208 
	C694.659119,1288.123657 695.106201,1288.678955 695.686096,1288.961426 
	C731.886169,1306.583496 768.133240,1324.109619 804.279785,1341.840576 
	C812.572998,1345.908691 820.524231,1350.674072 828.632874,1355.118530 
z"/>
<path fill="#2424AC" opacity="1.000000" stroke="none" 
	d="
M829.108154,1354.530273 
	C820.524231,1350.674072 812.572998,1345.908691 804.279785,1341.840576 
	C768.133240,1324.109619 731.886169,1306.583496 695.686096,1288.961426 
	C695.106201,1288.678955 694.659119,1288.123657 693.608093,1287.053223 
	C697.876587,1280.019287 702.687012,1273.627808 707.800171,1266.637451 
	C716.830627,1259.228149 725.558411,1252.417847 735.411194,1245.929932 
	C739.043152,1247.843018 741.426880,1249.684692 744.075928,1250.986450 
	C774.159607,1265.768066 804.263977,1280.508179 834.429016,1295.122559 
	C837.344421,1296.534912 840.704041,1297.030273 843.857422,1297.951416 
	C843.178223,1303.400757 842.499023,1308.850098 841.850037,1315.136475 
	C837.781311,1328.629761 833.682373,1341.285889 829.108154,1354.530273 
z"/>
<path fill="#000001" opacity="1.000000" stroke="none" 
	d="
M1532.026611,1179.454346 
	C1544.047852,1182.764771 1554.935791,1186.190552 1564.814087,1192.894287 
	C1589.792725,1209.846191 1603.612549,1233.382202 1607.516113,1262.895142 
	C1610.260864,1283.646729 1608.953369,1304.108032 1600.600586,1323.686157 
	C1589.750122,1349.118652 1571.758179,1367.140259 1545.570923,1376.581787 
	C1518.294067,1386.416138 1491.775513,1383.825195 1466.712280,1369.958618 
	C1450.738892,1361.120850 1438.049805,1348.336670 1430.255737,1331.473755 
	C1428.640869,1327.979980 1427.959473,1323.764893 1427.930908,1319.874390 
	C1427.735352,1293.210449 1427.946533,1266.543457 1427.776855,1239.879150 
	C1427.695557,1227.113892 1434.773438,1217.692871 1442.550415,1209.146851 
	C1463.024536,1186.648315 1488.982056,1176.657593 1519.307495,1177.993652 
	C1523.278442,1178.168579 1527.228149,1178.830078 1532.026611,1179.454346 
z"/>
<path fill="#000001" opacity="1.000000" stroke="none" 
	d="
M1970.309814,1238.041504 
	C1978.369995,1258.780640 1979.851074,1279.341919 1976.445068,1300.475098 
	C1973.333496,1319.781738 1964.796387,1336.403198 1951.662354,1350.520874 
	C1926.442993,1377.629150 1894.804565,1387.435913 1859.245483,1379.292114 
	C1823.946045,1371.207764 1800.913330,1347.945679 1789.653931,1313.423340 
	C1782.542847,1291.620239 1782.244141,1269.574097 1789.331543,1247.802368 
	C1800.229370,1214.326416 1821.837769,1191.612183 1856.399902,1181.631592 
	C1880.417969,1174.695923 1903.164795,1177.690430 1924.959351,1188.591309 
	C1944.248291,1198.238892 1958.602539,1213.185059 1967.740723,1232.906250 
	C1968.437378,1234.409302 1969.270142,1235.849121 1970.309814,1238.041504 
z"/>
<path fill="#2B2ABB" opacity="1.000000" stroke="none" 
	d="
M844.173462,1297.209473 
	C840.704041,1297.030273 837.344421,1296.534912 834.429016,1295.122559 
	C804.263977,1280.508179 774.159607,1265.768066 744.075928,1250.986450 
	C741.426880,1249.684692 739.043152,1247.843018 736.062744,1245.659058 
	C756.879761,1230.167969 780.864197,1223.166504 806.503967,1222.239014 
	C819.013672,1221.786499 831.597351,1223.380005 845.015869,1224.045654 
	C846.056458,1229.333374 846.020996,1234.639160 846.438538,1239.909180 
	C847.938721,1258.843994 847.591187,1277.698975 844.173462,1297.209473 
z"/>
</svg>