<svg width="433" height="264" viewBox="0 0 433 264" fill="none" xmlns="http://www.w3.org/2000/svg">
<path d="M0 0V20.9616H18.7024V72.0192H44.7252V20.9616H63.4276V0H0ZM84.3863 0L57.9623 72.0192H84.3362L98.6763 28.4064L113.117 71.9664H139.44L113.117 0H84.3863ZM134.025 0V20.9616H152.678V72.0192H178.7V20.9616H197.403V0H134.025ZM218.361 0L191.887 72.0192H218.311L232.702 28.4592L247.092 72.0192H273.466L247.092 0H218.361ZM0 180.101C0 131.419 24.9699 108.029 68.5921 108.029C95.0662 108.029 112.415 117.902 121.39 130.205C123.145 132.634 123.797 134.693 123.797 136.963C123.797 142.93 118.532 147.84 111.964 147.84C108.905 147.84 105.846 146.626 102.988 143.722C94.0133 134.482 84.5869 129.36 68.5921 129.36C39.4605 129.36 26.2736 146.203 26.2736 180.101C26.2736 216.058 39.4104 230.63 68.5921 230.63C84.7874 230.63 93.562 227.146 104.091 217.061C107.601 213.787 110.459 212.573 113.518 212.573C120.086 212.573 125.351 217.483 125.351 223.661C125.351 225.931 124.549 228.096 123.145 229.838C112.615 242.986 92.0578 252.014 68.5921 252.014C24.9699 252.014 0 230.419 0 180.101ZM205.576 229.152C211.442 228.941 216.306 233.798 216.506 239.976C216.506 240.187 216.506 240.346 216.506 240.557C216.506 247.157 211.994 252.014 205.576 252.014H147.864C141.396 252.014 136.733 246.946 136.733 240.187V120.278C136.733 113.52 141.797 108.029 148.065 108.029C154.332 108.029 159.346 113.52 159.346 120.278V229.152H205.576ZM262.084 239.29C262.084 246.312 256.97 252.014 250.702 252.014C244.434 252.014 239.32 246.312 239.32 239.29V156.71C239.32 149.688 244.434 143.986 250.702 143.986C257.02 143.986 262.084 149.688 262.084 156.71V239.29ZM421.179 264C418.021 264 415.062 262.68 412.856 260.357L396.962 243.566L392.349 246.523C391.396 247.157 390.443 247.738 389.441 248.266L389.039 248.477C382.02 252.278 374.449 254.918 366.627 256.238C363.117 256.819 359.507 257.136 355.947 257.136C349.98 257.136 344.063 256.344 338.297 254.866C329.422 252.384 321.099 248.213 313.678 242.51C306.258 236.861 299.99 229.68 295.227 221.443C293.973 219.331 292.82 217.166 291.767 214.896C288.959 208.666 286.954 202.013 285.901 195.202L285.8 194.515L285.65 193.723L285.499 192.509C285.098 189.235 284.848 185.962 284.848 182.635C284.848 176.458 285.6 170.333 287.054 164.366C289.41 155.021 293.472 146.256 298.987 138.494C304.503 130.733 311.372 124.133 319.294 119.117C322.353 117.11 325.612 115.315 329.021 113.837C334.386 111.514 340.002 109.824 345.768 108.874C355.295 107.342 365.022 107.923 374.348 110.563L374.549 110.616C375.301 110.827 376.003 111.038 376.655 111.25L376.905 111.302C391.697 116.266 404.533 126.139 413.458 139.445C414.561 141.082 415.463 142.56 416.215 143.986C419.876 150.322 422.583 157.133 424.288 164.208C424.99 167.059 425.542 170.069 425.893 173.29C426.895 182.477 426.344 191.77 424.338 200.798C422.633 207.979 419.926 214.843 416.316 221.179L413.558 225.984L429.503 242.827C434.166 247.738 434.166 255.499 429.503 260.41C427.297 262.68 424.288 264 421.179 264ZM356.548 128.41C353.941 128.41 351.384 128.621 348.777 129.043C341.857 130.152 335.239 132.686 329.272 136.435L329.122 136.541C323.205 140.554 318.442 145.2 314.531 150.744C310.469 156.341 307.511 162.782 305.907 169.594C304.102 176.405 303.7 183.586 304.804 190.555C305.856 197.947 308.163 204.442 311.773 210.514C315.183 216.427 319.846 221.707 325.211 225.773C339.751 237.23 358.955 239.765 375.752 232.426C384.376 228.624 391.797 222.394 397.262 214.368C401.123 208.982 403.931 202.646 405.586 195.624C407.19 188.496 407.541 181.368 406.589 174.398C404.382 159.984 397.313 147.418 386.633 138.97C377.958 132.106 367.429 128.41 356.548 128.41Z" fill="black"/>
<path d="M269.354 118.589C274.87 124.397 274.87 133.848 269.354 139.656C263.839 145.464 254.864 145.464 249.348 139.656L232.05 121.387C226.685 115.421 226.935 106.022 232.601 100.373C238.067 94.9343 246.591 94.9343 252.056 100.373L269.354 118.589Z" fill="#FF1744"/>
</svg>
