<?xml version="1.0" encoding="utf-8"?>
<!-- Generator: Adobe Illustrator 16.0.0, SVG Export Plug-In . SVG Version: 6.00 Build 0)  -->
<!DOCTYPE svg PUBLIC "-//W3C//DTD SVG 1.1//EN" "http://www.w3.org/Graphics/SVG/1.1/DTD/svg11.dtd">
<svg version="1.1" id="Layer_1" xmlns="http://www.w3.org/2000/svg" xmlns:xlink="http://www.w3.org/1999/xlink" x="0px" y="0px"
	 width="50px" height="50px" viewBox="0 0 50 50" enable-background="new 0 0 50 50" xml:space="preserve">
<path fill="#FFFFFF" d="M28.517,8.817h1.408v1.407h-1.408V8.817z"/>
<path fill="#FFFFFF" d="M25.702,8.817h1.407v1.407h-1.407V8.817z"/>
<path fill="#FFFFFF" d="M20.075,14.446h1.407v1.407h-1.407V14.446z"/>
<path fill="#FFFFFF" d="M22.889,14.446h1.407v1.407h-1.407V14.446z"/>
<path fill="#FFFFFF" d="M28.517,20.075h1.408v1.407h-1.408V20.075z"/>
<path fill="#FFFFFF" d="M25.702,20.075h1.407v1.407h-1.407V20.075z"/>
<path fill="#FFFFFF" d="M20.075,25.703h1.407v1.407h-1.407V25.703z"/>
<path fill="#FFFFFF" d="M22.889,25.703h1.407v1.407h-1.407V25.703z"/>
<path fill="#FFFFFF" d="M8.816,14.446h1.407v1.407H8.816V14.446z"/>
<path fill="#FFFFFF" d="M11.631,14.446h1.407v1.407h-1.407V14.446z"/>
<path fill="#FFFFFF" d="M8.816,25.703h1.407v1.407H8.816V25.703z"/>
<path fill="#FFFFFF" d="M11.631,25.703h1.407v1.407h-1.407V25.703z"/>
<path fill="#FFFFFF" d="M43.294,8.817h-7.739V6.705c0-1.94-1.579-3.518-3.519-3.518H17.963c-1.94,0-3.518,1.578-3.518,3.518v2.112
	H6.705c-1.94,0-3.518,1.578-3.518,3.518v19.702c0,1.94,1.578,3.518,3.518,3.518h5.771c-0.002,0.011-0.002,0.021-0.004,0.03
	c-2.839,0.284-5.063,2.687-5.063,5.6c0,3.104,2.525,5.629,5.629,5.629H36.96c3.104,0,5.63-2.525,5.63-5.629
	c0-2.866-2.153-5.233-4.928-5.581c0-0.016,0.002-0.031,0.002-0.049h5.63c1.939,0,3.519-1.577,3.519-3.518V12.334
	C46.812,10.395,45.233,8.817,43.294,8.817z M42.59,22.89h-7.035v-4.222h7.035V22.89z M42.59,24.297v4.221h-7.035v-4.221H42.59z
	 M42.59,17.261h-7.035v-4.222h7.035V17.261z M17.963,4.595h14.073c1.163,0,2.11,0.947,2.11,2.11v22.006
	c-0.439-0.318-0.909-0.593-1.407-0.822V7.409c0-0.776-0.631-1.407-1.407-1.407H18.667c-0.777,0-1.407,0.631-1.407,1.407v22.844
	c-0.496,0.154-0.966,0.362-1.408,0.618V6.705C15.853,5.542,16.8,4.595,17.963,4.595L17.963,4.595z M22.385,30.618
	c-0.939-0.446-1.965-0.693-3.015-0.693c-0.237,0-0.471,0.015-0.703,0.037v-5.665h12.665v3.092c-0.677-0.175-1.381-0.278-2.11-0.278
	C26.409,27.11,23.92,28.498,22.385,30.618L22.385,30.618z M31.332,11.631H18.667V7.409h12.665V11.631z M18.667,13.039h12.665v4.222
	H18.667V13.039z M18.667,18.668h12.665v4.222H18.667V18.668z M14.445,17.261H7.409v-4.222h7.037V17.261z M7.409,18.668h7.037v4.222
	H7.409V18.668z M7.409,24.297h7.037v4.221H7.409V24.297z M4.594,32.036V12.334c0-1.163,0.947-2.11,2.11-2.11h7.741v1.407H7.409
	c-0.776,0-1.407,0.63-1.407,1.407v20.979C5.185,33.727,4.594,32.952,4.594,32.036z M7.409,34.146v-4.222h7.037v2.016
	c-0.639,0.624-1.159,1.371-1.523,2.206H7.409z M41.184,41.184c0,2.329-1.895,4.222-4.224,4.222H13.038
	c-2.329,0-4.222-1.893-4.222-4.222c0-2.328,1.893-4.223,4.222-4.223c2.328,0,4.222,1.895,4.222,4.223h1.407
	c0-2.808-2.071-5.136-4.762-5.556c0.601-2.491,2.834-4.296,5.464-4.296c0.794,0,1.572,0.172,2.288,0.491
	c-0.558,1.126-0.88,2.391-0.88,3.73h1.407c0-3.879,3.157-7.036,7.037-7.036s7.037,3.157,7.037,7.036c0,0.018-0.003,0.033-0.003,0.05
	c-2.771,0.35-4.924,2.716-4.924,5.58h1.407c0-2.328,1.895-4.223,4.221-4.223C39.289,36.961,41.184,38.855,41.184,41.184z
	 M37.537,34.146c-0.268-1.577-0.969-3.006-1.982-4.159v-0.062h7.035v4.222H37.537z M45.404,32.036c0,0.916-0.591,1.69-1.406,1.981
	V13.039c0-0.777-0.631-1.407-1.408-1.407h-7.035v-1.407h7.739c1.164,0,2.11,0.947,2.11,2.11V32.036z"/>
<path fill="#FFFFFF" d="M39.774,14.446h1.409v1.407h-1.409V14.446z"/>
<path fill="#FFFFFF" d="M36.96,14.446h1.409v1.407H36.96V14.446z"/>
<path fill="#FFFFFF" d="M39.774,25.703h1.409v1.407h-1.409V25.703z"/>
<path fill="#FFFFFF" d="M36.96,25.703h1.409v1.407H36.96V25.703z"/>
<path fill="#FFFFFF" d="M33.399,34.95l1.394-0.198c-0.394-2.752-2.788-4.827-5.571-4.827c-0.547,0-1.088,0.078-1.607,0.233l0.4,1.35
	c0.391-0.116,0.796-0.176,1.207-0.176C31.309,31.332,33.105,32.887,33.399,34.95z"/>
<path fill="#FFFFFF" d="M13.038,42.591h1.407v1.407h-1.407V42.591z"/>
<path fill="#FFFFFF" d="M15.853,42.591h1.408v1.407h-1.408V42.591z"/>
<path fill="#FFFFFF" d="M18.667,42.591h1.407v1.407h-1.407V42.591z"/>
</svg>
