<svg width="370" height="187" viewBox="0 0 370 187" fill="none" xmlns="http://www.w3.org/2000/svg">
<path d="M201.73 75.4199H182.66L193.44 102.33H213.44L201.73 75.4199Z" fill="white"/>
<path d="M168.92 49.5899L170.59 45.2799L172.32 49.5899H190.49L178.43 21.8599H163.77L151.79 49.5899H168.92Z" fill="white"/>
<path d="M140.62 75.4199L128.99 102.33H148.54L158.94 75.4199H140.62Z" fill="white"/>
<path d="M45.8 41.5201C44.36 39.7001 42.41 38.3601 39.95 37.4901C37.49 36.6201 35.16 36.1801 32.96 36.1801C31.67 36.1801 30.35 36.3301 28.98 36.6401C27.62 36.9401 26.33 37.4201 25.12 38.0601C23.91 38.7101 22.92 39.5601 22.17 40.6201C21.41 41.6801 21.03 42.9701 21.03 44.4801C21.03 46.9001 21.94 48.7601 23.76 50.0501C25.58 51.3401 27.87 52.4401 30.63 53.3501C33.39 54.2601 36.37 55.1701 39.55 56.0801C42.73 56.9901 45.71 58.2801 48.47 59.9401C51.23 61.6101 53.53 63.8401 55.35 66.6401C57.17 69.4401 58.08 73.2001 58.08 77.8901C58.08 82.5801 57.25 86.2601 55.58 89.5901C53.91 92.9301 51.66 95.6901 48.82 97.8901C45.98 100.09 42.68 101.72 38.93 102.78C35.18 103.84 31.22 104.37 27.05 104.37C21.82 104.37 16.97 103.57 12.5 101.98C8.03 100.39 3.86 97.8101 0 94.2501L12.62 80.3801C14.44 82.8101 16.73 84.6801 19.5 86.0101C22.26 87.3401 25.13 88.0001 28.08 88.0001C29.52 88.0001 30.98 87.8301 32.46 87.4901C33.94 87.1501 35.26 86.6401 36.44 85.9501C37.61 85.2701 38.56 84.4001 39.28 83.3401C40 82.2801 40.36 81.0301 40.36 79.5901C40.36 77.1701 39.43 75.2501 37.58 73.8501C35.72 72.4501 33.39 71.2601 30.59 70.2701C27.79 69.2901 24.75 68.3001 21.5 67.3201C18.24 66.3401 15.21 65.0101 12.41 63.3401C9.61 61.6701 7.28001 59.4801 5.42001 56.7501C3.56001 54.0201 2.64001 50.4201 2.64001 45.9501C2.64001 41.4801 3.49 37.8401 5.2 34.5801C6.91 31.3201 9.18 28.6001 12.02 26.4001C14.86 24.2001 18.14 22.5601 21.85 21.4601C25.56 20.3601 29.39 19.8101 33.33 19.8101C37.88 19.8101 42.27 20.4601 46.51 21.7401C50.75 23.0301 54.58 25.1901 57.99 28.2201L45.83 41.5201H45.8Z" fill="white"/>
<path d="M116.95 42.7698C115.2 40.6498 113.07 39.0198 110.53 37.8798C107.99 36.7398 105.06 36.1698 101.72 36.1698C98.3802 36.1698 95.3002 36.8198 92.4602 38.0998C89.6202 39.3898 87.1502 41.1898 85.0702 43.4998C82.9802 45.8098 81.3602 48.5598 80.1802 51.7398C79.0002 54.9198 78.4202 58.3698 78.4202 62.0798C78.4202 65.7898 79.0102 69.3398 80.1802 72.4798C81.3602 75.6198 82.9602 78.3498 85.0102 80.6598C87.0602 82.9698 89.4602 84.7698 92.2302 86.0598C94.9902 87.3498 97.9702 87.9898 101.15 87.9898C104.79 87.9898 108.01 87.2298 110.81 85.7198C113.61 84.2098 115.93 82.0798 117.74 79.3598L132.51 90.3798C129.1 95.1498 124.78 98.6798 119.55 100.95C114.32 103.22 108.94 104.36 103.41 104.36C97.1202 104.36 91.3202 103.37 86.0202 101.41C80.7202 99.4398 76.1302 96.6198 72.2702 92.9398C68.4102 89.2698 65.4002 84.8098 63.2302 79.5798C61.0702 74.3498 59.9902 68.5198 59.9902 62.0798C59.9902 55.6398 61.0702 49.8098 63.2302 44.5798C65.3902 39.3498 68.4002 34.8998 72.2702 31.2298C76.1302 27.5598 80.7202 24.7398 86.0202 22.7598C91.3202 20.7898 97.1202 19.7998 103.41 19.7998C105.68 19.7998 108.05 20.0098 110.51 20.4298C112.97 20.8498 115.4 21.5098 117.78 22.4198C120.17 23.3298 122.46 24.5398 124.66 26.0598C126.86 27.5798 128.83 29.4298 130.57 31.6298L116.93 42.7698H116.95Z" fill="white"/>
<path d="M215.26 21.8599H232.99V85.9599H265.83V102.33H215.26V21.8599V21.8599Z" fill="white"/>
<path d="M268.44 21.8599H286.17V102.33H268.44V21.8599Z" fill="white"/>
<path d="M315.38 60.2801L288.78 21.8701H311.06L328.22 50.0601L344.7 21.8701H366.18L340.15 59.9401L369.24 102.33H346.96L327.3 69.9401L308.21 102.33H287.18L315.37 60.2801H315.38Z" fill="white"/>
<path d="M131.04 109.19H60.3301V125.39H131.04V109.19Z" fill="#6D52A2"/>
<path d="M206.57 54.3999H135.86V70.5999H206.57V54.3999Z" fill="#4890CD"/>
<path d="M285.97 0.850098H215.26V17.0501H285.97V0.850098Z" fill="#3CB766"/>
<path d="M270.78 177.79V157.81H273.56L273.83 159.81H274.02C274.5 159.03 275.12 158.44 275.89 158.05C276.66 157.66 277.51 157.46 278.45 157.46C279.64 157.46 280.66 157.74 281.51 158.29C282.36 158.84 283.02 159.7 283.49 160.86C283.96 162.02 284.19 163.52 284.19 165.35C284.19 167.18 283.95 168.62 283.48 169.78C283 170.94 282.35 171.8 281.52 172.35C280.69 172.9 279.73 173.18 278.65 173.18C277.99 173.18 277.39 173.1 276.84 172.95C276.29 172.8 275.8 172.56 275.38 172.25C274.96 171.94 274.6 171.55 274.31 171.09H274.14V177.78H270.79L270.78 177.79ZM277.4 170.19C278.22 170.19 278.88 170.02 279.36 169.69C279.85 169.36 280.19 168.85 280.4 168.16C280.61 167.47 280.72 166.61 280.72 165.56V165.16C280.72 164.09 280.61 163.21 280.4 162.52C280.19 161.82 279.84 161.31 279.36 160.98C278.87 160.65 278.22 160.48 277.4 160.48C276.65 160.48 276.03 160.66 275.55 161.02C275.06 161.38 274.71 161.91 274.48 162.61C274.25 163.31 274.14 164.16 274.14 165.17V165.51C274.14 166.25 274.2 166.92 274.33 167.5C274.46 168.08 274.66 168.57 274.92 168.97C275.19 169.37 275.52 169.68 275.94 169.89C276.35 170.1 276.84 170.2 277.41 170.2L277.4 170.19Z" fill="#4890CD"/>
<path d="M287.33 172.84V157.8H290.13L290.4 160.17H290.59C290.77 159.69 291 159.25 291.26 158.84C291.53 158.43 291.87 158.1 292.29 157.84C292.71 157.58 293.22 157.45 293.83 157.45C294.12 157.45 294.39 157.48 294.64 157.54C294.89 157.6 295.08 157.65 295.2 157.71V161H294.18C293.61 161 293.11 161.08 292.67 161.24C292.23 161.4 291.86 161.65 291.56 162C291.26 162.34 291.03 162.77 290.89 163.29C290.74 163.8 290.67 164.4 290.67 165.09V172.84H287.32H287.33Z" fill="#4890CD"/>
<path d="M303.71 173.19C302.13 173.19 300.81 172.91 299.75 172.35C298.69 171.79 297.89 170.93 297.36 169.76C296.83 168.59 296.56 167.12 296.56 165.33C296.56 163.54 296.83 162.04 297.36 160.88C297.89 159.73 298.69 158.87 299.75 158.31C300.81 157.75 302.13 157.47 303.71 157.47C305.29 157.47 306.63 157.75 307.68 158.31C308.73 158.87 309.53 159.73 310.06 160.88C310.59 162.03 310.86 163.51 310.86 165.33C310.86 167.15 310.59 168.6 310.06 169.76C309.53 170.92 308.74 171.78 307.68 172.35C306.63 172.91 305.3 173.19 303.71 173.19ZM303.71 170.33C304.59 170.33 305.3 170.15 305.84 169.8C306.38 169.45 306.77 168.91 307.02 168.2C307.27 167.49 307.39 166.6 307.39 165.53V165.13C307.39 164.06 307.27 163.17 307.02 162.46C306.77 161.75 306.38 161.21 305.84 160.86C305.3 160.51 304.59 160.33 303.71 160.33C302.83 160.33 302.12 160.51 301.58 160.86C301.04 161.21 300.65 161.75 300.4 162.46C300.15 163.17 300.03 164.07 300.03 165.13V165.53C300.03 166.6 300.15 167.49 300.4 168.2C300.65 168.91 301.04 169.45 301.58 169.8C302.12 170.15 302.83 170.33 303.71 170.33Z" fill="#4890CD"/>
<path d="M319.01 173.19C317.84 173.19 316.82 172.91 315.96 172.36C315.1 171.81 314.43 170.95 313.97 169.79C313.5 168.63 313.27 167.13 313.27 165.3C313.27 163.47 313.51 162.01 313.98 160.86C314.46 159.71 315.12 158.85 315.96 158.3C316.8 157.75 317.76 157.47 318.82 157.47C319.48 157.47 320.08 157.55 320.63 157.7C321.18 157.85 321.66 158.09 322.09 158.4C322.51 158.71 322.87 159.1 323.16 159.56H323.33V152.19H326.68V172.86H323.9L323.63 170.86H323.44C322.98 171.64 322.36 172.23 321.59 172.62C320.81 173.01 319.95 173.21 319.02 173.21L319.01 173.19ZM320.05 170.19C320.82 170.19 321.44 170.01 321.92 169.65C322.4 169.29 322.75 168.76 322.98 168.08C323.21 167.4 323.32 166.56 323.32 165.56V165.19C323.32 164.45 323.26 163.78 323.13 163.19C323 162.6 322.8 162.1 322.54 161.7C322.27 161.3 321.94 160.99 321.52 160.79C321.1 160.59 320.62 160.48 320.05 160.48C319.23 160.48 318.57 160.65 318.09 160.98C317.6 161.31 317.26 161.83 317.05 162.52C316.84 163.22 316.73 164.1 316.73 165.16V165.56C316.73 166.61 316.83 167.48 317.05 168.16C317.26 168.85 317.61 169.36 318.09 169.69C318.58 170.02 319.23 170.19 320.05 170.19V170.19Z" fill="#4890CD"/>
<path d="M335.12 173.19C333.73 173.19 332.6 172.79 331.73 172C330.86 171.21 330.42 169.86 330.42 167.96V157.81H333.77V167.33C333.77 167.86 333.83 168.31 333.95 168.66C334.07 169.01 334.24 169.3 334.47 169.52C334.7 169.74 334.98 169.9 335.31 169.99C335.64 170.09 336.01 170.13 336.41 170.13C337.01 170.13 337.56 169.98 338.05 169.67C338.54 169.37 338.92 168.94 339.2 168.4C339.48 167.86 339.63 167.24 339.63 166.56V157.81H342.98V172.85H340.2L339.93 170.85H339.74C339.41 171.31 339.02 171.71 338.57 172.06C338.12 172.41 337.61 172.69 337.03 172.89C336.45 173.09 335.82 173.19 335.12 173.19V173.19Z" fill="#4890CD"/>
<path d="M352.84 173.19C351.34 173.19 350.09 172.91 349.09 172.35C348.09 171.79 347.34 170.93 346.85 169.76C346.36 168.59 346.11 167.12 346.11 165.33C346.11 163.54 346.36 162.04 346.87 160.88C347.37 159.73 348.12 158.87 349.12 158.31C350.12 157.75 351.36 157.47 352.84 157.47C353.81 157.47 354.67 157.59 355.42 157.84C356.17 158.09 356.82 158.46 357.36 158.97C357.9 159.48 358.31 160.1 358.58 160.84C358.85 161.58 358.99 162.45 358.99 163.44H355.58C355.58 162.73 355.48 162.15 355.28 161.7C355.08 161.24 354.77 160.9 354.36 160.66C353.95 160.42 353.42 160.3 352.78 160.3C352.03 160.3 351.41 160.48 350.94 160.84C350.46 161.2 350.11 161.74 349.88 162.45C349.65 163.16 349.54 164.07 349.54 165.15V165.52C349.54 166.59 349.65 167.48 349.88 168.21C350.11 168.93 350.47 169.47 350.97 169.83C351.46 170.18 352.12 170.36 352.92 170.36C353.54 170.36 354.06 170.24 354.47 170C354.88 169.76 355.2 169.4 355.42 168.93C355.64 168.45 355.75 167.88 355.75 167.21H358.99C358.99 168.14 358.85 168.98 358.58 169.73C358.31 170.48 357.9 171.1 357.37 171.62C356.84 172.13 356.19 172.53 355.43 172.79C354.67 173.05 353.8 173.19 352.83 173.19H352.84Z" fill="#4890CD"/>
<path d="M365.95 173.19C365.05 173.19 364.35 173 363.83 172.63C363.32 172.26 362.95 171.78 362.74 171.2C362.53 170.62 362.42 170.02 362.42 169.41V160.66H360.69V157.8H362.5L363.1 153.6H365.77V157.8H368.27V160.66H365.77V169.06C365.77 169.46 365.87 169.77 366.07 169.99C366.27 170.21 366.57 170.32 366.98 170.32H368.27V172.72C368.09 172.8 367.86 172.87 367.6 172.93C367.33 173 367.05 173.05 366.76 173.1C366.47 173.15 366.19 173.17 365.94 173.17L365.95 173.19Z" fill="#4890CD"/>
<path d="M4.82977 173.19C4.42977 173.19 3.95977 173.14 3.43977 173.03C2.91977 172.93 2.40976 172.73 1.92976 172.44C1.43976 172.15 1.04977 171.73 0.729767 171.17C0.419767 170.61 0.259766 169.87 0.259766 168.95C0.259766 167.92 0.479769 167.07 0.919769 166.39C1.35977 165.71 1.97977 165.18 2.77977 164.79C3.57977 164.4 4.52977 164.12 5.63977 163.96C6.74977 163.8 7.95977 163.72 9.27977 163.72V162.49C9.27977 162.05 9.21977 161.66 9.08977 161.32C8.95977 160.98 8.72977 160.71 8.38977 160.51C8.04977 160.31 7.53977 160.21 6.86977 160.21C6.19977 160.21 5.65977 160.3 5.27977 160.47C4.89977 160.64 4.62977 160.85 4.47977 161.1C4.32977 161.35 4.25977 161.6 4.25977 161.87V162.27H1.01977C0.999768 162.17 0.989769 162.08 0.989769 161.98V161.64C0.989769 160.78 1.23977 160.04 1.72977 159.41C2.21977 158.78 2.90976 158.3 3.78976 157.97C4.66976 157.64 5.68977 157.47 6.83977 157.47C8.15977 157.47 9.23977 157.66 10.0998 158.04C10.9598 158.42 11.5898 158.96 12.0098 159.67C12.4298 160.38 12.6398 161.23 12.6398 162.24V169.33C12.6398 169.69 12.7398 169.95 12.9398 170.1C13.1398 170.25 13.3598 170.33 13.5998 170.33H14.4798V172.73C14.2998 172.81 14.0298 172.9 13.6798 173C13.3298 173.1 12.8998 173.16 12.3898 173.16C11.9098 173.16 11.4898 173.08 11.1098 172.92C10.7298 172.76 10.4198 172.52 10.1598 172.22C9.89977 171.92 9.71976 171.55 9.60976 171.13H9.43977C9.12977 171.53 8.75977 171.89 8.32977 172.2C7.89977 172.51 7.39976 172.76 6.81976 172.93C6.23976 173.1 5.57977 173.19 4.82977 173.19V173.19ZM5.84977 170.33C6.39977 170.33 6.88976 170.24 7.31976 170.07C7.74976 169.9 8.10977 169.66 8.38977 169.36C8.66977 169.06 8.88977 168.68 9.04977 168.25C9.20977 167.81 9.27977 167.34 9.27977 166.82V166.13C8.26977 166.13 7.33977 166.2 6.48977 166.33C5.63977 166.46 4.95977 166.71 4.45977 167.07C3.95977 167.43 3.69977 167.95 3.69977 168.61C3.69977 168.95 3.77976 169.25 3.92976 169.51C4.07976 169.77 4.31977 169.97 4.63977 170.11C4.95977 170.25 5.35977 170.32 5.83977 170.32L5.84977 170.33Z" fill="#4890CD"/>
<path d="M205.68 171.26V175.94H203.58C201.57 175.94 200 175.45 198.88 174.47C197.76 173.49 197.19 171.9 197.19 169.68V160.27H194.98V155.69H197.19V151.95L202.73 154.65V155.68H205.64V160.26H202.73V169.74C202.73 170.28 202.86 170.66 203.12 170.9C203.38 171.14 204.46 171.25 205.07 171.25H205.68V171.26Z" fill="#4890CD"/>
<path d="M79.6699 169.82H86.2199L88.1699 175.74L74.1299 176.05V155.71H79.6699V169.82Z" fill="#4890CD"/>
<path d="M105.66 167.93H93.1101C93.2001 169.06 93.5601 169.92 94.2001 170.52C94.8401 171.12 95.6201 171.41 96.5501 171.41C97.9301 171.41 98.9001 170.82 99.4401 169.65H105.34C105.04 170.84 104.49 171.92 103.7 172.87C102.91 173.82 101.92 174.57 100.73 175.11C99.5401 175.65 98.2101 175.92 96.7401 175.92C94.9701 175.92 93.3901 175.54 92.0101 174.78C90.6301 174.02 89.5501 172.94 88.7701 171.53C87.9901 170.12 87.6001 168.47 87.6001 166.59C87.6001 164.71 87.9801 163.05 88.7501 161.64C89.5201 160.23 90.5901 159.14 91.9801 158.39C93.3601 157.63 94.9501 157.25 96.7501 157.25C98.5501 157.25 100.06 157.62 101.42 158.36C102.78 159.1 103.85 160.15 104.61 161.52C105.38 162.89 105.76 164.48 105.76 166.3C105.76 166.82 105.73 167.36 105.66 167.93M100.08 164.84C100.08 163.89 99.7601 163.13 99.1101 162.56C98.4601 162 97.6501 161.72 96.6801 161.72C95.7101 161.72 94.9701 161.99 94.3301 162.53C93.6901 163.07 93.3001 163.84 93.1501 164.84H100.09H100.08Z" fill="#4890CD"/>
<path d="M117.39 171.26V175.94H115.29C113.28 175.94 111.71 175.45 110.59 174.47C109.47 173.49 108.9 171.9 108.9 169.68V160.27H106.7V155.69H108.9V151.95L114.44 154.65V155.68H117.35V160.26H114.44V169.74C114.44 170.28 114.57 170.66 114.83 170.9C115.09 171.14 116.17 171.25 116.78 171.25H117.39V171.26Z" fill="#4890CD"/>
<path d="M123.2 175.12C121.97 174.58 120.99 173.83 120.28 172.89C119.57 171.95 119.17 170.89 119.08 169.72H124.56C124.62 170.35 124.92 170.86 125.44 171.25C125.96 171.64 126.6 171.84 127.35 171.84C128.04 171.84 128.58 171.7 128.95 171.43C129.33 171.16 129.52 170.81 129.52 170.37C129.52 169.85 129.25 169.46 128.71 169.21C128.17 168.96 127.29 168.69 126.08 168.38C124.78 168.08 123.7 167.76 122.84 167.42C121.97 167.08 121.23 166.55 120.6 165.83C119.97 165.1 119.66 164.12 119.66 162.88C119.66 161.84 119.95 160.89 120.52 160.03C121.09 159.17 121.94 158.5 123.05 158C124.16 157.5 125.49 157.25 127.02 157.25C129.29 157.25 131.08 157.81 132.39 158.94C133.7 160.07 134.45 161.57 134.64 163.43H129.52C129.43 162.8 129.16 162.3 128.69 161.93C128.23 161.56 127.62 161.38 126.86 161.38C126.21 161.38 125.71 161.51 125.37 161.75C125.02 162 124.85 162.34 124.85 162.78C124.85 163.3 125.13 163.69 125.68 163.95C126.23 164.21 127.09 164.47 128.26 164.73C129.6 165.08 130.69 165.42 131.53 165.76C132.37 166.1 133.11 166.64 133.75 167.39C134.39 168.14 134.72 169.14 134.74 170.4C134.74 171.46 134.44 172.41 133.85 173.25C133.26 174.09 132.4 174.74 131.29 175.22C130.18 175.7 128.89 175.94 127.42 175.94C125.84 175.94 124.44 175.67 123.2 175.13" fill="#4890CD"/>
<path d="M145.83 168.68L149.93 155.71H155.83L148.58 175.93H141.74L134.78 155.71H140.72L144.47 168.68H145.83Z" fill="#4890CD"/>
<path d="M172.61 167.93H160.06C160.15 169.06 160.51 169.92 161.15 170.52C161.79 171.12 162.57 171.41 163.5 171.41C164.88 171.41 165.85 170.82 166.39 169.65H172.29C171.99 170.84 171.44 171.92 170.65 172.87C169.86 173.82 168.87 174.57 167.68 175.11C166.49 175.65 165.16 175.92 163.69 175.92C161.92 175.92 160.34 175.54 158.96 174.78C157.58 174.02 156.5 172.94 155.72 171.53C154.94 170.12 154.55 168.47 154.55 166.59C154.55 164.71 154.93 163.05 155.7 161.64C156.47 160.23 157.54 159.14 158.93 158.39C160.31 157.63 161.9 157.25 163.7 157.25C165.5 157.25 167.01 157.62 168.37 158.36C169.73 159.1 170.8 160.15 171.56 161.52C172.33 162.89 172.71 164.48 172.71 166.3C172.71 166.82 172.68 167.36 172.61 167.93M167.03 164.84C167.03 163.89 166.71 163.13 166.06 162.56C165.41 162 164.6 161.72 163.63 161.72C162.66 161.72 161.92 161.99 161.28 162.53C160.64 163.07 160.25 163.84 160.1 164.84H167.04H167.03Z" fill="#4890CD"/>
<path d="M190.94 159.36C192.2 160.76 192.84 162.69 192.84 165.14V175.94H187.33V165.91C187.33 164.67 187.02 163.71 186.39 163.03C185.76 162.35 184.92 162 183.86 162C182.8 162 181.96 162.34 181.33 163.03C180.7 163.71 180.39 164.67 180.39 165.91V175.94H174.85V157.46C174.85 157.46 184.69 157.26 185.87 157.26C187.99 157.26 189.68 157.96 190.94 159.36" fill="#4890CD"/>
<path d="M225.87 157.26V175.74H220.33C220.33 175.74 216.02 175.94 214.85 175.94C213.47 175.94 212.24 175.63 211.19 175C210.13 174.37 209.31 173.46 208.73 172.27C208.15 171.08 207.86 169.68 207.86 168.06V157.26H213.37V167.29C213.37 168.53 213.68 169.49 214.31 170.17C214.94 170.86 215.78 171.2 216.84 171.2C217.9 171.2 218.77 170.86 219.4 170.17C220.03 169.49 220.34 168.53 220.34 167.29V157.26H225.88H225.87Z" fill="#4890CD"/>
<path d="M236.65 158.13C237.62 157.54 238.7 157.25 239.89 157.25V163.24H238.37C236.99 163.24 235.95 163.54 235.26 164.15C234.57 164.76 234.22 165.82 234.22 167.34V175.92H228.68V157.44H234.22C234.22 157.44 235.68 158.7 236.65 158.12" fill="#4890CD"/>
<path d="M258.86 167.93H246.31C246.4 169.06 246.76 169.92 247.4 170.52C248.04 171.12 248.82 171.41 249.75 171.41C251.13 171.41 252.1 170.82 252.64 169.65H258.54C258.24 170.84 257.69 171.92 256.9 172.87C256.11 173.82 255.12 174.57 253.93 175.11C252.74 175.65 251.41 175.92 249.94 175.92C248.17 175.92 246.59 175.54 245.21 174.78C243.83 174.02 242.75 172.94 241.97 171.53C241.19 170.12 240.8 168.47 240.8 166.59C240.8 164.71 241.18 163.05 241.95 161.64C242.72 160.23 243.79 159.14 245.18 158.39C246.56 157.63 248.15 157.25 249.95 157.25C251.75 157.25 253.26 157.62 254.62 158.36C255.98 159.1 257.05 160.15 257.81 161.52C258.58 162.89 258.96 164.48 258.96 166.3C258.96 166.82 258.93 167.36 258.86 167.93M253.28 164.84C253.28 163.89 252.96 163.13 252.31 162.56C251.66 162 250.85 161.72 249.88 161.72C248.91 161.72 248.17 161.99 247.53 162.53C246.89 163.07 246.5 163.84 246.35 164.84H253.29H253.28Z" fill="#4890CD"/>
<path d="M46.4897 146.35C35.3097 146.35 26.2397 155.41 26.2397 166.6C26.2397 177.79 35.2997 186.85 46.4897 186.85C57.6797 186.85 66.7397 177.78 66.7397 166.6C66.7397 155.42 57.6697 146.35 46.4897 146.35V146.35ZM52.3097 164.82V180.01L40.6797 174.41V164.83H34.8597L46.4897 153.2L58.1197 164.83H52.2997L52.3097 164.82Z" fill="#4890CD"/>
</svg>
